<svg width="824" height="220" viewBox="0 0 824 220" fill="none" xmlns="http://www.w3.org/2000/svg">
<path d="M578.005 161.13L578.005 160.769C578.005 155.052 584.052 149.004 589.769 149.004L590.13 149.004L590.13 148.125L589.769 148.125C584.052 148.125 578.005 142.078 578.005 136.361L578.005 136L577.125 136L577.125 136.361C577.125 142.078 571.078 148.125 565.361 148.125L565 148.125L565 149.004L565.361 149.004C571.078 149.004 577.125 155.052 577.125 160.769L577.125 161.13L578.005 161.13Z" fill="#222222"/>
<path d="M235.005 100.13L235.005 99.769C235.005 94.0519 241.052 88.0047 246.769 88.0047L247.13 88.0047L247.13 87.1253L246.769 87.1253C241.052 87.1253 235.005 81.0785 235.005 75.3615L235.005 75L234.125 75L234.125 75.3615C234.125 81.0785 228.078 87.1253 222.361 87.1253L222 87.1253L222 88.0047L222.361 88.0047C228.078 88.0047 234.125 94.0519 234.125 99.769L234.125 100.13L235.005 100.13Z" fill="#222222"/>
<path d="M381.005 193.13L381.005 192.769C381.005 187.052 387.052 181.004 392.769 181.004L393.13 181.004L393.13 180.125L392.769 180.125C387.052 180.125 381.005 174.078 381.005 168.361L381.005 168L380.125 168L380.125 168.361C380.125 174.078 374.079 180.125 368.361 180.125L368 180.125L368 181.004L368.361 181.004C374.079 181.004 380.125 187.052 380.125 192.769L380.125 193.13L381.005 193.13Z" fill="#3E3D3D"/>
<path d="M208.005 161.13L208.005 160.769C208.005 155.052 214.052 149.004 219.769 149.004L220.13 149.004L220.13 148.125L219.769 148.125C214.052 148.125 208.005 142.078 208.005 136.361L208.005 136L207.125 136L207.125 136.361C207.125 142.078 201.078 148.125 195.361 148.125L195 148.125L195 149.004L195.361 149.004C201.078 149.004 207.125 155.052 207.125 160.769L207.125 161.13L208.005 161.13Z" fill="#222222"/>
<path d="M131.005 168.13L131.005 167.769C131.005 162.052 137.052 156.004 142.769 156.004L143.13 156.004L143.13 155.125L142.769 155.125C137.052 155.125 131.005 149.078 131.005 143.361L131.005 143L130.125 143L130.125 143.361C130.125 149.078 124.078 155.125 118.361 155.125L118 155.125L118 156.004L118.361 156.004C124.078 156.004 130.125 162.052 130.125 167.769L130.125 168.13L131.005 168.13Z" fill="#222222"/>
<path d="M73.0048 138.13L73.0048 137.769C73.0048 132.052 79.0517 126.004 84.7688 126.004L85.13 126.004L85.13 125.125L84.7688 125.125C79.0517 125.125 73.0048 119.078 73.0048 113.361L73.0048 113L72.1252 113L72.1252 113.361C72.1252 119.078 66.0784 125.125 60.3613 125.125L60.0001 125.125L60.0001 126.004L60.3613 126.004C66.0784 126.004 72.1252 132.052 72.1252 137.769L72.1252 138.13L73.0048 138.13Z" fill="#222222"/>
<path d="M131.005 93.1297L131.005 92.7687C131.005 87.0517 137.052 81.0044 142.769 81.0044L143.13 81.0044L143.13 80.125L142.769 80.125C137.052 80.125 131.005 74.0783 131.005 68.3612L131.005 67.9998L130.125 67.9998L130.125 68.3612C130.125 74.0783 124.078 80.125 118.361 80.125L118 80.125L118 81.0044L118.361 81.0044C124.078 81.0044 130.125 87.0517 130.125 92.7687L130.125 93.1297L131.005 93.1297Z" fill="#222222"/>
<path d="M155.005 139.13L155.005 138.769C155.005 133.052 161.052 127.005 166.769 127.005L167.13 127.005L167.13 126.125L166.769 126.125C161.052 126.125 155.005 120.079 155.005 114.361L155.005 114L154.125 114L154.125 114.361C154.125 120.079 148.078 126.125 142.361 126.125L142 126.125L142 127.005L142.361 127.005C148.078 127.005 154.125 133.052 154.125 138.769L154.125 139.13L155.005 139.13Z" fill="#222222"/>
<path d="M287.005 89.1297L287.005 88.7687C287.005 83.0517 293.052 77.0044 298.769 77.0044L299.13 77.0044L299.13 76.125L298.769 76.125C293.052 76.125 287.005 70.0783 287.005 64.3612L287.005 63.9998L286.125 63.9998L286.125 64.3612C286.125 70.0783 280.078 76.125 274.361 76.125L274 76.125L274 77.0044L274.361 77.0044C280.078 77.0044 286.125 83.0517 286.125 88.7687L286.125 89.1297L287.005 89.1297Z" fill="#222222"/>
<path d="M195.005 62.1297L195.005 61.7687C195.005 56.0517 201.052 50.0044 206.769 50.0044L207.13 50.0044L207.13 49.125L206.769 49.125C201.052 49.125 195.005 43.0783 195.005 37.3612L195.005 36.9998L194.125 36.9998L194.125 37.3612C194.125 43.0783 188.078 49.125 182.361 49.125L182 49.125L182 50.0044L182.361 50.0044C188.078 50.0044 194.125 56.0517 194.125 61.7687L194.125 62.1297L195.005 62.1297Z" fill="#4A4A4A"/>
<path d="M520.005 77.1297L520.005 76.7687C520.005 71.0517 526.052 65.0044 531.769 65.0044L532.13 65.0044L532.13 64.125L531.769 64.125C526.052 64.125 520.005 58.0783 520.005 52.3612L520.005 51.9998L519.125 51.9998L519.125 52.3612C519.125 58.0783 513.079 64.125 507.361 64.125L507 64.125L507 65.0044L507.361 65.0044C513.079 65.0044 519.125 71.0517 519.125 76.7687L519.125 77.1297L520.005 77.1297Z" fill="#222222"/>
<path d="M616.005 88.1297L616.005 87.7687C616.005 82.0517 622.052 76.0044 627.769 76.0044L628.13 76.0044L628.13 75.125L627.769 75.125C622.052 75.125 616.005 69.0783 616.005 63.3612L616.005 62.9998L615.125 62.9998L615.125 63.3612C615.125 69.0783 609.078 75.125 603.361 75.125L603 75.125L603 76.0044L603.361 76.0044C609.078 76.0044 615.125 82.0517 615.125 87.7687L615.125 88.1297L616.005 88.1297Z" fill="#222222"/>
<path d="M678.005 70.1297L678.005 69.7687C678.005 64.0517 684.052 58.0044 689.769 58.0044L690.13 58.0044L690.13 57.125L689.769 57.125C684.052 57.125 678.005 51.0783 678.005 45.3612L678.005 44.9998L677.125 44.9998L677.125 45.3612C677.125 51.0783 671.078 57.125 665.361 57.125L665 57.125L665 58.0044L665.361 58.0044C671.078 58.0044 677.125 64.0517 677.125 69.7687L677.125 70.1297L678.005 70.1297Z" fill="#222222"/>
<path d="M736.005 94.1297L736.005 93.7687C736.005 88.0517 742.052 82.0044 747.769 82.0044L748.13 82.0044L748.13 81.125L747.769 81.125C742.052 81.125 736.005 75.0783 736.005 69.3612L736.005 68.9998L735.125 68.9998L735.125 69.3612C735.125 75.0783 729.078 81.125 723.361 81.125L723 81.125L723 82.0044L723.361 82.0044C729.078 82.0044 735.125 88.0517 735.125 93.7687L735.125 94.1297L736.005 94.1297Z" fill="#222222"/>
<path d="M703.005 109.13L703.005 108.769C703.005 103.052 709.052 97.0047 714.769 97.0047L715.13 97.0047L715.13 96.1253L714.769 96.1253C709.052 96.1253 703.005 90.0785 703.005 84.3615L703.005 84L702.125 84L702.125 84.3615C702.125 90.0785 696.078 96.1253 690.361 96.1253L690 96.1253L690 97.0047L690.361 97.0047C696.078 97.0047 702.125 103.052 702.125 108.769L702.125 109.13L703.005 109.13Z" fill="#222222"/>
<path d="M673.005 109.13L673.005 108.769C673.005 103.052 679.052 97.0047 684.769 97.0047L685.13 97.0047L685.13 96.1253L684.769 96.1253C679.052 96.1253 673.005 90.0785 673.005 84.3615L673.005 84L672.125 84L672.125 84.3615C672.125 90.0785 666.078 96.1253 660.361 96.1253L660 96.1253L660 97.0047L660.361 97.0047C666.078 97.0047 672.125 103.052 672.125 108.769L672.125 109.13L673.005 109.13Z" fill="#222222"/>
<path d="M724.005 163.13L724.005 162.769C724.005 157.052 730.052 151.004 735.769 151.004L736.13 151.004L736.13 150.125L735.769 150.125C730.052 150.125 724.005 144.078 724.005 138.361L724.005 138L723.125 138L723.125 138.361C723.125 144.078 717.078 150.125 711.361 150.125L711 150.125L711 151.004L711.361 151.004C717.078 151.004 723.125 157.052 723.125 162.769L723.125 163.13L724.005 163.13Z" fill="#222222"/>
<path d="M645.005 128.13L645.005 127.769C645.005 122.052 651.052 116.005 656.769 116.005L657.13 116.005L657.13 115.125L656.769 115.125C651.052 115.125 645.005 109.079 645.005 103.361L645.005 103L644.125 103L644.125 103.361C644.125 109.079 638.078 115.125 632.361 115.125L632 115.125L632 116.005L632.361 116.005C638.078 116.005 644.125 122.052 644.125 127.769L644.125 128.13L645.005 128.13Z" fill="#222222"/>
<g filter="url(#filter0_f)">
<path d="M651.005 162.13L651.005 161.769C651.005 156.052 657.052 150.004 662.769 150.004L663.13 150.004L663.13 149.125L662.769 149.125C657.052 149.125 651.005 143.078 651.005 137.361L651.005 137L650.125 137L650.125 137.361C650.125 143.078 644.078 149.125 638.361 149.125L638 149.125L638 150.004L638.361 150.004C644.078 150.004 650.125 156.052 650.125 161.769L650.125 162.13L651.005 162.13Z" fill="#1EC1CB"/>
</g>
<g filter="url(#filter1_f)">
<path d="M180.005 163.13L180.005 162.769C180.005 157.052 186.052 151.004 191.769 151.004L192.13 151.004L192.13 150.125L191.769 150.125C186.052 150.125 180.005 144.078 180.005 138.361L180.005 138L179.125 138L179.125 138.361C179.125 144.078 173.078 150.125 167.361 150.125L167 150.125L167 151.004L167.361 151.004C173.078 151.004 179.125 157.052 179.125 162.769L179.125 163.13L180.005 163.13Z" fill="#1EC1CB"/>
</g>
<g filter="url(#filter2_f)">
<path d="M262.005 62.1297L262.005 61.7687C262.005 56.0517 268.052 50.0044 273.769 50.0044L274.13 50.0044L274.13 49.125L273.769 49.125C268.052 49.125 262.005 43.0783 262.005 37.3612L262.005 36.9998L261.125 36.9998L261.125 37.3612C261.125 43.0783 255.078 49.125 249.361 49.125L249 49.125L249 50.0044L249.361 50.0044C255.078 50.0044 261.125 56.0517 261.125 61.7687L261.125 62.1297L262.005 62.1297Z" fill="#1EC1CB"/>
</g>
<g filter="url(#filter3_f)">
<path d="M562.183 83.9999L562.183 83.4397C562.183 74.5672 571.567 65.1822 580.44 65.1822L581 65.1822L581 63.8174L580.44 63.8174C571.567 63.8174 562.183 54.4333 562.183 45.5607L562.183 44.9998L560.818 44.9998L560.818 45.5607C560.818 54.4333 551.433 63.8174 542.561 63.8174L542 63.8174L542 65.1822L542.561 65.1822C551.433 65.1822 560.818 74.5672 560.818 83.4397L560.818 83.9999L562.183 83.9999Z" fill="#1EC1CB"/>
</g>
<g filter="url(#filter4_f)">
<path d="M674.9 86.1296L674.9 85.8548C674.9 81.5028 679.503 76.8994 683.855 76.8994L684.13 76.8994L684.13 76.23L683.855 76.23C679.503 76.23 674.9 71.627 674.9 67.2749L674.9 66.9998L674.23 66.9998L674.23 67.2749C674.23 71.627 669.627 76.23 665.275 76.23L665 76.23L665 76.8994L665.275 76.8994C669.627 76.8994 674.23 81.5028 674.23 85.8548L674.23 86.1296L674.9 86.1296Z" fill="#1EC1CB"/>
</g>
<g filter="url(#filter5_f)">
<path d="M40.8997 130.13L40.8997 129.855C40.8997 125.503 45.5029 120.9 49.8549 120.9L50.1299 120.9L50.1299 120.23L49.8549 120.23C45.5029 120.23 40.8997 115.627 40.8997 111.275L40.8997 111L40.2302 111L40.2302 111.275C40.2302 115.627 35.6271 120.23 31.2751 120.23L31.0001 120.23L31.0001 120.9L31.2751 120.9C35.6271 120.9 40.2302 125.503 40.2302 129.855L40.2302 130.13L40.8997 130.13Z" fill="#1EC1CB"/>
</g>
<g filter="url(#filter6_f)">
<path d="M154.9 97.1298L154.9 96.855C154.9 92.503 159.503 87.8996 163.855 87.8996L164.13 87.8996L164.13 87.2302L163.855 87.2302C159.503 87.2302 154.9 82.6272 154.9 78.2752L154.9 78L154.23 78L154.23 78.2752C154.23 82.6272 149.627 87.2302 145.275 87.2302L145 87.2302L145 87.8996L145.275 87.8996C149.627 87.8996 154.23 92.503 154.23 96.855L154.23 97.1298L154.9 97.1298Z" fill="#1EC1CB"/>
</g>
<g filter="url(#filter7_f)">
<path d="M438.798 64.9998L438.798 64.7556C438.798 60.8881 442.888 56.7972 446.756 56.7972L447 56.7972L447 56.2023L446.756 56.2023C442.888 56.2023 438.798 52.1118 438.798 48.2443L438.798 47.9998L438.203 47.9998L438.203 48.2443C438.203 52.1118 434.112 56.2023 430.245 56.2023L430 56.2023L430 56.7972L430.245 56.7972C434.112 56.7972 438.203 60.8881 438.203 64.7556L438.203 64.9998L438.798 64.9998Z" fill="#1EC1CB"/>
</g>
<g filter="url(#filter8_f)">
<path d="M777.14 123L777.14 122.885C777.14 121.065 779.065 119.14 780.885 119.14L781 119.14L781 118.86L780.885 118.86C779.065 118.86 777.14 116.935 777.14 115.115L777.14 115L776.86 115L776.86 115.115C776.86 116.935 774.935 118.86 773.115 118.86L773 118.86L773 119.14L773.115 119.14C774.935 119.14 776.86 121.065 776.86 122.885L776.86 123L777.14 123Z" fill="#1EC1CB"/>
</g>
<g filter="url(#filter9_f)">
<path d="M407.28 189L407.28 188.77C407.28 185.13 411.13 181.28 414.77 181.28L415 181.28L415 180.72L414.77 180.72C411.13 180.72 407.28 176.87 407.28 173.23L407.28 173L406.72 173L406.72 173.23C406.72 176.87 402.87 180.72 399.23 180.72L399 180.72L399 181.28L399.23 181.28C402.87 181.28 406.72 185.13 406.72 188.77L406.72 189L407.28 189Z" fill="#1EC1CB"/>
</g>
<path d="M482.005 192.13L482.005 191.769C482.005 186.052 488.052 180.004 493.769 180.004L494.13 180.004L494.13 179.125L493.769 179.125C488.052 179.125 482.005 173.078 482.005 167.361L482.005 167L481.125 167L481.125 167.361C481.125 173.078 475.079 179.125 469.361 179.125L469 179.125L469 180.004L469.361 180.004C475.079 180.004 481.125 186.052 481.125 191.769L481.125 192.13L482.005 192.13Z" fill="#323232"/>
<path d="M455.005 67.1297L455.005 66.7687C455.005 61.0517 461.052 55.0044 466.769 55.0044L467.13 55.0044L467.13 54.125L466.769 54.125C461.052 54.125 455.005 48.0783 455.005 42.3612L455.005 41.9998L454.125 41.9998L454.125 42.3612C454.125 48.0783 448.079 54.125 442.361 54.125L442 54.125L442 55.0044L442.361 55.0044C448.079 55.0044 454.125 61.0517 454.125 66.7687L454.125 67.1297L455.005 67.1297Z" fill="#222222"/>
<path d="M349.005 59.1297L349.005 58.7687C349.005 53.0517 355.052 47.0044 360.769 47.0044L361.13 47.0044L361.13 46.125L360.769 46.125C355.052 46.125 349.005 40.0783 349.005 34.3612L349.005 33.9998L348.125 33.9998L348.125 34.3612C348.125 40.0783 342.079 46.125 336.361 46.125L336 46.125L336 47.0044L336.361 47.0044C342.079 47.0044 348.125 53.0517 348.125 58.7687L348.125 59.1297L349.005 59.1297Z" fill="#222222"/>
<path d="M251.005 63.1297L251.005 62.7687C251.005 57.0517 257.052 51.0044 262.769 51.0044L263.13 51.0044L263.13 50.125L262.769 50.125C257.052 50.125 251.005 44.0783 251.005 38.3612L251.005 37.9998L250.125 37.9998L250.125 38.3612C250.125 44.0783 244.078 50.125 238.361 50.125L238 50.125L238 51.0044L238.361 51.0044C244.078 51.0044 250.125 57.0517 250.125 62.7687L250.125 63.1297L251.005 63.1297Z" fill="#222222"/>
<path d="M591.005 63.1297L591.005 62.7687C591.005 57.0517 597.052 51.0044 602.769 51.0044L603.13 51.0044L603.13 50.125L602.769 50.125C597.052 50.125 591.005 44.0783 591.005 38.3612L591.005 37.9998L590.125 37.9998L590.125 38.3612C590.125 44.0783 584.078 50.125 578.361 50.125L578 50.125L578 51.0044L578.361 51.0044C584.078 51.0044 590.125 57.0517 590.125 62.7687L590.125 63.1297L591.005 63.1297Z" fill="#222222"/>
<path d="M557.005 85.1297L557.005 84.7687C557.005 79.0517 563.052 73.0044 568.769 73.0044L569.13 73.0044L569.13 72.125L568.769 72.125C563.052 72.125 557.005 66.0783 557.005 60.3612L557.005 59.9998L556.125 59.9998L556.125 60.3612C556.125 66.0783 550.078 72.125 544.361 72.125L544 72.125L544 73.0044L544.361 73.0044C550.078 73.0044 556.125 79.0517 556.125 84.7687L556.125 85.1297L557.005 85.1297Z" fill="#222222"/>
<path d="M482.005 47.1297L482.005 46.7687C482.005 41.0517 488.052 35.0044 493.769 35.0044L494.13 35.0044L494.13 34.125L493.769 34.125C488.052 34.125 482.005 28.0783 482.005 22.3612L482.005 21.9998L481.125 21.9998L481.125 22.3612C481.125 28.0783 475.079 34.125 469.361 34.125L469 34.125L469 35.0044L469.361 35.0044C475.079 35.0044 481.125 41.0517 481.125 46.7687L481.125 47.1297L482.005 47.1297Z" fill="#222222"/>
<path d="M372.005 25.1297L372.005 24.7687C372.005 19.0517 378.052 13.0044 383.769 13.0044L384.13 13.0044L384.13 12.125L383.769 12.125C378.052 12.125 372.005 6.07829 372.005 0.361223L372.005 -0.000244671L371.125 -0.000244709L371.125 0.361223C371.125 6.07829 365.079 12.125 359.361 12.125L359 12.125L359 13.0044L359.361 13.0044C365.079 13.0044 371.125 19.0517 371.125 24.7687L371.125 25.1297L372.005 25.1297Z" fill="#222222"/>
<path d="M266.595 199.13L266.595 198.641C266.595 190.906 274.776 182.725 282.511 182.725L283 182.725L283 181.535L282.511 181.535C274.776 181.535 266.595 173.354 266.595 165.619L266.595 165.13L265.405 165.13L265.405 165.619C265.405 173.354 257.224 181.535 249.489 181.535L249 181.535L249 182.725L249.489 182.725C257.224 182.725 265.405 190.906 265.405 198.641L265.405 199.13L266.595 199.13Z" fill="#222222"/>
<path d="M106.595 119L106.595 118.511C106.595 110.776 114.776 102.595 122.511 102.595L123 102.595L123 101.405L122.511 101.405C114.776 101.405 106.595 93.2238 106.595 85.4888L106.595 84.9998L105.405 84.9998L105.405 85.4888C105.405 93.2238 97.2237 101.405 89.4887 101.405L88.9999 101.405L88.9999 102.595L89.4887 102.595C97.2237 102.595 105.405 110.776 105.405 118.511L105.405 119L106.595 119Z" fill="#323232"/>
<path d="M301.595 51.9997L301.595 51.5113C301.595 43.7763 309.776 35.5946 317.511 35.5946L318 35.5946L318 34.4048L317.511 34.4048C309.776 34.4048 301.595 26.2238 301.595 18.4888L301.595 17.9998L300.405 17.9998L300.405 18.4888C300.405 26.2238 292.224 34.4048 284.489 34.4048L284 34.4048L284 35.5946L284.489 35.5946C292.224 35.5946 300.405 43.7763 300.405 51.5113L300.405 51.9997L301.595 51.9997Z" fill="#222222"/>
<path d="M524.595 215L524.595 214.511C524.595 206.776 532.776 198.595 540.511 198.595L541 198.595L541 197.405L540.511 197.405C532.776 197.405 524.595 189.224 524.595 181.489L524.595 181L523.405 181L523.405 181.489C523.405 189.224 515.224 197.405 507.489 197.405L507 197.405L507 198.595L507.489 198.595C515.224 198.595 523.405 206.776 523.405 214.511L523.405 215L524.595 215Z" fill="#222222"/>
<path d="M648.595 75.9997L648.595 75.5113C648.595 67.7763 656.776 59.5946 664.511 59.5946L665 59.5946L665 58.4048L664.511 58.4048C656.776 58.4048 648.595 50.2238 648.595 42.4888L648.595 41.9998L647.405 41.9998L647.405 42.4888C647.405 50.2238 639.224 58.4048 631.489 58.4048L631 58.4048L631 59.5946L631.489 59.5946C639.224 59.5946 647.405 67.7763 647.405 75.5113L647.405 75.9997L648.595 75.9997Z" fill="#222222"/>
<path d="M477.595 76.9997L477.595 76.5113C477.595 68.7763 485.776 60.5946 493.511 60.5946L494 60.5946L494 59.4048L493.511 59.4048C485.776 59.4048 477.595 51.2238 477.595 43.4888L477.595 42.9998L476.405 42.9998L476.405 43.4888C476.405 51.2238 468.224 59.4048 460.489 59.4048L460 59.4048L460 60.5946L460.489 60.5946C468.224 60.5946 476.405 68.7763 476.405 76.5113L476.405 76.9997L477.595 76.9997Z" fill="#323232"/>
<path d="M738.595 137L738.595 136.512C738.595 128.777 746.776 120.595 754.511 120.595L755 120.595L755 119.405L754.511 119.405C746.776 119.405 738.595 111.224 738.595 103.489L738.595 103L737.405 103L737.405 103.489C737.405 111.224 729.224 119.405 721.489 119.405L721 119.405L721 120.595L721.489 120.595C729.224 120.595 737.405 128.777 737.405 136.512L737.405 137L738.595 137Z" fill="#323232"/>
<path d="M668.595 184L668.595 183.511C668.595 175.776 676.776 167.595 684.511 167.595L685 167.595L685 166.405L684.511 166.405C676.776 166.405 668.595 158.224 668.595 150.489L668.595 150L667.405 150L667.405 150.489C667.405 158.224 659.224 166.405 651.489 166.405L651 166.405L651 167.595L651.489 167.595C659.224 167.595 667.405 175.776 667.405 183.511L667.405 184L668.595 184Z" fill="#222222"/>
<path d="M632.595 198L632.595 197.511C632.595 189.776 640.776 181.595 648.511 181.595L649 181.595L649 180.405L648.511 180.405C640.776 180.405 632.595 172.224 632.595 164.489L632.595 164L631.405 164L631.405 164.489C631.405 172.224 623.224 180.405 615.489 180.405L615 180.405L615 181.595L615.489 181.595C623.224 181.595 631.405 189.776 631.405 197.511L631.405 198L632.595 198Z" fill="#222222"/>
<path d="M325.595 194.999L325.595 194.511C325.595 186.776 333.776 178.594 341.511 178.594L342 178.594L342 177.405L341.511 177.405C333.776 177.405 325.595 169.224 325.595 161.489L325.595 161L324.405 161L324.405 161.489C324.405 169.224 316.224 177.405 308.489 177.405L308 177.405L308 178.594L308.489 178.594C316.224 178.594 324.405 186.776 324.405 194.511L324.405 194.999L325.595 194.999Z" fill="#222222"/>
<path d="M267.595 162L267.595 161.511C267.595 153.776 275.776 145.595 283.511 145.595L284 145.595L284 144.405L283.511 144.405C275.776 144.405 267.595 136.224 267.595 128.489L267.595 128L266.405 128L266.405 128.489C266.405 136.224 258.224 144.405 250.489 144.405L250 144.405L250 145.595L250.489 145.595C258.224 145.595 266.405 153.776 266.405 161.511L266.405 162L267.595 162Z" fill="#222222"/>
<path d="M407.595 82.9997L407.595 82.5113C407.595 74.7763 415.776 66.5946 423.511 66.5946L424 66.5946L424 65.4048L423.511 65.4048C415.776 65.4048 407.595 57.2238 407.595 49.4888L407.595 48.9998L406.405 48.9998L406.405 49.4888C406.405 57.2238 398.224 65.4048 390.489 65.4048L390 65.4048L390 66.5946L390.489 66.5946C398.224 66.5946 406.405 74.7763 406.405 82.5113L406.405 82.9997L407.595 82.9997Z" fill="#222222"/>
<path d="M158.595 71.9997L158.595 71.5113C158.595 63.7763 166.776 55.5946 174.511 55.5946L175 55.5946L175 54.4048L174.511 54.4048C166.776 54.4048 158.595 46.2238 158.595 38.4888L158.595 37.9998L157.405 37.9998L157.405 38.4888C157.405 46.2238 149.224 54.4048 141.489 54.4048L141 54.4048L141 55.5946L141.489 55.5946C149.224 55.5946 157.405 63.7763 157.405 71.5113L157.405 71.9997L158.595 71.9997Z" fill="#222222"/>
<g filter="url(#filter10_f)">
<path d="M119.005 136.124L119.005 135.763C119.005 130.046 125.052 123.999 130.769 123.999L131.13 123.999L131.13 123.125L130.769 123.125C125.052 123.125 119.005 117.078 119.005 111.361L119.005 111L118.125 111L118.125 111.361C118.125 117.078 112.078 123.125 106.361 123.125L106 123.125L106 123.999L106.361 123.999C112.078 123.999 118.125 130.046 118.125 135.763L118.125 136.124L119.005 136.124Z" fill="#222222"/>
</g>
<g filter="url(#filter11_f)">
<path d="M296.005 187.124L296.005 186.763C296.005 181.046 302.052 174.999 307.769 174.999L308.13 174.999L308.13 174.125L307.769 174.125C302.052 174.125 296.005 168.078 296.005 162.361L296.005 162L295.125 162L295.125 162.361C295.125 168.078 289.078 174.125 283.361 174.125L283 174.125L283 174.999L283.361 174.999C289.078 174.999 295.125 181.046 295.125 186.763L295.125 187.124L296.005 187.124Z" fill="#222222"/>
</g>
<g filter="url(#filter12_f)">
<path d="M476.005 94.1241L476.005 93.7631C476.005 88.0461 482.052 81.9993 487.769 81.9993L488.13 81.9993L488.13 81.125L487.769 81.125C482.052 81.125 476.005 75.0778 476.005 69.3607L476.005 68.9998L475.125 68.9998L475.125 69.3607C475.125 75.0778 469.079 81.125 463.361 81.125L463 81.125L463 81.9993L463.361 81.9993C469.079 81.9993 475.125 88.0461 475.125 93.7631L475.125 94.1241L476.005 94.1241Z" fill="#222222"/>
</g>
<g filter="url(#filter13_f)">
<path d="M689.005 174.124L689.005 173.763C689.005 168.046 695.052 161.999 700.769 161.999L701.13 161.999L701.13 161.125L700.769 161.125C695.052 161.125 689.005 155.078 689.005 149.361L689.005 149L688.125 149L688.125 149.361C688.125 155.078 682.078 161.125 676.361 161.125L676 161.125L676 161.999L676.361 161.999C682.078 161.999 688.125 168.046 688.125 173.763L688.125 174.124L689.005 174.124Z" fill="#222222"/>
</g>
<g filter="url(#filter14_f)">
<path d="M794.005 103.124L794.005 102.763C794.005 97.0463 800.052 90.9996 805.769 90.9996L806.13 90.9996L806.13 90.1253L805.769 90.1253C800.052 90.1253 794.005 84.078 794.005 78.361L794.005 78L793.125 78L793.125 78.361C793.125 84.078 787.078 90.1253 781.361 90.1253L781 90.1253L781 90.9996L781.361 90.9996C787.078 90.9996 793.125 97.0463 793.125 102.763L793.125 103.124L794.005 103.124Z" fill="#222222"/>
</g>
<g filter="url(#filter15_f)">
<path d="M628.005 71.1241L628.005 70.7631C628.005 65.0461 634.052 58.9993 639.769 58.9993L640.13 58.9993L640.13 58.125L639.769 58.125C634.052 58.125 628.005 52.0778 628.005 46.3607L628.005 45.9998L627.125 45.9998L627.125 46.3607C627.125 52.0778 621.078 58.125 615.361 58.125L615 58.125L615 58.9993L615.361 58.9993C621.078 58.9993 627.125 65.0461 627.125 70.7631L627.125 71.1241L628.005 71.1241Z" fill="#222222"/>
</g>
<g filter="url(#filter16_f)">
<path d="M520.005 168.124L520.005 167.763C520.005 162.046 526.052 155.999 531.769 155.999L532.13 155.999L532.13 155.125L531.769 155.125C526.052 155.125 520.005 149.078 520.005 143.361L520.005 143L519.125 143L519.125 143.361C519.125 149.078 513.079 155.125 507.361 155.125L507 155.125L507 155.999L507.361 155.999C513.079 155.999 519.125 162.046 519.125 167.763L519.125 168.124L520.005 168.124Z" fill="#222222"/>
</g>
<g filter="url(#filter17_f)">
<path d="M331.005 84.1241L331.005 83.7631C331.005 78.0461 337.052 71.9993 342.769 71.9993L343.13 71.9993L343.13 71.125L342.769 71.125C337.052 71.125 331.005 65.0778 331.005 59.3607L331.005 58.9998L330.125 58.9998L330.125 59.3607C330.125 65.0778 324.078 71.125 318.361 71.125L318 71.125L318 71.9993L318.361 71.9993C324.078 71.9993 330.125 78.0461 330.125 83.7631L330.125 84.1241L331.005 84.1241Z" fill="#222222"/>
</g>
<g filter="url(#filter18_f)">
<path d="M171.005 106.124L171.005 105.763C171.005 100.046 177.052 93.9996 182.769 93.9996L183.13 93.9996L183.13 93.1253L182.769 93.1253C177.052 93.1253 171.005 87.078 171.005 81.361L171.005 81L170.125 81L170.125 81.361C170.125 87.078 164.078 93.1253 158.361 93.1253L158 93.1253L158 93.9996L158.361 93.9996C164.078 93.9996 170.125 100.046 170.125 105.763L170.125 106.124L171.005 106.124Z" fill="#222222"/>
</g>
<g filter="url(#filter19_f)">
<path d="M223.005 83.1241L223.005 82.7631C223.005 77.0461 229.052 70.9993 234.769 70.9993L235.13 70.9993L235.13 70.125L234.769 70.125C229.052 70.125 223.005 64.0778 223.005 58.3607L223.005 57.9998L222.125 57.9998L222.125 58.3607C222.125 64.0778 216.078 70.125 210.361 70.125L210 70.125L210 70.9993L210.361 70.9993C216.078 70.9993 222.125 77.0461 222.125 82.7631L222.125 83.1241L223.005 83.1241Z" fill="#222222"/>
</g>
<g filter="url(#filter20_f)">
<path d="M131.005 50.1241L131.005 49.7631C131.005 44.0461 137.052 37.9993 142.769 37.9993L143.13 37.9993L143.13 37.125L142.769 37.125C137.052 37.125 131.005 31.0778 131.005 25.3607L131.005 24.9998L130.125 24.9998L130.125 25.3607C130.125 31.0778 124.078 37.125 118.361 37.125L118 37.125L118 37.9993L118.361 37.9993C124.078 37.9993 130.125 44.0461 130.125 49.7631L130.125 50.1241L131.005 50.1241Z" fill="#222222"/>
</g>
<g filter="url(#filter21_f)">
<path d="M195.005 120.124L195.005 119.763C195.005 114.046 201.052 108 206.769 108L207.13 108L207.13 107.125L206.769 107.125C201.052 107.125 195.005 101.078 195.005 95.361L195.005 95L194.125 95L194.125 95.361C194.125 101.078 188.078 107.125 182.361 107.125L182 107.125L182 108L182.361 108C188.078 108 194.125 114.046 194.125 119.763L194.125 120.124L195.005 120.124Z" fill="#222222"/>
</g>
<g filter="url(#filter22_f)">
<path d="M196.005 200.124L196.005 199.763C196.005 194.046 202.052 187.999 207.769 187.999L208.13 187.999L208.13 187.125L207.769 187.125C202.052 187.125 196.005 181.078 196.005 175.361L196.005 175L195.125 175L195.125 175.361C195.125 181.078 189.078 187.125 183.361 187.125L183 187.125L183 187.999L183.361 187.999C189.078 187.999 195.125 194.046 195.125 199.763L195.125 200.124L196.005 200.124Z" fill="#222222"/>
</g>
<g filter="url(#filter23_f)">
<path d="M235.005 169.124L235.005 168.763C235.005 163.046 241.052 156.999 246.769 156.999L247.13 156.999L247.13 156.125L246.769 156.125C241.052 156.125 235.005 150.078 235.005 144.361L235.005 144L234.125 144L234.125 144.361C234.125 150.078 228.078 156.125 222.361 156.125L222 156.125L222 156.999L222.361 156.999C228.078 156.999 234.125 163.046 234.125 168.763L234.125 169.124L235.005 169.124Z" fill="#222222"/>
</g>
<g filter="url(#filter24_f)">
<path d="M100.005 187.124L100.005 186.763C100.005 181.046 106.052 174.999 111.769 174.999L112.13 174.999L112.13 174.125L111.769 174.125C106.052 174.125 100.005 168.078 100.005 162.361L100.005 162L99.1252 162L99.1252 162.361C99.1252 168.078 93.0784 174.125 87.3613 174.125L87 174.125L87 174.999L87.3613 174.999C93.0784 174.999 99.1252 181.046 99.1252 186.763L99.1252 187.124L100.005 187.124Z" fill="#222222"/>
</g>
<g filter="url(#filter25_f)">
<path d="M19.0048 128.124L19.0048 127.763C19.0048 122.046 25.0517 115.999 30.7688 115.999L31.13 115.999L31.13 115.125L30.7688 115.125C25.0517 115.125 19.0048 109.078 19.0048 103.361L19.0048 103L18.1252 103L18.1252 103.361C18.1252 109.078 12.0784 115.125 6.3613 115.125L6.00003 115.125L6.00003 115.999L6.3613 115.999C12.0784 115.999 18.1252 122.046 18.1252 127.763L18.1252 128.124L19.0048 128.124Z" fill="#222222"/>
</g>
<g filter="url(#filter26_f)">
<path d="M88.0048 101.124L88.0048 100.763C88.0048 95.0461 94.0517 88.9993 99.7688 88.9993L100.13 88.9993L100.13 88.125L99.7688 88.125C94.0517 88.125 88.0048 82.0778 88.0048 76.3607L88.0048 75.9998L87.1252 75.9998L87.1252 76.3607C87.1252 82.0778 81.0784 88.125 75.3613 88.125L75 88.125L75 88.9993L75.3613 88.9993C81.0784 88.9993 87.1252 95.0461 87.1252 100.763L87.1252 101.124L88.0048 101.124Z" fill="#222222"/>
</g>
<g filter="url(#filter27_f)">
<path d="M283.005 59.1241L283.005 58.7631C283.005 53.0461 289.052 46.9993 294.769 46.9993L295.13 46.9993L295.13 46.125L294.769 46.125C289.052 46.125 283.005 40.0778 283.005 34.3607L283.005 33.9998L282.125 33.9998L282.125 34.3607C282.125 40.0778 276.078 46.125 270.361 46.125L270 46.125L270 46.9993L270.361 46.9993C276.078 46.9993 282.125 53.0461 282.125 58.7631L282.125 59.1241L283.005 59.1241Z" fill="#222222"/>
</g>
<g filter="url(#filter28_f)">
<path d="M402.005 62.1241L402.005 61.7631C402.005 56.0461 408.052 49.9993 413.769 49.9993L414.13 49.9993L414.13 49.125L413.769 49.125C408.052 49.125 402.005 43.0778 402.005 37.3607L402.005 36.9998L401.125 36.9998L401.125 37.3607C401.125 43.0778 395.079 49.125 389.361 49.125L389 49.125L389 49.9993L389.361 49.9993C395.079 49.9993 401.125 56.0461 401.125 61.7631L401.125 62.1241L402.005 62.1241Z" fill="#222222"/>
</g>
<g filter="url(#filter29_f)">
<path d="M545.005 72.1241L545.005 71.7631C545.005 66.0461 551.052 59.9993 556.769 59.9993L557.13 59.9993L557.13 59.125L556.769 59.125C551.052 59.125 545.005 53.0778 545.005 47.3607L545.005 46.9998L544.125 46.9998L544.125 47.3607C544.125 53.0778 538.079 59.125 532.361 59.125L532 59.125L532 59.9993L532.361 59.9993C538.079 59.9993 544.125 66.0461 544.125 71.7631L544.125 72.1241L545.005 72.1241Z" fill="#222222"/>
</g>
<g filter="url(#filter30_f)">
<path d="M708.005 72.1241L708.005 71.7631C708.005 66.0461 714.052 59.9993 719.769 59.9993L720.13 59.9993L720.13 59.125L719.769 59.125C714.052 59.125 708.005 53.0778 708.005 47.3607L708.005 46.9998L707.125 46.9998L707.125 47.3607C707.125 53.0778 701.078 59.125 695.361 59.125L695 59.125L695 59.9993L695.361 59.9993C701.078 59.9993 707.125 66.0461 707.125 71.7631L707.125 72.1241L708.005 72.1241Z" fill="#222222"/>
</g>
<g filter="url(#filter31_f)">
<path d="M805.005 134.124L805.005 133.763C805.005 128.046 811.052 122 816.769 122L817.13 122L817.13 121.125L816.769 121.125C811.052 121.125 805.005 115.078 805.005 109.361L805.005 109L804.125 109L804.125 109.361C804.125 115.078 798.078 121.125 792.361 121.125L792 121.125L792 122L792.361 122C798.078 122 804.125 128.046 804.125 133.763L804.125 134.124L805.005 134.124Z" fill="#222222"/>
</g>
<g filter="url(#filter32_f)">
<path d="M771.005 153.124L771.005 152.763C771.005 147.046 777.052 141 782.769 141L783.13 141L783.13 140.125L782.769 140.125C777.052 140.125 771.005 134.078 771.005 128.361L771.005 128L770.125 128L770.125 128.361C770.125 134.078 764.078 140.125 758.361 140.125L758 140.125L758 141L758.361 141C764.078 141 770.125 147.046 770.125 152.763L770.125 153.124L771.005 153.124Z" fill="#222222"/>
</g>
<g filter="url(#filter33_f)">
<path d="M693.005 139.124L693.005 138.763C693.005 133.046 699.052 127 704.769 127L705.13 127L705.13 126.125L704.769 126.125C699.052 126.125 693.005 120.078 693.005 114.361L693.005 114L692.125 114L692.125 114.361C692.125 120.078 686.078 126.125 680.361 126.125L680 126.125L680 127L680.361 127C686.078 127 692.125 133.046 692.125 138.763L692.125 139.124L693.005 139.124Z" fill="#222222"/>
</g>
<g filter="url(#filter34_f)">
<path d="M603.005 187.124L603.005 186.763C603.005 181.046 609.052 174.999 614.769 174.999L615.13 174.999L615.13 174.125L614.769 174.125C609.052 174.125 603.005 168.078 603.005 162.361L603.005 162L602.125 162L602.125 162.361C602.125 168.078 596.078 174.125 590.361 174.125L590 174.125L590 174.999L590.361 174.999C596.078 174.999 602.125 181.046 602.125 186.763L602.125 187.124L603.005 187.124Z" fill="#222222"/>
</g>
<g filter="url(#filter35_f)">
<path d="M425.005 188.124L425.005 187.763C425.005 182.046 431.052 175.999 436.769 175.999L437.13 175.999L437.13 175.125L436.769 175.125C431.052 175.125 425.005 169.078 425.005 163.361L425.005 163L424.125 163L424.125 163.361C424.125 169.078 418.079 175.125 412.361 175.125L412 175.125L412 175.999L412.361 175.999C418.079 175.999 424.125 182.046 424.125 187.763L424.125 188.124L425.005 188.124Z" fill="#222222"/>
</g>
<g filter="url(#filter36_f)">
<path d="M360.005 169.124L360.005 168.763C360.005 163.046 366.052 156.999 371.769 156.999L372.13 156.999L372.13 156.125L371.769 156.125C366.052 156.125 360.005 150.078 360.005 144.361L360.005 144L359.125 144L359.125 144.361C359.125 150.078 353.079 156.125 347.361 156.125L347 156.125L347 156.999L347.361 156.999C353.079 156.999 359.125 163.046 359.125 168.763L359.125 169.124L360.005 169.124Z" fill="#222222"/>
</g>
<g filter="url(#filter37_f)">
<path d="M445.005 169.124L445.005 168.763C445.005 163.046 451.052 156.999 456.769 156.999L457.13 156.999L457.13 156.125L456.769 156.125C451.052 156.125 445.005 150.078 445.005 144.361L445.005 144L444.125 144L444.125 144.361C444.125 150.078 438.079 156.125 432.361 156.125L432 156.125L432 156.999L432.361 156.999C438.079 156.999 444.125 163.046 444.125 168.763L444.125 169.124L445.005 169.124Z" fill="#222222"/>
</g>
<g filter="url(#filter38_f)">
<path d="M415.005 94.1241L415.005 93.7631C415.005 88.0461 421.052 81.9993 426.769 81.9993L427.13 81.9993L427.13 81.125L426.769 81.125C421.052 81.125 415.005 75.0778 415.005 69.3607L415.005 68.9998L414.125 68.9998L414.125 69.3607C414.125 75.0778 408.079 81.125 402.361 81.125L402 81.125L402 81.9993L402.361 81.9993C408.079 81.9993 414.125 88.0461 414.125 93.7631L414.125 94.1241L415.005 94.1241Z" fill="#222222"/>
</g>
<g filter="url(#filter39_f)">
<path d="M403.005 169.124L403.005 168.763C403.005 163.046 409.052 156.999 414.769 156.999L415.13 156.999L415.13 156.125L414.769 156.125C409.052 156.125 403.005 150.078 403.005 144.361L403.005 144L402.125 144L402.125 144.361C402.125 150.078 396.079 156.125 390.361 156.125L390 156.125L390 156.999L390.361 156.999C396.079 156.999 402.125 163.046 402.125 168.763L402.125 169.124L403.005 169.124Z" fill="#222222"/>
</g>
<g filter="url(#filter40_f)">
<path d="M314.005 163.124L314.005 162.763C314.005 157.046 320.052 150.999 325.769 150.999L326.13 150.999L326.13 150.125L325.769 150.125C320.052 150.125 314.005 144.078 314.005 138.361L314.005 138L313.125 138L313.125 138.361C313.125 144.078 307.078 150.125 301.361 150.125L301 150.125L301 150.999L301.361 150.999C307.078 150.999 313.125 157.046 313.125 162.763L313.125 163.124L314.005 163.124Z" fill="#222222"/>
</g>
<g filter="url(#filter41_f)">
<path d="M360.005 213.124L360.005 212.763C360.005 207.046 366.052 200.999 371.769 200.999L372.13 200.999L372.13 200.125L371.769 200.125C366.052 200.125 360.005 194.078 360.005 188.361L360.005 188L359.125 188L359.125 188.361C359.125 194.078 353.079 200.125 347.361 200.125L347 200.125L347 200.999L347.361 200.999C353.079 200.999 359.125 207.046 359.125 212.763L359.125 213.124L360.005 213.124Z" fill="#222222"/>
</g>
<path d="M665 189C665 175.192 653.808 164 640 164C626.192 164 615 175.192 615 189C615 202.808 626.192 214 640 214C653.808 213.993 665 202.801 665 189ZM639.395 206.545L639.395 206.042C639.395 198.024 630.915 189.55 622.903 189.55L622.4 189.55L622.4 188.32L622.903 188.32C630.921 188.32 639.395 179.84 639.395 171.828L639.395 171.325L640.625 171.325L640.625 171.828C640.625 179.846 649.106 188.32 657.117 188.32L657.62 188.32L657.62 189.55L657.117 189.55C649.099 189.55 640.625 198.031 640.625 206.042L640.625 206.545L639.395 206.545Z" fill="url(#paint0_radial)"/>
<path d="M212 49.5C212 39.8343 204.166 32 194.5 32C184.834 32 177 39.8343 177 49.5C177 59.1657 184.834 67 194.5 67C204.166 66.9952 212 59.1609 212 49.5ZM194.077 61.7818L194.077 61.4298C194.077 55.8168 188.14 49.8852 182.532 49.8852L182.18 49.8852L182.18 49.0243L182.532 49.0243C188.145 49.0243 194.077 43.0879 194.077 37.4798L194.077 37.1278L194.938 37.1278L194.938 37.4798C194.938 43.0927 200.874 49.0243 206.482 49.0243L206.834 49.0243L206.834 49.8852L206.482 49.8852C200.869 49.8852 194.938 55.8216 194.938 61.4298L194.938 61.7818L194.077 61.7818Z" fill="url(#paint1_radial)"/>
<path d="M393 67.9998C393 56.401 383.599 46.9998 372 46.9998C360.401 46.9998 351 56.401 351 67.9998C351 79.5985 360.401 88.9998 372 88.9998C383.599 88.994 393 79.5928 393 67.9998ZM371.492 82.7379L371.492 82.3155C371.492 75.58 364.368 68.462 357.639 68.462L357.216 68.462L357.216 67.4289L357.639 67.4289C364.374 67.4289 371.492 60.3053 371.492 53.5755L371.492 53.1531L372.525 53.1531L372.525 53.5755C372.525 60.311 379.649 67.4289 386.379 67.4289L386.801 67.4289L386.801 68.462L386.379 68.462C379.643 68.462 372.525 75.5857 372.525 82.3155L372.525 82.7379L371.492 82.7379Z" fill="url(#paint2_radial)"/>
<path d="M112 127C112 119.267 105.732 113 97.9999 113C90.2673 113 83.9999 119.267 83.9999 127C83.9999 134.732 90.2673 141 97.9999 141C105.732 140.996 112 134.728 112 127ZM97.6612 136.825L97.6612 136.544C97.6612 132.053 92.9121 127.308 88.4255 127.308L88.1439 127.308L88.1439 126.619L88.4255 126.619C92.9159 126.619 97.6612 121.87 97.6612 117.384L97.6612 117.102L98.35 117.102L98.35 117.384C98.35 121.874 103.099 126.619 107.586 126.619L107.867 126.619L107.867 127.308L107.586 127.308C103.095 127.308 98.35 132.057 98.35 136.544L98.35 136.825L97.6612 136.825Z" fill="url(#paint3_radial)"/>
<path d="M777 94.9998C777 88.9242 772.076 83.9998 766 83.9998C759.924 83.9998 755 88.9242 755 94.9998C755 101.075 759.924 106 766 106C772.076 105.997 777 101.072 777 94.9998ZM765.734 102.72L765.734 102.498C765.734 98.9703 762.002 95.2419 758.477 95.2419L758.256 95.2419L758.256 94.7008L758.477 94.7008C762.005 94.7008 765.734 90.9693 765.734 87.4442L765.734 87.2229L766.275 87.2229L766.275 87.4442C766.275 90.9723 770.007 94.7008 773.532 94.7008L773.753 94.7008L773.753 95.2419L773.532 95.2419C770.004 95.2419 766.275 98.9733 766.275 102.498L766.275 102.72L765.734 102.72Z" fill="url(#paint4_radial)"/>
<defs>
<filter id="filter0_f" x="632" y="131" width="37.1299" height="37.1299" filterUnits="userSpaceOnUse" color-interpolation-filters="sRGB">
<feFlood flood-opacity="0" result="BackgroundImageFix"/>
<feBlend mode="normal" in="SourceGraphic" in2="BackgroundImageFix" result="shape"/>
<feGaussianBlur stdDeviation="3" result="effect1_foregroundBlur"/>
</filter>
<filter id="filter1_f" x="161" y="132" width="37.1299" height="37.1299" filterUnits="userSpaceOnUse" color-interpolation-filters="sRGB">
<feFlood flood-opacity="0" result="BackgroundImageFix"/>
<feBlend mode="normal" in="SourceGraphic" in2="BackgroundImageFix" result="shape"/>
<feGaussianBlur stdDeviation="3" result="effect1_foregroundBlur"/>
</filter>
<filter id="filter2_f" x="243" y="30.9998" width="37.1299" height="37.1299" filterUnits="userSpaceOnUse" color-interpolation-filters="sRGB">
<feFlood flood-opacity="0" result="BackgroundImageFix"/>
<feBlend mode="normal" in="SourceGraphic" in2="BackgroundImageFix" result="shape"/>
<feGaussianBlur stdDeviation="3" result="effect1_foregroundBlur"/>
</filter>
<filter id="filter3_f" x="536" y="38.9998" width="51.0001" height="51.0001" filterUnits="userSpaceOnUse" color-interpolation-filters="sRGB">
<feFlood flood-opacity="0" result="BackgroundImageFix"/>
<feBlend mode="normal" in="SourceGraphic" in2="BackgroundImageFix" result="shape"/>
<feGaussianBlur stdDeviation="3" result="effect1_foregroundBlur"/>
</filter>
<filter id="filter4_f" x="659" y="60.9998" width="31.1298" height="31.1298" filterUnits="userSpaceOnUse" color-interpolation-filters="sRGB">
<feFlood flood-opacity="0" result="BackgroundImageFix"/>
<feBlend mode="normal" in="SourceGraphic" in2="BackgroundImageFix" result="shape"/>
<feGaussianBlur stdDeviation="3" result="effect1_foregroundBlur"/>
</filter>
<filter id="filter5_f" x="25.0001" y="105" width="31.1298" height="31.1298" filterUnits="userSpaceOnUse" color-interpolation-filters="sRGB">
<feFlood flood-opacity="0" result="BackgroundImageFix"/>
<feBlend mode="normal" in="SourceGraphic" in2="BackgroundImageFix" result="shape"/>
<feGaussianBlur stdDeviation="3" result="effect1_foregroundBlur"/>
</filter>
<filter id="filter6_f" x="139" y="72" width="31.1298" height="31.1298" filterUnits="userSpaceOnUse" color-interpolation-filters="sRGB">
<feFlood flood-opacity="0" result="BackgroundImageFix"/>
<feBlend mode="normal" in="SourceGraphic" in2="BackgroundImageFix" result="shape"/>
<feGaussianBlur stdDeviation="3" result="effect1_foregroundBlur"/>
</filter>
<filter id="filter7_f" x="424" y="41.9998" width="29" height="29" filterUnits="userSpaceOnUse" color-interpolation-filters="sRGB">
<feFlood flood-opacity="0" result="BackgroundImageFix"/>
<feBlend mode="normal" in="SourceGraphic" in2="BackgroundImageFix" result="shape"/>
<feGaussianBlur stdDeviation="3" result="effect1_foregroundBlur"/>
</filter>
<filter id="filter8_f" x="767" y="109" width="20" height="20" filterUnits="userSpaceOnUse" color-interpolation-filters="sRGB">
<feFlood flood-opacity="0" result="BackgroundImageFix"/>
<feBlend mode="normal" in="SourceGraphic" in2="BackgroundImageFix" result="shape"/>
<feGaussianBlur stdDeviation="3" result="effect1_foregroundBlur"/>
</filter>
<filter id="filter9_f" x="393" y="167" width="28.0001" height="28.0001" filterUnits="userSpaceOnUse" color-interpolation-filters="sRGB">
<feFlood flood-opacity="0" result="BackgroundImageFix"/>
<feBlend mode="normal" in="SourceGraphic" in2="BackgroundImageFix" result="shape"/>
<feGaussianBlur stdDeviation="3" result="effect1_foregroundBlur"/>
</filter>
<filter id="filter10_f" x="100" y="105" width="37.13" height="37.1243" filterUnits="userSpaceOnUse" color-interpolation-filters="sRGB">
<feFlood flood-opacity="0" result="BackgroundImageFix"/>
<feBlend mode="normal" in="SourceGraphic" in2="BackgroundImageFix" result="shape"/>
<feGaussianBlur stdDeviation="3" result="effect1_foregroundBlur"/>
</filter>
<filter id="filter11_f" x="277" y="156" width="37.13" height="37.1243" filterUnits="userSpaceOnUse" color-interpolation-filters="sRGB">
<feFlood flood-opacity="0" result="BackgroundImageFix"/>
<feBlend mode="normal" in="SourceGraphic" in2="BackgroundImageFix" result="shape"/>
<feGaussianBlur stdDeviation="3" result="effect1_foregroundBlur"/>
</filter>
<filter id="filter12_f" x="457" y="62.9998" width="37.13" height="37.1243" filterUnits="userSpaceOnUse" color-interpolation-filters="sRGB">
<feFlood flood-opacity="0" result="BackgroundImageFix"/>
<feBlend mode="normal" in="SourceGraphic" in2="BackgroundImageFix" result="shape"/>
<feGaussianBlur stdDeviation="3" result="effect1_foregroundBlur"/>
</filter>
<filter id="filter13_f" x="670" y="143" width="37.13" height="37.1243" filterUnits="userSpaceOnUse" color-interpolation-filters="sRGB">
<feFlood flood-opacity="0" result="BackgroundImageFix"/>
<feBlend mode="normal" in="SourceGraphic" in2="BackgroundImageFix" result="shape"/>
<feGaussianBlur stdDeviation="3" result="effect1_foregroundBlur"/>
</filter>
<filter id="filter14_f" x="775" y="72" width="37.13" height="37.1243" filterUnits="userSpaceOnUse" color-interpolation-filters="sRGB">
<feFlood flood-opacity="0" result="BackgroundImageFix"/>
<feBlend mode="normal" in="SourceGraphic" in2="BackgroundImageFix" result="shape"/>
<feGaussianBlur stdDeviation="3" result="effect1_foregroundBlur"/>
</filter>
<filter id="filter15_f" x="609" y="39.9998" width="37.13" height="37.1243" filterUnits="userSpaceOnUse" color-interpolation-filters="sRGB">
<feFlood flood-opacity="0" result="BackgroundImageFix"/>
<feBlend mode="normal" in="SourceGraphic" in2="BackgroundImageFix" result="shape"/>
<feGaussianBlur stdDeviation="3" result="effect1_foregroundBlur"/>
</filter>
<filter id="filter16_f" x="501" y="137" width="37.13" height="37.1243" filterUnits="userSpaceOnUse" color-interpolation-filters="sRGB">
<feFlood flood-opacity="0" result="BackgroundImageFix"/>
<feBlend mode="normal" in="SourceGraphic" in2="BackgroundImageFix" result="shape"/>
<feGaussianBlur stdDeviation="3" result="effect1_foregroundBlur"/>
</filter>
<filter id="filter17_f" x="312" y="52.9998" width="37.13" height="37.1243" filterUnits="userSpaceOnUse" color-interpolation-filters="sRGB">
<feFlood flood-opacity="0" result="BackgroundImageFix"/>
<feBlend mode="normal" in="SourceGraphic" in2="BackgroundImageFix" result="shape"/>
<feGaussianBlur stdDeviation="3" result="effect1_foregroundBlur"/>
</filter>
<filter id="filter18_f" x="152" y="75" width="37.13" height="37.1243" filterUnits="userSpaceOnUse" color-interpolation-filters="sRGB">
<feFlood flood-opacity="0" result="BackgroundImageFix"/>
<feBlend mode="normal" in="SourceGraphic" in2="BackgroundImageFix" result="shape"/>
<feGaussianBlur stdDeviation="3" result="effect1_foregroundBlur"/>
</filter>
<filter id="filter19_f" x="204" y="51.9998" width="37.13" height="37.1243" filterUnits="userSpaceOnUse" color-interpolation-filters="sRGB">
<feFlood flood-opacity="0" result="BackgroundImageFix"/>
<feBlend mode="normal" in="SourceGraphic" in2="BackgroundImageFix" result="shape"/>
<feGaussianBlur stdDeviation="3" result="effect1_foregroundBlur"/>
</filter>
<filter id="filter20_f" x="112" y="18.9998" width="37.13" height="37.1243" filterUnits="userSpaceOnUse" color-interpolation-filters="sRGB">
<feFlood flood-opacity="0" result="BackgroundImageFix"/>
<feBlend mode="normal" in="SourceGraphic" in2="BackgroundImageFix" result="shape"/>
<feGaussianBlur stdDeviation="3" result="effect1_foregroundBlur"/>
</filter>
<filter id="filter21_f" x="176" y="89" width="37.13" height="37.1243" filterUnits="userSpaceOnUse" color-interpolation-filters="sRGB">
<feFlood flood-opacity="0" result="BackgroundImageFix"/>
<feBlend mode="normal" in="SourceGraphic" in2="BackgroundImageFix" result="shape"/>
<feGaussianBlur stdDeviation="3" result="effect1_foregroundBlur"/>
</filter>
<filter id="filter22_f" x="177" y="169" width="37.13" height="37.1243" filterUnits="userSpaceOnUse" color-interpolation-filters="sRGB">
<feFlood flood-opacity="0" result="BackgroundImageFix"/>
<feBlend mode="normal" in="SourceGraphic" in2="BackgroundImageFix" result="shape"/>
<feGaussianBlur stdDeviation="3" result="effect1_foregroundBlur"/>
</filter>
<filter id="filter23_f" x="216" y="138" width="37.13" height="37.1243" filterUnits="userSpaceOnUse" color-interpolation-filters="sRGB">
<feFlood flood-opacity="0" result="BackgroundImageFix"/>
<feBlend mode="normal" in="SourceGraphic" in2="BackgroundImageFix" result="shape"/>
<feGaussianBlur stdDeviation="3" result="effect1_foregroundBlur"/>
</filter>
<filter id="filter24_f" x="81" y="156" width="37.13" height="37.1243" filterUnits="userSpaceOnUse" color-interpolation-filters="sRGB">
<feFlood flood-opacity="0" result="BackgroundImageFix"/>
<feBlend mode="normal" in="SourceGraphic" in2="BackgroundImageFix" result="shape"/>
<feGaussianBlur stdDeviation="3" result="effect1_foregroundBlur"/>
</filter>
<filter id="filter25_f" x="0" y="96.9998" width="37.13" height="37.1243" filterUnits="userSpaceOnUse" color-interpolation-filters="sRGB">
<feFlood flood-opacity="0" result="BackgroundImageFix"/>
<feBlend mode="normal" in="SourceGraphic" in2="BackgroundImageFix" result="shape"/>
<feGaussianBlur stdDeviation="3" result="effect1_foregroundBlur"/>
</filter>
<filter id="filter26_f" x="69" y="69.9998" width="37.13" height="37.1243" filterUnits="userSpaceOnUse" color-interpolation-filters="sRGB">
<feFlood flood-opacity="0" result="BackgroundImageFix"/>
<feBlend mode="normal" in="SourceGraphic" in2="BackgroundImageFix" result="shape"/>
<feGaussianBlur stdDeviation="3" result="effect1_foregroundBlur"/>
</filter>
<filter id="filter27_f" x="264" y="27.9998" width="37.13" height="37.1243" filterUnits="userSpaceOnUse" color-interpolation-filters="sRGB">
<feFlood flood-opacity="0" result="BackgroundImageFix"/>
<feBlend mode="normal" in="SourceGraphic" in2="BackgroundImageFix" result="shape"/>
<feGaussianBlur stdDeviation="3" result="effect1_foregroundBlur"/>
</filter>
<filter id="filter28_f" x="383" y="30.9998" width="37.13" height="37.1243" filterUnits="userSpaceOnUse" color-interpolation-filters="sRGB">
<feFlood flood-opacity="0" result="BackgroundImageFix"/>
<feBlend mode="normal" in="SourceGraphic" in2="BackgroundImageFix" result="shape"/>
<feGaussianBlur stdDeviation="3" result="effect1_foregroundBlur"/>
</filter>
<filter id="filter29_f" x="526" y="40.9998" width="37.13" height="37.1243" filterUnits="userSpaceOnUse" color-interpolation-filters="sRGB">
<feFlood flood-opacity="0" result="BackgroundImageFix"/>
<feBlend mode="normal" in="SourceGraphic" in2="BackgroundImageFix" result="shape"/>
<feGaussianBlur stdDeviation="3" result="effect1_foregroundBlur"/>
</filter>
<filter id="filter30_f" x="689" y="40.9998" width="37.13" height="37.1243" filterUnits="userSpaceOnUse" color-interpolation-filters="sRGB">
<feFlood flood-opacity="0" result="BackgroundImageFix"/>
<feBlend mode="normal" in="SourceGraphic" in2="BackgroundImageFix" result="shape"/>
<feGaussianBlur stdDeviation="3" result="effect1_foregroundBlur"/>
</filter>
<filter id="filter31_f" x="786" y="103" width="37.13" height="37.1243" filterUnits="userSpaceOnUse" color-interpolation-filters="sRGB">
<feFlood flood-opacity="0" result="BackgroundImageFix"/>
<feBlend mode="normal" in="SourceGraphic" in2="BackgroundImageFix" result="shape"/>
<feGaussianBlur stdDeviation="3" result="effect1_foregroundBlur"/>
</filter>
<filter id="filter32_f" x="752" y="122" width="37.13" height="37.1243" filterUnits="userSpaceOnUse" color-interpolation-filters="sRGB">
<feFlood flood-opacity="0" result="BackgroundImageFix"/>
<feBlend mode="normal" in="SourceGraphic" in2="BackgroundImageFix" result="shape"/>
<feGaussianBlur stdDeviation="3" result="effect1_foregroundBlur"/>
</filter>
<filter id="filter33_f" x="674" y="108" width="37.13" height="37.1243" filterUnits="userSpaceOnUse" color-interpolation-filters="sRGB">
<feFlood flood-opacity="0" result="BackgroundImageFix"/>
<feBlend mode="normal" in="SourceGraphic" in2="BackgroundImageFix" result="shape"/>
<feGaussianBlur stdDeviation="3" result="effect1_foregroundBlur"/>
</filter>
<filter id="filter34_f" x="584" y="156" width="37.13" height="37.1243" filterUnits="userSpaceOnUse" color-interpolation-filters="sRGB">
<feFlood flood-opacity="0" result="BackgroundImageFix"/>
<feBlend mode="normal" in="SourceGraphic" in2="BackgroundImageFix" result="shape"/>
<feGaussianBlur stdDeviation="3" result="effect1_foregroundBlur"/>
</filter>
<filter id="filter35_f" x="406" y="157" width="37.13" height="37.1243" filterUnits="userSpaceOnUse" color-interpolation-filters="sRGB">
<feFlood flood-opacity="0" result="BackgroundImageFix"/>
<feBlend mode="normal" in="SourceGraphic" in2="BackgroundImageFix" result="shape"/>
<feGaussianBlur stdDeviation="3" result="effect1_foregroundBlur"/>
</filter>
<filter id="filter36_f" x="341" y="138" width="37.13" height="37.1243" filterUnits="userSpaceOnUse" color-interpolation-filters="sRGB">
<feFlood flood-opacity="0" result="BackgroundImageFix"/>
<feBlend mode="normal" in="SourceGraphic" in2="BackgroundImageFix" result="shape"/>
<feGaussianBlur stdDeviation="3" result="effect1_foregroundBlur"/>
</filter>
<filter id="filter37_f" x="426" y="138" width="37.13" height="37.1243" filterUnits="userSpaceOnUse" color-interpolation-filters="sRGB">
<feFlood flood-opacity="0" result="BackgroundImageFix"/>
<feBlend mode="normal" in="SourceGraphic" in2="BackgroundImageFix" result="shape"/>
<feGaussianBlur stdDeviation="3" result="effect1_foregroundBlur"/>
</filter>
<filter id="filter38_f" x="396" y="62.9998" width="37.13" height="37.1243" filterUnits="userSpaceOnUse" color-interpolation-filters="sRGB">
<feFlood flood-opacity="0" result="BackgroundImageFix"/>
<feBlend mode="normal" in="SourceGraphic" in2="BackgroundImageFix" result="shape"/>
<feGaussianBlur stdDeviation="3" result="effect1_foregroundBlur"/>
</filter>
<filter id="filter39_f" x="384" y="138" width="37.13" height="37.1243" filterUnits="userSpaceOnUse" color-interpolation-filters="sRGB">
<feFlood flood-opacity="0" result="BackgroundImageFix"/>
<feBlend mode="normal" in="SourceGraphic" in2="BackgroundImageFix" result="shape"/>
<feGaussianBlur stdDeviation="3" result="effect1_foregroundBlur"/>
</filter>
<filter id="filter40_f" x="295" y="132" width="37.13" height="37.1243" filterUnits="userSpaceOnUse" color-interpolation-filters="sRGB">
<feFlood flood-opacity="0" result="BackgroundImageFix"/>
<feBlend mode="normal" in="SourceGraphic" in2="BackgroundImageFix" result="shape"/>
<feGaussianBlur stdDeviation="3" result="effect1_foregroundBlur"/>
</filter>
<filter id="filter41_f" x="341" y="182" width="37.13" height="37.1243" filterUnits="userSpaceOnUse" color-interpolation-filters="sRGB">
<feFlood flood-opacity="0" result="BackgroundImageFix"/>
<feBlend mode="normal" in="SourceGraphic" in2="BackgroundImageFix" result="shape"/>
<feGaussianBlur stdDeviation="3" result="effect1_foregroundBlur"/>
</filter>
<radialGradient id="paint0_radial" cx="0" cy="0" r="1" gradientUnits="userSpaceOnUse" gradientTransform="translate(640.003 188.997) rotate(90) scale(24.9986)">
<stop stop-color="#00FFFF"/>
<stop offset="0.3641" stop-color="#00FFFF"/>
<stop offset="0.4" stop-color="#00FFFF"/>
<stop offset="0.4584" stop-color="#00FCFC" stop-opacity="0.8422"/>
<stop offset="0.5064" stop-color="#00F2F2" stop-opacity="0.7124"/>
<stop offset="0.5508" stop-color="#00E0E0" stop-opacity="0.5924"/>
<stop offset="0.593" stop-color="#00C8C8" stop-opacity="0.4783"/>
<stop offset="0.6337" stop-color="#00A9A9" stop-opacity="0.3684"/>
<stop offset="0.6732" stop-color="#008282" stop-opacity="0.2616"/>
<stop offset="0.7117" stop-color="#005555" stop-opacity="0.1574"/>
<stop offset="0.7486" stop-color="#002121" stop-opacity="0.0578"/>
<stop offset="0.77" stop-opacity="0"/>
</radialGradient>
<radialGradient id="paint1_radial" cx="0" cy="0" r="1" gradientUnits="userSpaceOnUse" gradientTransform="translate(194.502 49.4982) rotate(90) scale(17.499)">
<stop stop-color="#00FFFF"/>
<stop offset="0.3641" stop-color="#00FFFF"/>
<stop offset="0.4" stop-color="#00FFFF"/>
<stop offset="0.4584" stop-color="#00FCFC" stop-opacity="0.8422"/>
<stop offset="0.5064" stop-color="#00F2F2" stop-opacity="0.7124"/>
<stop offset="0.5508" stop-color="#00E0E0" stop-opacity="0.5924"/>
<stop offset="0.593" stop-color="#00C8C8" stop-opacity="0.4783"/>
<stop offset="0.6337" stop-color="#00A9A9" stop-opacity="0.3684"/>
<stop offset="0.6732" stop-color="#008282" stop-opacity="0.2616"/>
<stop offset="0.7117" stop-color="#005555" stop-opacity="0.1574"/>
<stop offset="0.7486" stop-color="#002121" stop-opacity="0.0578"/>
<stop offset="0.77" stop-opacity="0"/>
</radialGradient>
<radialGradient id="paint2_radial" cx="0" cy="0" r="1" gradientUnits="userSpaceOnUse" gradientTransform="translate(372.003 67.9976) rotate(90) scale(20.9988)">
<stop stop-color="#00FFFF"/>
<stop offset="0.3641" stop-color="#00FFFF"/>
<stop offset="0.4" stop-color="#00FFFF"/>
<stop offset="0.4584" stop-color="#00FCFC" stop-opacity="0.8422"/>
<stop offset="0.5064" stop-color="#00F2F2" stop-opacity="0.7124"/>
<stop offset="0.5508" stop-color="#00E0E0" stop-opacity="0.5924"/>
<stop offset="0.593" stop-color="#00C8C8" stop-opacity="0.4783"/>
<stop offset="0.6337" stop-color="#00A9A9" stop-opacity="0.3684"/>
<stop offset="0.6732" stop-color="#008282" stop-opacity="0.2616"/>
<stop offset="0.7117" stop-color="#005555" stop-opacity="0.1574"/>
<stop offset="0.7486" stop-color="#002121" stop-opacity="0.0578"/>
<stop offset="0.77" stop-opacity="0"/>
</radialGradient>
<radialGradient id="paint3_radial" cx="0" cy="0" r="1" gradientUnits="userSpaceOnUse" gradientTransform="translate(98.0017 126.998) rotate(90) scale(13.9992)">
<stop stop-color="#00FFFF"/>
<stop offset="0.3641" stop-color="#00FFFF"/>
<stop offset="0.4" stop-color="#00FFFF"/>
<stop offset="0.4584" stop-color="#00FCFC" stop-opacity="0.8422"/>
<stop offset="0.5064" stop-color="#00F2F2" stop-opacity="0.7124"/>
<stop offset="0.5508" stop-color="#00E0E0" stop-opacity="0.5924"/>
<stop offset="0.593" stop-color="#00C8C8" stop-opacity="0.4783"/>
<stop offset="0.6337" stop-color="#00A9A9" stop-opacity="0.3684"/>
<stop offset="0.6732" stop-color="#008282" stop-opacity="0.2616"/>
<stop offset="0.7117" stop-color="#005555" stop-opacity="0.1574"/>
<stop offset="0.7486" stop-color="#002121" stop-opacity="0.0578"/>
<stop offset="0.77" stop-opacity="0"/>
</radialGradient>
<radialGradient id="paint4_radial" cx="0" cy="0" r="1" gradientUnits="userSpaceOnUse" gradientTransform="translate(766.001 94.9986) rotate(90) scale(10.9994)">
<stop stop-color="#00FFFF"/>
<stop offset="0.3641" stop-color="#00FFFF"/>
<stop offset="0.4" stop-color="#00FFFF"/>
<stop offset="0.4584" stop-color="#00FCFC" stop-opacity="0.8422"/>
<stop offset="0.5064" stop-color="#00F2F2" stop-opacity="0.7124"/>
<stop offset="0.5508" stop-color="#00E0E0" stop-opacity="0.5924"/>
<stop offset="0.593" stop-color="#00C8C8" stop-opacity="0.4783"/>
<stop offset="0.6337" stop-color="#00A9A9" stop-opacity="0.3684"/>
<stop offset="0.6732" stop-color="#008282" stop-opacity="0.2616"/>
<stop offset="0.7117" stop-color="#005555" stop-opacity="0.1574"/>
<stop offset="0.7486" stop-color="#002121" stop-opacity="0.0578"/>
<stop offset="0.77" stop-opacity="0"/>
</radialGradient>
</defs>
</svg>
