<svg width="195" height="48" viewBox="0 0 195 48" fill="none" xmlns="http://www.w3.org/2000/svg">
<g clip-path="url(#clip0)">
<path d="M42.3638 30.6681H42.2594C40.6053 30.6681 38.8554 28.8947 38.8554 27.2155V27.1096H38.6V27.2155C38.6 28.8918 36.8502 30.6681 35.1932 30.6681H35.0887V30.9269H35.1932C36.8473 30.9269 38.6 32.7002 38.6 34.3795V34.4854H38.8554V34.3795C38.8554 32.7032 40.6053 30.9269 42.2594 30.9269H42.3638V30.6681Z" fill="#1EC1CB"/>
<path d="M13.2722 8.55553H13.1677C11.5136 8.55553 9.76377 6.78218 9.76377 5.10293V5H9.5084V5.10587C9.5084 6.78218 7.75856 8.55847 6.10157 8.55847H6V8.81727H6.10447C7.75856 8.81727 9.51131 10.5906 9.51131 12.2699V12.3757H9.76667V12.264C9.76667 10.5877 11.5165 8.81139 13.1706 8.81139H13.2751V8.55553H13.2722Z" fill="#1EC1CB"/>
<path d="M13.2722 15.9283H13.1677C11.5136 15.9283 9.76377 14.155 9.76377 12.4757V12.3699H9.5084V12.4757C9.5084 14.1521 7.75856 15.9283 6.10157 15.9283H6V16.1871H6.10447C7.75856 16.1871 9.51131 17.9605 9.51131 19.6397V19.7456H9.76667V19.6397C9.76667 17.9634 11.5165 16.1871 13.1706 16.1871H13.2751V15.9283H13.2722Z" fill="#1EC1CB"/>
<path d="M20.5444 15.9283H20.4399C18.7858 15.9283 17.036 14.155 17.036 12.4757V12.3699H16.7806V12.4757C16.7806 14.1521 15.0307 15.9283 13.3738 15.9283H13.2693V16.1871H13.3738C15.0278 16.1871 16.7806 17.9605 16.7806 19.6397V19.7456H17.036V19.6397C17.036 17.9634 18.7858 16.1871 20.4399 16.1871H20.5444V15.9283Z" fill="#1EC1CB"/>
<path d="M13.2722 23.2982H13.1677C11.5136 23.2982 9.76377 21.5249 9.76377 19.8456V19.7397H9.5084V19.8456C9.5084 21.5219 7.75856 23.2982 6.10157 23.2982H6V23.557H6.10447C7.75856 23.557 9.51131 25.3304 9.51131 27.0096V27.1155H9.76667V27.0096C9.76667 25.3333 11.5165 23.557 13.1706 23.557H13.2751V23.2982H13.2722Z" fill="#1EC1CB"/>
<path d="M20.5444 23.2982H20.4399C18.7858 23.2982 17.036 21.5249 17.036 19.8456V19.7397H16.7806V19.8456C16.7806 21.5219 15.0307 23.2982 13.3738 23.2982H13.2693V23.557H13.3738C15.0278 23.557 16.7806 25.3304 16.7806 27.0096V27.1155H17.036V27.0096C17.036 25.3333 18.7858 23.557 20.4399 23.557H20.5444V23.2982Z" fill="#1EC1CB"/>
<path d="M27.8194 23.2982H27.7149C26.0608 23.2982 24.311 21.5249 24.311 19.8456V19.7397H24.0556V19.8456C24.0556 21.5219 22.3058 23.2982 20.6488 23.2982H20.5443V23.557H20.6488C22.3029 23.557 24.0556 25.3304 24.0556 27.0096V27.1155H24.311V27.0096C24.311 25.3333 26.0608 23.557 27.7149 23.557H27.8194V23.2982Z" fill="#1EC1CB"/>
<path d="M13.2722 30.6681H13.1677C11.5136 30.6681 9.76377 28.8947 9.76377 27.2155V27.1096H9.5084V27.2155C9.5084 28.8918 7.75856 30.6681 6.10157 30.6681H6V30.9269H6.10447C7.75856 30.9269 9.51131 32.7002 9.51131 34.3795V34.4854H9.76667V34.3795C9.76667 32.7032 11.5165 30.9269 13.1706 30.9269H13.2751V30.6681H13.2722Z" fill="#1EC1CB"/>
<path d="M20.5444 30.6681H20.4399C18.7858 30.6681 17.036 28.8947 17.036 27.2155V27.1096H16.7806V27.2155C16.7806 28.8918 15.0307 30.6681 13.3738 30.6681H13.2693V30.9269H13.3738C15.0278 30.9269 16.7806 32.7002 16.7806 34.3795V34.4854H17.036V34.3795C17.036 32.7032 18.7858 30.9269 20.4399 30.9269H20.5444V30.6681Z" fill="#1EC1CB"/>
<path d="M35.0916 15.9283H34.9871C33.3331 15.9283 31.5832 14.155 31.5832 12.4757V12.3699H31.3278V12.4757C31.3278 14.1521 29.578 15.9283 27.921 15.9283H27.8165V16.1871H27.921C29.5751 16.1871 31.3278 17.9605 31.3278 19.6397V19.7456H31.5832V19.6397C31.5832 17.9634 33.3331 16.1871 34.9871 16.1871H35.0916V15.9283Z" fill="#1EC1CB"/>
<path d="M35.0916 23.2982H34.9871C33.3331 23.2982 31.5832 21.5249 31.5832 19.8456V19.7397H31.3278V19.8456C31.3278 21.5219 29.578 23.2982 27.921 23.2982H27.8165V23.557H27.921C29.5751 23.557 31.3278 25.3304 31.3278 27.0096V27.1155H31.5832V27.0096C31.5832 25.3333 33.3331 23.557 34.9871 23.557H35.0916V23.2982Z" fill="#1EC1CB"/>
<path d="M35.0916 30.6681H34.9871C33.3331 30.6681 31.5832 28.8947 31.5832 27.2155V27.1096H31.3278V27.2155C31.3278 28.8918 29.578 30.6681 27.921 30.6681H27.8165V30.9269H27.921C29.5751 30.9269 31.3278 32.7002 31.3278 34.3795V34.4854H31.5832V34.3795C31.5832 32.7032 33.3331 30.9269 34.9871 30.9269H35.0916V30.6681Z" fill="#1EC1CB"/>
<path d="M42.3638 15.9283H42.2594C40.6053 15.9283 38.8554 14.155 38.8554 12.4757V12.3699H38.6V12.4757C38.6 14.1521 36.8502 15.9283 35.1932 15.9283H35.0887V16.1871H35.1932C36.8473 16.1871 38.6 17.9605 38.6 19.6397V19.7456H38.8554V19.6397C38.8554 17.9634 40.6053 16.1871 42.2594 16.1871H42.3638V15.9283Z" fill="#1EC1CB"/>
<path d="M42.3638 8.55553H42.2594C40.6053 8.55553 38.8554 6.78218 38.8554 5.10293V5H38.6V5.10587C38.6 6.78218 36.8502 8.55847 35.1932 8.55847H35.0887V8.81727H35.1932C36.8473 8.81727 38.6 10.5906 38.6 12.2699V12.3757H38.8554V12.264C38.8554 10.5877 40.6053 8.81139 42.2594 8.81139H42.3638V8.55553Z" fill="#1EC1CB"/>
<path d="M42.3638 23.2982H42.2594C40.6053 23.2982 38.8554 21.5249 38.8554 19.8456V19.7397H38.6V19.8456C38.6 21.5219 36.8502 23.2982 35.1932 23.2982H35.0887V23.557H35.1932C36.8473 23.557 38.6 25.3304 38.6 27.0096V27.1155H38.8554V27.0096C38.8554 25.3333 40.6053 23.557 42.2594 23.557H42.3638V23.2982Z" fill="#1EC1CB"/>
<path d="M42.3638 38.038H42.2594C40.6053 38.038 38.8554 36.2646 38.8554 34.5854V34.4795H38.6V34.5854C38.6 36.2617 36.8502 38.038 35.1932 38.038H35.0887V38.2968H35.1932C36.8473 38.2968 38.6 40.0701 38.6 41.7494V41.8552H38.8554V41.7494C38.8554 40.0731 40.6053 38.2968 42.2594 38.2968H42.3638V38.038Z" fill="#1EC1CB"/>
<path d="M13.2722 38.038H13.1677C11.5136 38.038 9.76377 36.2646 9.76377 34.5854V34.4795H9.5084V34.5854C9.5084 36.2617 7.75856 38.038 6.10157 38.038H6V38.2968H6.10447C7.75856 38.2968 9.51131 40.0701 9.51131 41.7494V41.8552H9.76667V41.7494C9.76667 40.0731 11.5165 38.2968 13.1706 38.2968H13.2751V38.038H13.2722Z" fill="#1EC1CB"/>
<path d="M98.1672 8.06328H89.7157V6.02545H101.705V6.87582L93.2535 18.8538H101.705V20.8916H89.7157V20.0413L98.1672 8.06328ZM174.835 12.499C171.672 11.8133 171.093 11.0741 171.093 9.82531C171.093 8.56124 172.269 7.6764 173.955 7.6764C175.429 7.6764 176.706 8.16287 177.976 9.21243L178.135 9.3465L179.322 7.75301L179.171 7.63043C177.591 6.34338 176.045 5.79562 173.996 5.79562C171.146 5.79562 169.075 7.54999 169.075 10.013C169.075 12.7518 171.067 13.7554 174.057 14.4142C177.08 15.0616 177.636 15.7856 177.636 17.0267C177.636 18.3673 176.4 19.302 174.631 19.302C172.783 19.302 171.396 18.7197 169.838 17.2948L169.687 17.1531L168.425 18.6699L168.568 18.8002C170.364 20.4243 172.273 21.1827 174.574 21.1827C177.579 21.1827 179.681 19.4054 179.681 16.8198C179.673 14.5407 178.229 13.2498 174.835 12.499ZM147.523 16.4329C146.502 18.2141 144.624 19.4284 142.45 19.4284C139.207 19.4284 136.565 16.7547 136.565 13.4643C136.565 10.1739 139.204 7.5002 142.45 7.5002C144.624 7.5002 146.502 8.71446 147.523 10.4956L149.239 9.49206C147.874 7.10948 145.361 5.48535 142.45 5.48535C138.108 5.48535 134.577 9.06304 134.577 13.4643C134.577 17.8655 138.108 21.4432 142.45 21.4432C145.357 21.4432 147.874 19.8191 149.239 17.4365L147.523 16.4329ZM72.2496 20.8801H74.4456L79.4953 8.87918L84.5488 20.8801H86.7448V20.8763L80.5007 6.03311H77.5147C77.5147 6.03311 78.3954 6.25528 77.7188 7.87175L72.2496 20.8801ZM151.563 20.8801H153.759L158.809 8.87918L163.863 20.8801H166.059V20.8763L159.815 6.03311H156.829C156.829 6.03311 157.709 6.25528 157.033 7.87175L151.563 20.8801ZM53.8536 6.03311C54.2959 6.20166 54.6474 6.59237 54.7532 7.09416C54.8515 7.47721 54.9044 8.14372 54.9044 9.08985V20.8763H57.1874V14.4028H65.6086V20.8763H67.8916V6.03694H65.6086V12.4913H57.1874V6.03694L53.8536 6.03311ZM106.343 6.03311C106.785 6.20166 107.136 6.59237 107.242 7.09416C107.341 7.47721 107.394 8.15138 107.394 9.10134V20.8763H117.032V18.8691H109.676V14.3951H116.612V12.5028H109.676V8.05179H117.02V6.03694L106.343 6.03311ZM122.433 6.0446C122.875 6.21315 123.227 6.60386 123.333 7.10565C123.431 7.4887 123.484 8.16287 123.484 9.11284V20.8763H132.427V18.8768H125.767V6.03694L122.433 6.0446ZM190.094 20.8801V8.01348H195V6.03694H182.841V8.01348H187.766V17.8119C187.766 18.7619 187.717 19.436 187.614 19.8191C187.509 20.3247 187.157 20.7116 186.715 20.8801H190.094Z" fill="#141414"/>
<path d="M62.287 37.8816C62.1568 39.0795 61.7271 39.9962 60.9979 40.6316C60.274 41.267 59.3078 41.5847 58.0995 41.5847C57.2557 41.5847 56.5083 41.3738 55.8573 40.9519C55.2115 40.53 54.7115 39.9337 54.3573 39.1628C54.0031 38.3868 53.8234 37.5014 53.8182 36.5066V35.03C53.8182 34.0196 53.9953 33.1238 54.3495 32.3425C54.7037 31.5613 55.2115 30.9597 55.8729 30.5378C56.5396 30.1108 57.3052 29.8972 58.1698 29.8972C59.3885 29.8972 60.3495 30.2279 61.0526 30.8894C61.7609 31.5457 62.1724 32.4545 62.287 33.616H61.3182C61.0787 31.6837 60.0292 30.7175 58.1698 30.7175C57.1385 30.7175 56.3156 31.1029 55.701 31.8738C55.0917 32.6446 54.787 33.7097 54.787 35.0691V36.4597C54.787 37.7722 55.0839 38.8191 55.6776 39.6003C56.2766 40.3816 57.0839 40.7722 58.0995 40.7722C59.1047 40.7722 59.8625 40.5326 60.3729 40.0535C60.8833 39.5691 61.1984 38.8451 61.3182 37.8816H62.287ZM65.5917 40.616H71.2089V41.4285H64.6229V30.0535H65.5917V40.616ZM80.951 36.3582C80.951 37.405 80.7688 38.3243 80.4042 39.116C80.0448 39.9076 79.5292 40.517 78.8573 40.9441C78.1854 41.3712 77.4094 41.5847 76.5292 41.5847C75.201 41.5847 74.1281 41.1108 73.3104 40.1628C72.4927 39.2097 72.0839 37.9259 72.0839 36.3113V35.1394C72.0839 34.1029 72.2662 33.1863 72.6307 32.3894C73.0005 31.5873 73.5214 30.9727 74.1932 30.5457C74.8651 30.1134 75.6385 29.8972 76.5135 29.8972C77.3885 29.8972 78.1594 30.1082 78.826 30.53C79.4979 30.9519 80.0162 31.5483 80.3807 32.3191C80.7453 33.0899 80.9354 33.9832 80.951 34.9988V36.3582ZM79.9901 35.1238C79.9901 33.754 79.6802 32.6811 79.0604 31.905C78.4406 31.129 77.5917 30.741 76.5135 30.741C75.4563 30.741 74.6125 31.1316 73.9823 31.9128C73.3573 32.6889 73.0448 33.7748 73.0448 35.1707V36.3582C73.0448 37.7071 73.3573 38.7774 73.9823 39.5691C74.6073 40.3556 75.4563 40.7488 76.5292 40.7488C77.6177 40.7488 78.4667 40.3608 79.076 39.5847C79.6854 38.8035 79.9901 37.7175 79.9901 36.3269V35.1238ZM91.2089 30.0535V37.8191C91.2037 38.5847 91.0344 39.2514 90.701 39.8191C90.3677 40.3868 89.8964 40.8243 89.287 41.1316C88.6828 41.4337 87.9875 41.5847 87.201 41.5847C86.0031 41.5847 85.0422 41.2592 84.3182 40.6082C83.5995 39.9519 83.2271 39.0457 83.201 37.8894V30.0535H84.1542V37.7488C84.1542 38.7071 84.4276 39.4519 84.9745 39.9832C85.5214 40.5092 86.2635 40.7722 87.201 40.7722C88.1385 40.7722 88.8781 40.5066 89.4198 39.9753C89.9667 39.4441 90.2401 38.7045 90.2401 37.7566V30.0535H91.2089ZM93.8885 41.4285V30.0535H97.0682C98.0005 30.0535 98.8365 30.267 99.576 30.6941C100.316 31.116 100.891 31.7227 101.303 32.5144C101.719 33.3061 101.928 34.2071 101.928 35.2175V36.2644C101.928 37.28 101.722 38.1811 101.31 38.9675C100.899 39.754 100.318 40.3608 99.5682 40.7878C98.8234 41.2149 97.9667 41.4285 96.9979 41.4285H93.8885ZM94.8495 30.8738V40.616H97.0057C98.2037 40.616 99.1646 40.2201 99.8885 39.4285C100.613 38.6316 100.974 37.5561 100.974 36.2019V35.2019C100.974 33.8946 100.618 32.8477 99.9042 32.0613C99.1906 31.2748 98.2505 30.879 97.0839 30.8738H94.8495Z" fill="black"/>
</g>
<defs>
<clipPath id="clip0">
<rect width="195" height="48" fill="white"/>
</clipPath>
</defs>
</svg>
