<svg width="25" height="25" viewBox="0 0 25 25" fill="none" xmlns="http://www.w3.org/2000/svg">
<path d="M18.9071 3.22668C18.1115 3.22668 17.3484 3.54276 16.7858 4.10536C16.2232 4.66797 15.9071 5.43104 15.9071 6.22668V18.2267C15.9071 19.0223 16.2232 19.7854 16.7858 20.348C17.3484 20.9106 18.1115 21.2267 18.9071 21.2267C19.7028 21.2267 20.4658 20.9106 21.0284 20.348C21.591 19.7854 21.9071 19.0223 21.9071 18.2267C21.9071 17.431 21.591 16.668 21.0284 16.1054C20.4658 15.5428 19.7028 15.2267 18.9071 15.2267H6.9071C6.11146 15.2267 5.34839 15.5428 4.78578 16.1054C4.22318 16.668 3.9071 17.431 3.9071 18.2267C3.9071 19.0223 4.22318 19.7854 4.78578 20.348C5.34839 20.9106 6.11146 21.2267 6.9071 21.2267C7.70275 21.2267 8.46582 20.9106 9.02843 20.348C9.59103 19.7854 9.9071 19.0223 9.9071 18.2267V6.22668C9.9071 5.43104 9.59103 4.66797 9.02843 4.10536C8.46582 3.54276 7.70275 3.22668 6.9071 3.22668C6.11146 3.22668 5.34839 3.54276 4.78578 4.10536C4.22318 4.66797 3.9071 5.43104 3.9071 6.22668C3.9071 7.02233 4.22318 7.7854 4.78578 8.34801C5.34839 8.91061 6.11146 9.22668 6.9071 9.22668H18.9071C19.7028 9.22668 20.4658 8.91061 21.0284 8.34801C21.591 7.7854 21.9071 7.02233 21.9071 6.22668C21.9071 5.43104 21.591 4.66797 21.0284 4.10536C20.4658 3.54276 19.7028 3.22668 18.9071 3.22668Z" stroke="black" stroke-width="1.5" stroke-linecap="round" stroke-linejoin="round"/>
</svg>
