<svg width="36" height="40" viewBox="0 0 36 40" fill="none" xmlns="http://www.w3.org/2000/svg">
<path d="M35.5422 29.7303C35.8172 29.2565 35.9881 28.7227 35.9881 28.2433V11.6035C35.9881 11.1242 35.8174 10.5905 35.5423 10.1167L18.4644 19.9235L35.5422 29.7303Z" fill="#00599C"/>
<path d="M19.9817 39.1794L34.4702 30.8595C34.8876 30.6199 35.2669 30.206 35.5419 29.7321L18.4641 19.9253L1.38623 29.7322C1.66123 30.206 2.04068 30.62 2.45793 30.8595L16.9465 39.1794C17.7811 39.6587 19.147 39.6587 19.9817 39.1794Z" fill="#004482"/>
<path d="M35.5424 10.1178C35.2673 9.64394 34.8878 9.23008 34.4706 8.9904L19.982 0.670558C19.1474 0.191194 17.7814 0.191194 16.9468 0.670558L2.45825 8.9904C1.62353 9.46965 0.940674 10.6462 0.940674 11.6048V28.2446C0.940674 28.724 1.11144 29.2578 1.38656 29.7316L18.4644 19.9247L35.5424 10.1178Z" fill="#659AD2"/>
<path d="M18.4641 31.546C12.0224 31.546 6.78162 26.3335 6.78162 19.9265C6.78162 13.5194 12.0224 8.30688 18.4641 8.30688C22.6208 8.30688 26.4974 10.5317 28.581 14.113L23.5251 17.0229C22.4823 15.2303 20.5429 14.1167 18.4641 14.1167C15.2432 14.1167 12.6229 16.7229 12.6229 19.9265C12.6229 23.1299 15.2432 25.7362 18.4641 25.7362C20.5431 25.7362 22.4825 24.6226 23.5255 22.8296L28.5814 25.7394C26.4978 29.3211 22.621 31.546 18.4641 31.546Z" fill="white"/>
<path d="M30.1459 19.2764H28.8478V17.9854H27.5499V19.2764H26.2518V20.5674H27.5499V21.8585H28.8478V20.5674H30.1459V19.2764Z" fill="white"/>
<path d="M35.0158 19.2764H33.7177V17.9854H32.4198V19.2764H31.1216V20.5674H32.4198V21.8585H33.7177V20.5674H35.0158V19.2764Z" fill="white"/>
</svg>
