<svg width="185" height="21" viewBox="0 0 185 21" fill="none" xmlns="http://www.w3.org/2000/svg">
<path d="M3.434 17.296C3.62467 17.3133 3.876 17.3307 4.188 17.348C4.5 17.348 4.92467 17.348 5.462 17.348C7.66333 17.348 9.30133 16.7933 10.376 15.684C11.468 14.5573 12.014 12.9887 12.014 10.978C12.014 8.93267 11.4853 7.364 10.428 6.272C9.37067 5.18 7.73267 4.634 5.514 4.634C4.54333 4.634 3.85 4.66 3.434 4.712V17.296ZM15.446 10.978C15.446 12.538 15.2033 13.8987 14.718 15.06C14.2327 16.204 13.5393 17.166 12.638 17.946C11.754 18.7087 10.6793 19.2807 9.414 19.662C8.166 20.026 6.77933 20.208 5.254 20.208C4.526 20.208 3.70267 20.1733 2.784 20.104C1.86533 20.052 0.99 19.9307 0.158 19.74V2.242C0.99 2.05133 1.874 1.93 2.81 1.878C3.746 1.826 4.578 1.8 5.306 1.8C6.814 1.8 8.192 1.982 9.44 2.346C10.688 2.69267 11.754 3.24733 12.638 4.01C13.5393 4.75533 14.2327 5.70867 14.718 6.87C15.2033 8.014 15.446 9.38333 15.446 10.978ZM31.1652 13.188C31.1652 14.2627 31.0092 15.242 30.6972 16.126C30.3852 17.01 29.9432 17.764 29.3712 18.388C28.7992 19.012 28.1059 19.4973 27.2912 19.844C26.4939 20.1907 25.6099 20.364 24.6392 20.364C23.6686 20.364 22.7846 20.1907 21.9872 19.844C21.1899 19.4973 20.5052 19.012 19.9332 18.388C19.3612 17.764 18.9106 17.01 18.5812 16.126C18.2692 15.242 18.1132 14.2627 18.1132 13.188C18.1132 12.1133 18.2692 11.1427 18.5812 10.276C18.9106 9.392 19.3612 8.638 19.9332 8.014C20.5226 7.39 21.2159 6.91333 22.0132 6.584C22.8106 6.23733 23.6859 6.064 24.6392 6.064C25.5926 6.064 26.4679 6.23733 27.2652 6.584C28.0799 6.91333 28.7732 7.39 29.3452 8.014C29.9172 8.638 30.3592 9.392 30.6712 10.276C31.0006 11.1427 31.1652 12.1133 31.1652 13.188ZM27.9412 13.188C27.9412 11.836 27.6466 10.77 27.0572 9.99C26.4852 9.19267 25.6792 8.794 24.6392 8.794C23.5992 8.794 22.7846 9.19267 22.1952 9.99C21.6232 10.77 21.3372 11.836 21.3372 13.188C21.3372 14.5573 21.6232 15.6407 22.1952 16.438C22.7846 17.2353 23.5992 17.634 24.6392 17.634C25.6792 17.634 26.4852 17.2353 27.0572 16.438C27.6466 15.6407 27.9412 14.5573 27.9412 13.188ZM33.6523 13.214C33.6523 12.2087 33.8083 11.2727 34.1203 10.406C34.4323 9.522 34.8743 8.75933 35.4463 8.118C36.0356 7.47667 36.7463 6.974 37.5783 6.61C38.4103 6.246 39.3463 6.064 40.3863 6.064C41.669 6.064 42.8823 6.298 44.0263 6.766L43.3503 9.34C42.9863 9.184 42.5703 9.054 42.1023 8.95C41.6516 8.846 41.1663 8.794 40.6463 8.794C39.4156 8.794 38.4796 9.184 37.8383 9.964C37.197 10.7267 36.8763 11.81 36.8763 13.214C36.8763 14.566 37.1796 15.6407 37.7863 16.438C38.393 17.218 39.4156 17.608 40.8543 17.608C41.3916 17.608 41.9203 17.556 42.4403 17.452C42.9603 17.348 43.411 17.218 43.7923 17.062L44.2343 19.662C43.8876 19.8353 43.359 19.9913 42.6483 20.13C41.955 20.2687 41.2356 20.338 40.4903 20.338C39.329 20.338 38.315 20.1647 37.4483 19.818C36.599 19.454 35.8883 18.96 35.3163 18.336C34.7616 17.6947 34.3456 16.9407 34.0683 16.074C33.791 15.19 33.6523 14.2367 33.6523 13.214ZM57.824 19.584C57.2173 19.74 56.4286 19.896 55.458 20.052C54.4873 20.2253 53.4213 20.312 52.26 20.312C51.168 20.312 50.2493 20.156 49.504 19.844C48.776 19.532 48.1866 19.0987 47.736 18.544C47.3026 17.9893 46.9906 17.3307 46.8 16.568C46.6093 15.788 46.514 14.9387 46.514 14.02V6.402H49.66V13.526C49.66 14.982 49.868 16.022 50.284 16.646C50.7173 17.27 51.4626 17.582 52.52 17.582C52.9013 17.582 53.3 17.5647 53.716 17.53C54.1493 17.4953 54.47 17.452 54.678 17.4V6.402H57.824V19.584ZM69.5762 12.85C69.5762 11.4287 69.3942 10.406 69.0302 9.782C68.6835 9.14067 68.0248 8.82 67.0542 8.82C66.7075 8.82 66.3262 8.846 65.9102 8.898C65.4942 8.95 65.1822 8.99333 64.9742 9.028V20H61.8282V6.844C62.4348 6.67067 63.2235 6.506 64.1942 6.35C65.1822 6.194 66.2222 6.116 67.3142 6.116C68.2502 6.116 69.0128 6.23733 69.6022 6.48C70.2088 6.72267 70.7115 7.04333 71.1102 7.442C71.3008 7.30333 71.5435 7.156 71.8382 7C72.1328 6.844 72.4622 6.70533 72.8262 6.584C73.1902 6.44533 73.5715 6.33267 73.9702 6.246C74.3862 6.15933 74.8022 6.116 75.2182 6.116C76.2755 6.116 77.1422 6.272 77.8182 6.584C78.5115 6.87867 79.0488 7.30333 79.4302 7.858C79.8288 8.39533 80.0975 9.054 80.2362 9.834C80.3922 10.5967 80.4702 11.4373 80.4702 12.356V20H77.3242V12.85C77.3242 11.4287 77.1508 10.406 76.8042 9.782C76.4575 9.14067 75.7902 8.82 74.8022 8.82C74.2995 8.82 73.8228 8.90667 73.3722 9.08C72.9215 9.236 72.5835 9.392 72.3582 9.548C72.4968 9.98133 72.5922 10.4407 72.6442 10.926C72.6962 11.4113 72.7222 11.9313 72.7222 12.486V20H69.5762V12.85ZM83.5703 13.266C83.5703 12.07 83.7436 11.0213 84.0903 10.12C84.4543 9.21867 84.9309 8.47333 85.5203 7.884C86.1096 7.27733 86.7856 6.82667 87.5483 6.532C88.3109 6.22 89.0909 6.064 89.8883 6.064C91.7603 6.064 93.2163 6.64467 94.2563 7.806C95.3136 8.96733 95.8423 10.7007 95.8423 13.006C95.8423 13.1793 95.8336 13.3787 95.8163 13.604C95.8163 13.812 95.8076 14.0027 95.7903 14.176H86.8203C86.9069 15.268 87.2883 16.1173 87.9643 16.724C88.6576 17.3133 89.6543 17.608 90.9543 17.608C91.7169 17.608 92.4103 17.5387 93.0343 17.4C93.6756 17.2613 94.1783 17.114 94.5423 16.958L94.9583 19.532C94.7849 19.6187 94.5423 19.714 94.2303 19.818C93.9356 19.9047 93.5889 19.9827 93.1903 20.052C92.8089 20.1387 92.3929 20.208 91.9423 20.26C91.4916 20.312 91.0323 20.338 90.5643 20.338C89.3683 20.338 88.3283 20.1647 87.4443 19.818C86.5603 19.454 85.8323 18.96 85.2603 18.336C84.6883 17.6947 84.2636 16.9493 83.9863 16.1C83.7089 15.2333 83.5703 14.2887 83.5703 13.266ZM92.6963 11.862C92.6963 11.4287 92.6356 11.0213 92.5143 10.64C92.3929 10.2413 92.2109 9.90333 91.9683 9.626C91.7429 9.33133 91.4569 9.106 91.1103 8.95C90.7809 8.77667 90.3823 8.69 89.9143 8.69C89.4289 8.69 89.0043 8.78533 88.6403 8.976C88.2763 9.14933 87.9643 9.38333 87.7043 9.678C87.4616 9.97267 87.2709 10.3107 87.1323 10.692C86.9936 11.0733 86.8983 11.4633 86.8463 11.862H92.6963ZM99.1778 6.844C99.7844 6.67067 100.573 6.506 101.544 6.35C102.514 6.194 103.589 6.116 104.768 6.116C105.877 6.116 106.804 6.272 107.55 6.584C108.295 6.87867 108.884 7.30333 109.318 7.858C109.768 8.39533 110.08 9.054 110.254 9.834C110.444 10.5967 110.54 11.4373 110.54 12.356V20H107.394V12.85C107.394 12.122 107.342 11.5067 107.238 11.004C107.151 10.484 106.995 10.068 106.77 9.756C106.562 9.42667 106.267 9.19267 105.886 9.054C105.522 8.898 105.071 8.82 104.534 8.82C104.135 8.82 103.719 8.846 103.286 8.898C102.852 8.95 102.532 8.99333 102.324 9.028V20H99.1778V6.844ZM114.231 2.814L117.377 2.294V6.402H122.213V9.028H117.377V14.566C117.377 15.658 117.55 16.438 117.897 16.906C118.243 17.374 118.833 17.608 119.665 17.608C120.237 17.608 120.739 17.5473 121.173 17.426C121.623 17.3047 121.979 17.192 122.239 17.088L122.759 19.584C122.395 19.74 121.918 19.896 121.329 20.052C120.739 20.2253 120.046 20.312 119.249 20.312C118.278 20.312 117.463 20.182 116.805 19.922C116.163 19.662 115.652 19.2893 115.271 18.804C114.889 18.3013 114.621 17.7033 114.465 17.01C114.309 16.2993 114.231 15.4933 114.231 14.592V2.814ZM130.038 17.79C131.009 17.79 131.745 17.738 132.248 17.634V14.15C132.075 14.098 131.823 14.046 131.494 13.994C131.165 13.942 130.801 13.916 130.402 13.916C130.055 13.916 129.7 13.942 129.336 13.994C128.989 14.046 128.669 14.1413 128.374 14.28C128.097 14.4187 127.871 14.618 127.698 14.878C127.525 15.1207 127.438 15.4327 127.438 15.814C127.438 16.5593 127.672 17.0793 128.14 17.374C128.608 17.6513 129.241 17.79 130.038 17.79ZM129.778 6.064C130.818 6.064 131.693 6.194 132.404 6.454C133.115 6.714 133.678 7.078 134.094 7.546C134.527 8.014 134.831 8.586 135.004 9.262C135.195 9.92067 135.29 10.6487 135.29 11.446V19.688C134.805 19.792 134.068 19.9133 133.08 20.052C132.109 20.208 131.009 20.286 129.778 20.286C128.963 20.286 128.218 20.208 127.542 20.052C126.866 19.896 126.285 19.6447 125.8 19.298C125.332 18.9513 124.959 18.5007 124.682 17.946C124.422 17.3913 124.292 16.7067 124.292 15.892C124.292 15.112 124.439 14.4533 124.734 13.916C125.046 13.3787 125.462 12.9453 125.982 12.616C126.502 12.2693 127.1 12.0267 127.776 11.888C128.469 11.732 129.189 11.654 129.934 11.654C130.281 11.654 130.645 11.68 131.026 11.732C131.407 11.7667 131.815 11.836 132.248 11.94V11.42C132.248 11.056 132.205 10.7093 132.118 10.38C132.031 10.0507 131.875 9.76467 131.65 9.522C131.442 9.262 131.156 9.06267 130.792 8.924C130.445 8.78533 130.003 8.716 129.466 8.716C128.738 8.716 128.071 8.768 127.464 8.872C126.857 8.976 126.363 9.09733 125.982 9.236L125.592 6.688C125.991 6.54933 126.571 6.41067 127.334 6.272C128.097 6.13333 128.911 6.064 129.778 6.064ZM138.987 2.814L142.133 2.294V6.402H146.969V9.028H142.133V14.566C142.133 15.658 142.306 16.438 142.653 16.906C142.999 17.374 143.589 17.608 144.421 17.608C144.993 17.608 145.495 17.5473 145.929 17.426C146.379 17.3047 146.735 17.192 146.995 17.088L147.515 19.584C147.151 19.74 146.674 19.896 146.085 20.052C145.495 20.2253 144.802 20.312 144.005 20.312C143.034 20.312 142.219 20.182 141.561 19.922C140.919 19.662 140.408 19.2893 140.027 18.804C139.645 18.3013 139.377 17.7033 139.221 17.01C139.065 16.2993 138.987 15.4933 138.987 14.592V2.814ZM153.182 20H150.036V6.402H153.182V20ZM153.52 2.424C153.52 3.01333 153.329 3.48133 152.948 3.828C152.566 4.17467 152.116 4.348 151.596 4.348C151.058 4.348 150.599 4.17467 150.218 3.828C149.836 3.48133 149.646 3.01333 149.646 2.424C149.646 1.81733 149.836 1.34067 150.218 0.994C150.599 0.647332 151.058 0.473999 151.596 0.473999C152.116 0.473999 152.566 0.647332 152.948 0.994C153.329 1.34067 153.52 1.81733 153.52 2.424ZM169.493 13.188C169.493 14.2627 169.337 15.242 169.025 16.126C168.713 17.01 168.271 17.764 167.699 18.388C167.127 19.012 166.434 19.4973 165.619 19.844C164.822 20.1907 163.938 20.364 162.967 20.364C161.997 20.364 161.113 20.1907 160.315 19.844C159.518 19.4973 158.833 19.012 158.261 18.388C157.689 17.764 157.239 17.01 156.909 16.126C156.597 15.242 156.441 14.2627 156.441 13.188C156.441 12.1133 156.597 11.1427 156.909 10.276C157.239 9.392 157.689 8.638 158.261 8.014C158.851 7.39 159.544 6.91333 160.341 6.584C161.139 6.23733 162.014 6.064 162.967 6.064C163.921 6.064 164.796 6.23733 165.593 6.584C166.408 6.91333 167.101 7.39 167.673 8.014C168.245 8.638 168.687 9.392 168.999 10.276C169.329 11.1427 169.493 12.1133 169.493 13.188ZM166.269 13.188C166.269 11.836 165.975 10.77 165.385 9.99C164.813 9.19267 164.007 8.794 162.967 8.794C161.927 8.794 161.113 9.19267 160.523 9.99C159.951 10.77 159.665 11.836 159.665 13.188C159.665 14.5573 159.951 15.6407 160.523 16.438C161.113 17.2353 161.927 17.634 162.967 17.634C164.007 17.634 164.813 17.2353 165.385 16.438C165.975 15.6407 166.269 14.5573 166.269 13.188ZM172.734 6.844C173.341 6.67067 174.13 6.506 175.1 6.35C176.071 6.194 177.146 6.116 178.324 6.116C179.434 6.116 180.361 6.272 181.106 6.584C181.852 6.87867 182.441 7.30333 182.874 7.858C183.325 8.39533 183.637 9.054 183.81 9.834C184.001 10.5967 184.096 11.4373 184.096 12.356V20H180.95V12.85C180.95 12.122 180.898 11.5067 180.794 11.004C180.708 10.484 180.552 10.068 180.326 9.756C180.118 9.42667 179.824 9.19267 179.442 9.054C179.078 8.898 178.628 8.82 178.09 8.82C177.692 8.82 177.276 8.846 176.842 8.898C176.409 8.95 176.088 8.99333 175.88 9.028V20H172.734V6.844Z" fill="#707482"/>
</svg>
