<svg width="35" height="43" viewBox="0 0 35 43" fill="none" xmlns="http://www.w3.org/2000/svg">
<path d="M24.6663 4.45243C25.1303 3.92652 25.1505 3.18422 24.7115 2.79445C24.2724 2.40467 23.5404 2.51503 23.0763 3.04093C22.6123 3.56684 22.5921 4.30914 23.0311 4.69891C23.4702 5.08868 24.2023 4.97833 24.6663 4.45243Z" fill="white"/>
<path d="M23.6713 5.52505C23.2936 5.52876 22.9277 5.39345 22.6428 5.14474C21.9623 4.54014 21.9603 3.42456 22.6428 2.65613C22.9466 2.3049 23.3635 2.07163 23.821 1.99692C24.0482 1.95904 24.2809 1.97172 24.5027 2.03407C24.7245 2.09642 24.9298 2.20692 25.1043 2.35773C25.7848 2.96233 25.7868 4.07791 25.1043 4.84634C24.7981 5.19956 24.3773 5.43301 23.9163 5.50555C23.8352 5.51793 23.7533 5.52445 23.6713 5.52505ZM24.0738 3.15541C24.046 3.1533 24.018 3.1533 23.9902 3.15541C23.8053 3.18969 23.6377 3.2868 23.5158 3.43041C23.2747 3.70345 23.23 4.08962 23.4186 4.25734C23.4652 4.29342 23.519 4.31905 23.5764 4.33251C23.6337 4.34597 23.6933 4.34694 23.751 4.33536C23.936 4.30108 24.1035 4.20397 24.2255 4.06036C24.4666 3.78732 24.5113 3.40115 24.3227 3.23343C24.2518 3.1781 24.1634 3.15039 24.0738 3.15541Z" fill="white"/>
<path d="M12.0864 4.98453C12.5026 4.57035 12.4403 3.8304 11.9473 3.33182C11.4542 2.83323 10.717 2.76482 10.3008 3.179C9.88455 3.59319 9.94684 4.33314 10.4399 4.83172C10.933 5.33031 11.6701 5.39872 12.0864 4.98453Z" fill="white"/>
<path d="M11.3988 5.8046C11.1465 5.80092 10.8975 5.74734 10.6659 5.64694C10.4344 5.54653 10.2249 5.40128 10.0494 5.2195C9.34554 4.50763 9.28332 3.4174 9.91328 2.79135C10.0749 2.63453 10.2689 2.51533 10.4817 2.44218C10.6944 2.36904 10.9205 2.34376 11.144 2.36813C11.5968 2.41737 12.0179 2.62444 12.334 2.95322C13.0378 3.66509 13.1 4.75532 12.4701 5.38138C12.3281 5.51918 12.1603 5.6275 11.9765 5.70012C11.7926 5.77275 11.5963 5.80825 11.3988 5.8046ZM10.9866 3.46421C10.8748 3.45967 10.7658 3.49963 10.6832 3.57538C10.4888 3.77041 10.551 4.17413 10.8252 4.45107C11.0993 4.72802 11.4999 4.79823 11.6982 4.60125C11.8965 4.40426 11.8304 4.0025 11.5562 3.72555C11.4199 3.58256 11.2386 3.49097 11.0429 3.46616L10.9866 3.46421Z" fill="white"/>
<path d="M11.3365 15.6641C11.3365 15.6641 10.7104 13.7704 10.2321 13.2282C9.93655 12.8927 9.03827 12.8947 9.12382 13.6378C9.23659 14.6285 9.83156 15.9957 9.97155 16.3389" fill="white"/>
<path d="M9.96965 16.9275C9.85306 16.9277 9.73905 16.8929 9.64236 16.8276C9.54566 16.7622 9.47072 16.6693 9.42719 16.5608L9.38441 16.4555C9.18998 15.9738 8.65334 14.7002 8.54057 13.7036C8.50255 13.4667 8.54323 13.2238 8.65636 13.0123C8.76949 12.8009 8.94879 12.6326 9.16664 12.5334C9.41907 12.4266 9.69776 12.3986 9.96626 12.4533C10.2348 12.5079 10.4806 12.6425 10.6716 12.8396C11.2004 13.4403 11.7818 15.1468 11.8926 15.4784C11.9416 15.6263 11.93 15.7877 11.8603 15.9271C11.7907 16.0664 11.6687 16.1723 11.5212 16.2214C11.3738 16.2706 11.2129 16.2589 11.0739 16.1891C10.935 16.1192 10.8294 15.9969 10.7804 15.8489C10.5374 15.1176 10.0766 13.9513 9.80827 13.6256C9.77982 13.611 9.74874 13.6024 9.71689 13.6002C9.81994 14.4233 10.3002 15.57 10.4752 16.005L10.5218 16.1161C10.5592 16.2054 10.5738 16.3026 10.5645 16.399C10.5552 16.4953 10.5221 16.5879 10.4684 16.6683C10.4146 16.7487 10.3418 16.8145 10.2564 16.8597C10.1711 16.9049 10.0759 16.9282 9.97938 16.9275H9.96965Z" fill="white"/>
<path d="M10.6389 5.08948C13.2112 0.356051 17.5549 0.609593 20.0669 1.29025C22.5382 1.96117 25.2778 3.91734 25.8611 9.45235C26.2188 12.844 25.4061 14.3184 25.2778 19.9607C25.1494 25.2831 24.6536 26.7615 22.3613 29.016C20.4869 30.8532 15.1672 30.6621 13.1043 28.665C10.8897 26.5196 10.3317 25.7395 10.2714 20.458C10.18 13.8854 8.88313 8.32507 10.6389 5.08948Z" fill="white"/>
<path d="M18.1782 30.8716C18.0421 30.8716 17.9041 30.8716 17.7641 30.8716C15.6506 30.7935 13.749 30.1285 12.6796 29.0948C10.2531 26.7544 9.72814 25.7481 9.66786 20.4705C9.64453 18.45 9.50648 16.5562 9.37427 14.7229C9.08262 10.674 8.82791 7.18295 10.1228 4.81136C11.34 2.56458 13.0588 1.1467 15.2287 0.586958C17.138 0.0954774 18.9968 0.388026 20.2217 0.71568C21.7392 1.10945 23.0977 1.96523 24.1104 3.16528C25.3761 4.66508 26.1578 6.75973 26.4436 9.38876C26.638 11.3001 26.4864 12.638 26.2841 14.3348C26.0459 16.2056 25.9044 18.0876 25.8603 19.9732C25.7281 25.4438 25.205 27.0353 22.7493 29.4342C21.8238 30.345 20.1342 30.8716 18.1782 30.8716ZM17.383 1.49581C15.2831 1.49581 12.8216 2.28959 11.1611 5.36135C10.0315 7.43649 10.2745 10.7676 10.5525 14.6234C10.6867 16.4743 10.8247 18.3875 10.8481 20.4432C10.9064 25.5335 11.4042 26.2044 13.5021 28.2347C15.3239 29.99 20.2936 30.2045 21.9424 28.5877C24.0209 26.5516 24.5595 25.3209 24.6917 19.9381C24.7385 18.0152 24.8845 16.0962 25.1292 14.1885C25.3236 12.5034 25.4734 11.2864 25.2867 9.50773C24.8414 5.27163 23.0352 2.69526 19.9223 1.85077C19.095 1.6213 18.2413 1.50196 17.383 1.49581Z" fill="white"/>
<path d="M17.7651 41.3887C17.6425 41.3887 17.5247 41.3405 17.4371 41.2545C17.3495 41.1684 17.299 41.0514 17.2965 40.9284L17.244 38.5334L17.2032 36.1365C17.2032 35.8966 17.2032 35.6586 17.1896 35.4207C17.1779 34.8668 17.1643 34.2934 17.174 33.7239C17.1857 33.0062 17.209 32.1637 17.2751 31.3016C17.2844 31.1838 17.3376 31.0739 17.424 30.9936C17.5105 30.9134 17.6239 30.8688 17.7417 30.8687H17.767C17.8848 30.8682 17.9985 30.9124 18.0853 30.9923C18.1722 31.0721 18.2258 31.1819 18.2356 31.2997C18.3075 32.152 18.3328 33.0023 18.3484 33.722C18.362 34.2915 18.3484 34.8668 18.3484 35.4207C18.3484 35.6567 18.3484 35.8946 18.3367 36.1306L18.3075 38.5256L18.2667 40.9226C18.2647 41.0455 18.2147 41.1628 18.1274 41.2492C18.0402 41.3356 17.9227 41.3843 17.8001 41.3848H17.7748L17.7651 41.3887Z" fill="white"/>
<path d="M7.52935 41.7414C7.49337 41.7416 7.45749 41.7377 7.42241 41.7297H7.39908C7.27911 41.7017 7.17493 41.6276 7.10907 41.5232C7.04321 41.4188 7.02097 41.2926 7.04715 41.1719L7.66351 38.3264L8.29153 35.4828C8.35375 35.2 8.41596 34.9172 8.48596 34.6344C8.6279 33.9771 8.77567 33.2965 8.94288 32.6295C9.15481 31.785 9.41146 30.7864 9.72061 29.7976C9.75545 29.6834 9.83231 29.5868 9.9356 29.5274C10.0389 29.468 10.1608 29.4502 10.2767 29.4777H10.3C10.4159 29.5049 10.5171 29.5752 10.5832 29.6744C10.6493 29.7737 10.6752 29.8944 10.6558 30.0121C10.4886 31.0341 10.2767 32.0424 10.092 32.8947C9.9481 33.5676 9.777 34.2443 9.61367 34.8977C9.54368 35.1772 9.47433 35.4568 9.40563 35.7363L8.69206 38.5545L7.98432 41.3806C7.95988 41.4832 7.9017 41.5746 7.81917 41.6401C7.73664 41.7055 7.63456 41.7412 7.52935 41.7414Z" fill="white"/>
<path d="M27.306 42.4512C27.1957 42.451 27.089 42.4117 27.0047 42.3404C26.9204 42.269 26.8639 42.1701 26.8452 42.0611L26.2502 38.7456L25.6669 35.43C25.6189 35.1609 25.571 34.8917 25.523 34.6226C25.3752 33.7996 25.2216 32.9473 25.0953 32.1008V32.0872C25.0136 31.543 24.93 30.9813 24.8581 30.4255L24.7492 29.5908C24.7375 29.4874 24.7258 29.3957 24.7142 29.2982C24.6928 29.1168 24.6695 28.9277 24.652 28.7385C24.64 28.6197 24.6735 28.5008 24.7457 28.4059C24.8179 28.311 24.9234 28.2472 25.0408 28.2275H25.0642C25.1815 28.208 25.3019 28.2341 25.4008 28.3004C25.4998 28.3666 25.5699 28.4682 25.5969 28.5844C25.6397 28.7677 25.6786 28.953 25.7175 29.1324L25.7777 29.4133L25.943 30.2383C26.0538 30.798 26.1549 31.3578 26.2541 31.9019C26.4038 32.7425 26.5321 33.5948 26.6566 34.4217C26.698 34.6935 26.7395 34.9659 26.781 35.2389L27.2943 38.5642L27.7959 41.8934C27.8144 42.0159 27.7839 42.1408 27.7111 42.2408C27.6383 42.3409 27.529 42.4081 27.4071 42.4278H27.3837C27.3585 42.4378 27.3325 42.4456 27.306 42.4512Z" fill="white"/>
<path d="M9.78344 13.7581C9.78344 13.7581 7.33747 25.7312 0.973663 41.4761C0.973663 41.4761 5.01593 39.2703 7.77883 39.6331C11.2242 40.0855 13.711 38.576 15.8828 39.0811C18.8227 39.7637 19.8473 38.4258 22.4119 38.9231C24.9765 39.4205 26.1586 40.6472 28.2332 40.6589C31.5289 40.6784 33.829 41.6477 33.7687 41.5171C29.0362 31.2974 25.6414 11.7747 25.6414 11.7747L9.78344 13.7581Z" fill="white"/>
<path d="M33.7859 42.1183C33.5873 42.1047 33.3912 42.0654 33.2026 42.0013C31.5884 41.5226 29.916 41.2699 28.2329 41.2504C26.9788 41.2504 26.0319 40.8389 25.0286 40.4098C24.1582 40.0057 23.2451 39.7015 22.3066 39.5029C21.21 39.2903 20.4497 39.4425 19.5689 39.618C18.5676 39.813 17.4302 40.0451 15.7561 39.655C14.8442 39.4425 13.8118 39.6453 12.618 39.8793C11.2083 40.1543 9.61007 40.4644 7.71046 40.2187C6.67218 40.0822 5.23338 40.3435 3.54764 40.9715C2.76273 41.2639 1.99708 41.6059 1.25527 41.9954C1.14928 42.0549 1.02744 42.0796 0.90674 42.0663C0.786042 42.053 0.672503 42.0022 0.581959 41.921C0.491414 41.8398 0.428379 41.7324 0.401643 41.6135C0.374908 41.4947 0.385805 41.3705 0.432816 41.2582C3.03244 34.8199 5.28974 28.2479 7.19521 21.5697C8.58152 16.6822 9.20176 13.6729 9.20759 13.6416C9.23166 13.5209 9.29311 13.4108 9.38318 13.3271C9.47325 13.2434 9.58735 13.1904 9.70923 13.1755L25.575 11.192C25.7243 11.1728 25.8752 11.2121 25.9963 11.3019C26.1173 11.3917 26.199 11.5249 26.2244 11.6738C26.2575 11.8688 29.66 31.2394 34.307 41.2699C34.355 41.3733 34.3724 41.4883 34.3573 41.6013C34.3421 41.7144 34.295 41.8207 34.2214 41.9077C34.1705 41.9746 34.1044 42.0286 34.0288 42.0652C33.9531 42.1018 33.8699 42.12 33.7859 42.1183ZM21.2683 38.2176C21.6926 38.2184 22.1158 38.2602 22.5321 38.3425C23.5525 38.5552 24.5458 38.8823 25.4933 39.3176C26.4227 39.7077 27.2277 40.0568 28.2465 40.0627C29.7668 40.0753 31.28 40.2718 32.7535 40.6478C28.7345 31.255 25.7539 15.5491 25.1706 12.4168L10.2692 14.2911C10.0514 15.2799 9.42925 17.9967 8.32487 21.8759C7.1116 26.1549 5.06616 32.7275 2.07578 40.2967C3.5593 39.6511 5.95278 38.8027 7.85823 39.0524C9.56924 39.2767 11.0683 38.9841 12.3905 38.7247C13.6621 38.4751 14.8637 38.2411 16.0186 38.5102C17.4496 38.8418 18.3673 38.6584 19.3376 38.4653C19.9705 38.3183 20.6168 38.2373 21.2664 38.2235L21.2683 38.2176Z" fill="white"/>
<path d="M24.6663 4.45243C25.1303 3.92652 25.1505 3.18422 24.7115 2.79445C24.2724 2.40467 23.5404 2.51503 23.0763 3.04093C22.6123 3.56684 22.5921 4.30914 23.0311 4.69891C23.4702 5.08868 24.2023 4.97833 24.6663 4.45243Z" fill="#B1D7E8"/>
<path d="M24.6714 4.45871C24.4666 4.69764 24.196 4.87064 23.8937 4.95605C23.7375 4.99832 23.5736 5.003 23.4153 4.9697C23.2547 4.93609 23.1061 4.85923 22.9857 4.74736C22.8687 4.63445 22.7824 4.49349 22.7348 4.33779C22.69 4.18611 22.6748 4.02718 22.6901 3.86972C22.7208 3.55638 22.8433 3.25915 23.042 3.01548C23.2423 2.76395 23.5222 2.58851 23.8353 2.51815C23.9949 2.48419 24.1599 2.48419 24.3195 2.51815C24.4825 2.55176 24.6337 2.62814 24.7577 2.73949C24.8817 2.85084 24.974 2.99318 25.0253 3.152C25.0755 3.30665 25.0895 3.47083 25.0661 3.63178C25.0178 3.94016 24.8806 4.22762 24.6714 4.45871ZM24.6597 4.44896C24.8599 4.21997 24.9717 3.92658 24.9747 3.62203C24.9793 3.47976 24.9536 3.33814 24.8993 3.20664C24.8449 3.07513 24.7633 2.95677 24.6597 2.85945C24.5504 2.76962 24.4224 2.70548 24.2851 2.67173C24.1479 2.63798 24.0048 2.63548 23.8664 2.66442C23.5764 2.72108 23.3109 2.86616 23.1062 3.07984C22.8986 3.2945 22.7727 3.57541 22.7504 3.87362C22.7405 4.02037 22.7651 4.16741 22.8221 4.3029C22.8792 4.4384 22.9672 4.55857 23.079 4.65375C23.5145 5.02431 24.2592 4.91509 24.6597 4.44896Z" fill="black"/>
<path d="M9.78308 13.7587C9.78308 13.7587 7.3371 25.7317 0.973297 41.4766C0.973297 41.4766 5.01557 39.2708 7.77847 39.6336C11.2238 40.086 13.7106 38.5765 15.8825 39.0816C18.8223 39.7642 19.847 38.4263 22.4115 38.9237C24.9761 39.421 26.1583 40.6477 28.2329 40.6594C31.5285 40.6789 33.8287 41.6483 33.7684 41.5176C29.0359 31.2979 25.9658 13.4954 25.9658 13.4954L9.78308 13.7587Z" fill="#FF5F00"/>
<path d="M11.5523 26.9268C11.5523 26.9268 11.2568 28.9005 11.4396 29.6006C11.5523 30.0336 12.3534 30.4393 12.6062 29.7372C12.9523 28.801 13.0378 27.3129 13.0689 26.9424" fill="#CCC7BA"/>
<path d="M11.5622 26.9316C11.5427 27.5167 11.5039 28.1155 11.498 28.7006C11.498 28.8468 11.498 28.9931 11.498 29.1355C11.5007 29.2756 11.515 29.4152 11.5408 29.5529C11.577 29.6741 11.6469 29.7825 11.7423 29.8654C11.8377 29.9483 11.9546 30.0022 12.0794 30.0209C12.139 30.0305 12.2001 30.0253 12.2573 30.0059C12.3146 29.9866 12.3663 29.9536 12.408 29.9098C12.4524 29.8629 12.4885 29.8088 12.5149 29.7498C12.5421 29.6894 12.5655 29.6153 12.5907 29.5548C12.6825 29.2765 12.7559 28.9924 12.8105 28.7045C12.9229 28.124 13.0053 27.5381 13.0574 26.9492H13.0807C13.0601 27.5424 13.0088 28.1341 12.9271 28.722C12.8815 29.0179 12.8166 29.3104 12.7327 29.5977C12.7074 29.6699 12.6899 29.7401 12.6607 29.8161C12.6303 29.8938 12.5869 29.9657 12.5324 30.0287C12.4741 30.0952 12.4007 30.1467 12.3185 30.1789C12.2359 30.2094 12.1477 30.2214 12.0599 30.214C11.8921 30.1944 11.7335 30.1267 11.603 30.019C11.5359 29.9679 11.4763 29.9075 11.4261 29.8396C11.4002 29.8046 11.3774 29.7674 11.358 29.7284C11.3384 29.6879 11.3234 29.6454 11.3133 29.6016C11.2528 29.3001 11.2351 28.9915 11.2608 28.685C11.2783 28.3846 11.3114 28.0882 11.3561 27.7937C11.4008 27.4992 11.4591 27.2086 11.5311 26.918L11.5622 26.9316Z" fill="black"/>
<path d="M22.3613 27.0668C22.3613 27.0668 22.4216 29.06 22.7269 29.7173C22.9213 30.1229 23.7749 30.3784 23.9071 29.6412C24.0801 28.666 23.9071 27.1779 23.8662 26.8093" fill="#CCC7BA"/>
<path d="M22.3806 27.0646C22.4661 27.6497 22.5342 28.2348 22.6314 28.8199C22.6567 28.9642 22.6839 29.1066 22.715 29.247C22.7426 29.3846 22.7816 29.5196 22.8317 29.6507C22.8888 29.7635 22.9767 29.8577 23.0851 29.9223C23.1936 29.9868 23.3181 30.0191 23.4441 30.0154C23.5044 30.0141 23.5635 29.9982 23.6164 29.969C23.6692 29.9398 23.7142 29.8981 23.7474 29.8477C23.7826 29.7933 23.8082 29.7333 23.8233 29.6702C23.8408 29.6058 23.8486 29.5298 23.8622 29.4596C23.9033 29.1694 23.9254 28.8769 23.9283 28.5839C23.936 27.9928 23.9133 27.4017 23.8602 26.813H23.8835C23.9685 27.4007 24.023 27.9924 24.0469 28.5858C24.0561 28.8852 24.0457 29.1849 24.0158 29.483C24.0041 29.559 24.0002 29.6292 23.9827 29.7112C23.9662 29.7931 23.936 29.8715 23.8933 29.9433C23.8485 30.0225 23.7851 30.0894 23.7086 30.1383C23.633 30.1826 23.5487 30.2099 23.4616 30.2182C23.2939 30.2316 23.1259 30.1964 22.9775 30.1168C22.9023 30.0788 22.8329 30.0302 22.7714 29.9725C22.7394 29.9426 22.7101 29.91 22.6839 29.875C22.6577 29.8392 22.6355 29.8006 22.6178 29.7599C22.5049 29.4744 22.4329 29.1744 22.4039 28.8686C22.3689 28.5702 22.3475 28.2738 22.3397 27.9754C22.332 27.677 22.3397 27.3805 22.3572 27.0821L22.3806 27.0646Z" fill="black"/>
<path d="M12.0864 4.98453C12.5026 4.57035 12.4403 3.8304 11.9473 3.33182C11.4542 2.83323 10.717 2.76482 10.3008 3.179C9.88455 3.59319 9.94684 4.33314 10.4399 4.83172C10.933 5.33031 11.6701 5.39872 12.0864 4.98453Z" fill="#B1D7E8"/>
<path d="M11.9507 3.32719C12.1746 3.54615 12.3294 3.82623 12.396 4.13267C12.4279 4.29315 12.4213 4.45896 12.3765 4.61635C12.3327 4.7749 12.2467 4.91851 12.1277 5.03177C12.0077 5.14146 11.8618 5.21866 11.7038 5.25605C11.5499 5.29082 11.3908 5.29546 11.2352 5.26971C10.9258 5.21843 10.6383 5.07663 10.4089 4.86209C10.1707 4.64414 10.0143 4.3509 9.96557 4.03125C9.94127 3.86911 9.95121 3.70366 9.99474 3.54562C10.0388 3.38466 10.1247 3.23829 10.2435 3.12146C10.3624 3.00463 10.51 2.9215 10.6714 2.88056C10.8286 2.84027 10.9929 2.83693 11.1516 2.87081C11.4569 2.94091 11.7348 3.09964 11.9507 3.32719ZM11.941 3.33694C11.7259 3.12164 11.441 2.99085 11.138 2.96833C10.997 2.95461 10.8548 2.97118 10.7207 3.01691C10.5866 3.06264 10.4637 3.1365 10.3603 3.23357C10.263 3.33657 10.19 3.4601 10.1466 3.5951C10.1032 3.73009 10.0905 3.87313 10.1095 4.0137C10.1484 4.30487 10.2753 4.5771 10.473 4.79383C10.6744 5.02144 10.9502 5.16944 11.2508 5.2112C11.3965 5.23082 11.5447 5.21581 11.6835 5.16736C11.8223 5.11891 11.9478 5.03839 12.0499 4.9323C12.4446 4.52273 12.3765 3.77186 11.9391 3.33889L11.941 3.33694Z" fill="black"/>
<path d="M24.1906 36.1272H23.8386L23.6812 35.8697C23.4141 36.039 23.1045 36.1283 22.7887 36.1272C22.0965 36.1272 21.7446 35.8268 21.7446 35.2339C21.7446 34.641 22.1335 34.3251 22.9229 34.3251C23.1491 34.325 23.3752 34.34 23.5995 34.37V34.1632C23.5995 33.8726 23.3701 33.7302 22.8976 33.7302C22.6038 33.732 22.3118 33.776 22.0304 33.8609L21.9682 33.8804V33.3811L22.0032 33.3714C22.2934 33.284 22.5946 33.2387 22.8976 33.2368C23.7531 33.2368 24.1886 33.545 24.1886 34.1535V36.1291L24.1906 36.1272ZM22.9248 34.8244C22.5359 34.8244 22.3415 34.957 22.3415 35.2281C22.3415 35.4992 22.4854 35.6318 22.7965 35.6318C23.087 35.6397 23.3722 35.5528 23.6092 35.3841V34.8712C23.3824 34.8399 23.1537 34.8242 22.9248 34.8244Z" fill="white"/>
<path d="M9.19698 36.1298H8.61368V34.3199C8.6149 34.1734 8.55982 34.0321 8.45988 33.9253C8.35995 33.8186 8.22284 33.7545 8.07704 33.7465H8.04594C7.76171 33.752 7.49037 33.8664 7.28765 34.0663V36.1239H6.70435V32.1492H6.99988C7.07569 32.1492 7.14839 32.1794 7.20199 32.2331C7.25559 32.2869 7.2857 32.3598 7.2857 32.4359V33.4812C7.52447 33.3112 7.81153 33.223 8.10427 33.2296C8.8295 33.2296 9.19504 33.5963 9.19504 34.3199V36.122L9.19698 36.1298Z" fill="white"/>
<path d="M12.045 36.1272H11.6931L11.5356 35.8697C11.2692 36.0386 10.9603 36.1279 10.6451 36.1272C9.95294 36.1272 9.60101 35.8268 9.60101 35.2339C9.60101 34.641 9.98988 34.3251 10.7793 34.3251C11.0056 34.325 11.2316 34.34 11.4559 34.37V34.1632C11.4559 33.8726 11.2265 33.7302 10.754 33.7302C10.4602 33.732 10.1682 33.776 9.88683 33.8609L9.82461 33.8804V33.3811L9.85961 33.3714C10.1498 33.284 10.451 33.2387 10.754 33.2368C11.6095 33.2368 12.045 33.545 12.045 34.1535V36.1291V36.1272ZM10.7793 34.8244C10.3904 34.8244 10.196 34.957 10.196 35.2281C10.196 35.4992 10.3399 35.6318 10.651 35.6318C10.9415 35.6399 11.2267 35.5529 11.4637 35.3841V34.8712C11.2369 34.8399 11.0082 34.8242 10.7793 34.8244Z" fill="white"/>
<path d="M14.7413 36.1296H12.4684V35.6908L12.48 35.6771L14.0977 33.7268H12.5228V33.2295H14.7957V33.6956L14.7841 33.7093L13.1878 35.6596H14.7432V36.1316L14.7413 36.1296Z" fill="white"/>
<path d="M16.5277 36.1291C15.5439 36.1291 15.0442 35.6318 15.0442 34.6508C15.0442 33.7127 15.4914 33.2368 16.3741 33.2368C17.1946 33.2368 17.6107 33.6503 17.6107 34.4655C17.6105 34.5875 17.6027 34.7093 17.5873 34.8302V34.8731H15.643C15.6625 35.3822 15.9716 35.6318 16.5899 35.6318C16.8702 35.6356 17.1496 35.6002 17.4201 35.5265L17.4824 35.5089V36.016L17.4474 36.0258C17.1471 36.1028 16.8375 36.1376 16.5277 36.1291ZM15.6372 34.3739H17.039C17.0138 33.9467 16.796 33.7381 16.3741 33.7381C15.9522 33.7381 15.678 33.937 15.6333 34.3641L15.6372 34.3739Z" fill="white"/>
<path d="M18.685 36.1298H18.1017V32.1492H18.4051C18.4809 32.1492 18.5536 32.1794 18.6072 32.2331C18.6608 32.2869 18.6909 32.3598 18.6909 32.4359V36.1298H18.685Z" fill="white"/>
<path d="M20.6465 36.1292C19.6276 36.1292 19.1124 35.6241 19.1124 34.6294C19.1124 33.7049 19.6296 33.2369 20.6465 33.2369C20.9002 33.2355 21.1533 33.263 21.4009 33.3188H21.4398V33.82L21.3795 33.8064C21.1304 33.7519 20.8761 33.7257 20.6212 33.7283C20.0029 33.7283 19.7015 34.0209 19.7015 34.6235C19.7015 35.2984 20.0029 35.626 20.6212 35.626C20.8761 35.6286 21.1304 35.6025 21.3795 35.548L21.4398 35.5343V36.0356H21.4009C21.1537 36.0952 20.9007 36.1266 20.6465 36.1292Z" fill="white"/>
<path d="M25.7928 36.1272C25.4533 36.1269 25.1153 36.0816 24.7876 35.9926L24.7507 35.9829V35.4524L24.8148 35.4738C25.1287 35.5771 25.4567 35.6304 25.787 35.6318C26.4034 35.6318 26.4034 35.3685 26.4034 35.2827C26.4034 35.1442 26.3606 34.959 25.9892 34.959H25.6003C24.9684 34.959 24.6496 34.6645 24.6496 34.0852C24.6496 33.506 25.0559 33.2368 25.857 33.2368C26.1952 33.2373 26.5319 33.2826 26.8583 33.3714L26.8953 33.3811V33.9116L26.8311 33.8902C26.5173 33.7868 26.1893 33.7335 25.8589 33.7322C25.2134 33.7322 25.2134 33.9955 25.2134 34.0813C25.2134 34.3017 25.3359 34.4051 25.6023 34.4051H25.9912C26.6581 34.4051 26.9944 34.6996 26.9944 35.2788C26.9944 35.858 26.592 36.1272 25.7928 36.1272Z" fill="white"/>
<path d="M28.705 36.1292H28.1936C27.6959 36.1292 27.4431 35.8601 27.4431 35.3277V32.7922H27.832L27.9389 33.2447H28.703V33.742H28.0264V35.3023C28.0264 35.5363 28.1178 35.6436 28.3142 35.6436H28.703V36.1409L28.705 36.1292Z" fill="white"/>
<path opacity="0.15" d="M11.206 4.0541C11.206 4.0541 10.5915 3.80251 10.3543 3.95463C10.248 4.01387 10.1537 4.09259 10.0763 4.18672C10.0763 4.18672 10.3193 5.00586 10.9376 5.15213C11.5559 5.29841 11.206 4.0541 11.206 4.0541Z" fill="black"/>
<path opacity="0.15" d="M23.9006 3.67334C23.9006 3.67334 24.5131 3.41394 24.7522 3.56412C24.8591 3.62257 24.9541 3.70064 25.0322 3.79426C25.0322 3.79426 24.7989 4.61534 24.1825 4.76942C23.5662 4.92349 23.9006 3.67334 23.9006 3.67334Z" fill="black"/>
<path d="M11.3336 4.54626C11.5762 4.47666 11.7155 4.21875 11.6446 3.9702C11.5738 3.72166 11.3196 3.57659 11.077 3.64619C10.8344 3.71579 10.6951 3.9737 10.766 4.22225C10.8369 4.4708 11.091 4.61586 11.3336 4.54626Z" fill="black"/>
<path d="M24.1279 4.12311C24.3325 3.97489 24.376 3.68486 24.2251 3.4753C24.0742 3.26573 23.786 3.216 23.5814 3.36421C23.3769 3.51242 23.3334 3.80245 23.4843 4.01202C23.6352 4.22158 23.9233 4.27132 24.1279 4.12311Z" fill="black"/>
<path d="M10.6389 5.08948C13.2112 0.356051 17.5549 0.609593 20.0669 1.29025C22.5382 1.96117 25.2778 3.91734 25.8611 9.45235C26.2188 12.844 25.4061 14.3184 25.2778 19.9607C25.1494 25.2831 24.6536 26.7615 22.3613 29.016C20.4869 30.8532 15.1672 30.6621 13.1043 28.665C10.8897 26.5196 10.3317 25.7395 10.2714 20.458C10.18 13.8854 8.88313 8.32507 10.6389 5.08948Z" fill="#B1D7E8"/>
<path d="M10.6298 5.08048C11.0058 4.37244 11.4725 3.71677 12.0181 3.13016C12.5666 2.54584 13.2094 2.05856 13.9196 1.68887C14.6329 1.32377 15.4016 1.07992 16.1945 0.967254C16.9876 0.857099 17.7919 0.853164 18.586 0.955552C18.983 1.00457 19.377 1.07554 19.7662 1.16814C20.1564 1.25774 20.5398 1.37506 20.9134 1.5192C21.6651 1.80745 22.3612 2.22452 22.9705 2.7518C23.5788 3.28392 24.0951 3.91326 24.4987 4.61435C24.7002 4.96217 24.8782 5.32314 25.0315 5.69483C25.1868 6.06576 25.3205 6.44541 25.432 6.83187C25.5487 7.22193 25.6265 7.612 25.7178 8.00206C25.8092 8.39213 25.8578 8.79389 25.9006 9.19176C25.9968 9.98881 26.0306 10.7922 26.0017 11.5946C25.9726 12.3961 25.8753 13.1919 25.7762 13.9856C25.677 14.7794 25.5817 15.5713 25.502 16.367C25.4651 16.7571 25.432 17.1627 25.4106 17.5625C25.3893 17.9624 25.3659 18.3602 25.3484 18.76C25.3173 19.5577 25.3076 20.3573 25.2745 21.157C25.2415 21.9566 25.1968 22.7562 25.1015 23.552C25.0183 24.3489 24.8461 25.134 24.5882 25.8924C24.4509 26.2714 24.2805 26.6376 24.0788 26.9865C23.874 27.333 23.6425 27.6629 23.3866 27.9734C23.1319 28.2854 22.8597 28.5779 22.5777 28.8627C22.5058 28.9329 22.4378 29.0051 22.3639 29.0753C22.2902 29.1443 22.213 29.2094 22.1325 29.2703C21.9722 29.3944 21.8018 29.5046 21.6231 29.5999C20.9021 29.9639 20.1203 30.1913 19.3171 30.2708C18.5195 30.3655 17.7136 30.3661 16.9158 30.2728C16.1153 30.1848 15.3303 29.9879 14.5826 29.6877C14.2081 29.5317 13.8515 29.3355 13.5191 29.1026C13.3527 28.9846 13.1954 28.8542 13.0486 28.7125C12.9047 28.5734 12.7615 28.4343 12.6189 28.2952C12.335 28.0143 12.055 27.7257 11.7945 27.4175C11.5315 27.1102 11.3003 26.7769 11.1042 26.4228C10.9114 26.0663 10.7582 25.6895 10.6473 25.2995C10.5369 24.9116 10.4524 24.5167 10.3946 24.1176C10.2896 23.322 10.2306 22.521 10.2176 21.7187C10.206 21.3189 10.2021 20.919 10.2021 20.5192C10.2021 20.1194 10.2021 19.7196 10.1826 19.3217C10.1398 17.7244 10.031 16.1291 9.92013 14.5337C9.80931 12.9383 9.69653 11.3449 9.7082 9.7437C9.71184 8.94285 9.77684 8.14346 9.90263 7.35261C10.0176 6.56 10.2634 5.79213 10.6298 5.08048ZM10.6434 5.08048C10.2761 5.79314 10.0303 6.56245 9.91624 7.35651C9.79576 8.14647 9.73596 8.94455 9.73737 9.7437C9.72764 11.343 9.85986 12.9383 9.97652 14.5317C10.0932 16.1251 10.2196 17.7205 10.274 19.3198C10.3284 20.919 10.3168 22.5222 10.5404 24.0981C10.5951 24.4932 10.6763 24.8841 10.7834 25.2683C10.8916 25.6476 11.0409 26.0138 11.2287 26.3604C11.6344 27.0416 12.1345 27.6615 12.7141 28.2015C12.8554 28.342 12.9974 28.4817 13.14 28.6209C13.2827 28.7564 13.4354 28.8809 13.5969 28.9934C13.9205 29.218 14.2673 29.4069 14.6313 29.557C15.3648 29.8551 16.1353 30.0519 16.9217 30.1421C17.7085 30.2394 18.504 30.244 19.2918 30.1558C19.6857 30.1111 20.0757 30.0367 20.4584 29.9334C20.8392 29.8322 21.2077 29.689 21.557 29.5063C21.7296 29.4144 21.8941 29.3081 22.0489 29.1884C22.1269 29.1275 22.2015 29.0624 22.2725 28.9934C22.3444 28.9271 22.4144 28.8549 22.4844 28.7847C22.7663 28.5038 23.0386 28.2132 23.2894 27.907C23.5439 27.6005 23.774 27.2745 23.9777 26.9319C24.178 26.59 24.3478 26.2311 24.4851 25.8592C24.7455 25.1057 24.9203 24.3252 25.0062 23.5325C25.0568 23.1424 25.0918 22.7387 25.1209 22.3408C25.1501 21.943 25.1734 21.5431 25.189 21.1453C25.2045 20.7474 25.2182 20.3476 25.2298 19.9478C25.2415 19.548 25.257 19.1481 25.2784 18.7483C25.3154 17.9487 25.3795 17.151 25.4495 16.3553C25.5195 15.5596 25.6148 14.7638 25.6984 13.97C25.782 13.1763 25.8676 12.3805 25.8928 11.5829C25.8928 11.3878 25.8928 11.1928 25.8928 10.9861V10.6877C25.8928 10.5882 25.8928 10.4926 25.8792 10.3893L25.8598 10.0987C25.8598 9.99919 25.8423 9.90363 25.8345 9.80026C25.817 9.60523 25.7995 9.41019 25.7742 9.21516C25.6836 8.42373 25.5288 7.64101 25.3115 6.87478C25.2037 6.49244 25.0738 6.11669 24.9226 5.74944C24.7729 5.38191 24.5988 5.02485 24.4015 4.68067C24.0074 3.9909 23.5045 3.36979 22.9122 2.84151C22.3128 2.31258 21.6258 1.8928 20.8823 1.60111C20.5134 1.45466 20.1346 1.33474 19.7487 1.24225C19.3642 1.14727 18.9748 1.0737 18.5821 1.02186C17.7936 0.916336 16.9947 0.916336 16.2062 1.02186C14.6117 1.22222 13.1369 1.974 12.0356 3.14771C11.4893 3.73036 11.0213 4.38208 10.6434 5.08633V5.08048Z" fill="black"/>
<path opacity="0.4" d="M17.9499 27.5021C20.4831 27.5021 22.5366 24.563 22.5366 20.9373C22.5366 17.3117 20.4831 14.3726 17.9499 14.3726C15.4168 14.3726 13.3633 17.3117 13.3633 20.9373C13.3633 24.563 15.4168 27.5021 17.9499 27.5021Z" fill="white"/>
<path d="M26.1174 14.3067C26.1174 14.3067 20.4788 15.0361 18.2506 15.0985C16.0224 15.161 11.6671 15.1473 9.80635 14.5447L9.76163 13.197C12.4288 14.2297 15.2633 14.7587 18.1223 14.7572C22.3706 14.7065 24.9022 13.3433 25.8996 13.002L26.1174 14.3067Z" fill="#FF5F00"/>
<path d="M14.0256 3.37152C16.0575 3.28571 17.0588 4.64508 17.0471 6.42573C17.0355 8.20637 15.655 9.66911 14.1015 9.65936C13.7076 9.65079 13.3193 9.56403 12.959 9.40407C12.5987 9.24412 12.2736 9.01416 12.0024 8.72746C11.7312 8.44076 11.5194 8.10302 11.3791 7.73372C11.2388 7.36443 11.1728 6.97092 11.185 6.5759C11.2025 4.79331 12.474 3.44369 14.0256 3.37152Z" fill="white"/>
<path d="M14.0252 3.36435C14.4257 3.34014 14.8274 3.38433 15.2132 3.49502C15.6008 3.6099 15.9546 3.81813 16.2437 4.10157C16.5316 4.38898 16.7526 4.73661 16.8911 5.11963C17.0269 5.50332 17.1011 5.90621 17.1108 6.31323C17.1482 7.14379 16.8905 7.9607 16.3837 8.61851C16.1268 8.94672 15.8092 9.22219 15.4484 9.42985C15.0837 9.63993 14.6761 9.76399 14.2566 9.79261C13.6282 9.81608 13.0081 9.64204 12.4832 9.29482C11.9582 8.9476 11.5544 8.44454 11.3284 7.85594C11.1802 7.47099 11.1063 7.06131 11.1106 6.64869C11.1121 6.24061 11.1825 5.83573 11.3187 5.45119C11.4551 5.06872 11.66 4.71445 11.9234 4.40582C12.1833 4.0967 12.5027 3.84332 12.8625 3.66079C13.2241 3.47875 13.6208 3.37761 14.0252 3.36435ZM14.0252 3.37995C13.6261 3.39748 13.2354 3.50126 12.88 3.6842C12.5253 3.86776 12.2112 4.12114 11.9564 4.42922C11.6992 4.73634 11.5014 5.08887 11.3731 5.46874C11.2479 5.84588 11.1867 6.24146 11.1923 6.63894C11.1959 7.04045 11.2758 7.43759 11.4275 7.80913C11.5793 8.17894 11.8035 8.5145 12.0867 8.79599C12.3695 9.07988 12.7081 9.30158 13.081 9.44697C13.454 9.59236 13.853 9.65827 14.2527 9.64048C14.6504 9.61626 15.0373 9.50154 15.3843 9.30503C15.7314 9.10858 16.0377 8.84704 16.2864 8.53465C16.7882 7.90617 17.0527 7.12014 17.0331 6.31518C17.0302 5.91727 16.9645 5.52233 16.8386 5.14499C16.7113 4.76512 16.4999 4.41907 16.2203 4.13277C15.9372 3.85007 15.5894 3.64116 15.2073 3.52427C14.8243 3.40923 14.4245 3.36042 14.0252 3.37995Z" fill="#0B2A35"/>
<path d="M15.2428 6.61268C15.3497 5.98848 14.932 5.39551 14.3097 5.28825C13.6874 5.18099 13.0962 5.60006 12.9893 6.22427C12.8824 6.84847 13.3001 7.44144 13.9224 7.5487C14.5447 7.65596 15.1359 7.23689 15.2428 6.61268Z" fill="black"/>
<path d="M20.9009 3.27675C18.8729 3.40742 18.0174 4.85261 18.2157 6.604C18.4141 8.35539 19.9365 9.6504 21.4803 9.47487C21.869 9.42652 22.2444 9.30142 22.5848 9.10679C22.9251 8.91216 23.2236 8.65185 23.4631 8.34088C23.7027 8.02992 23.8784 7.67445 23.9802 7.295C24.0821 6.91555 24.108 6.51962 24.0565 6.13007C23.8562 4.37673 22.4505 3.17728 20.9009 3.27675Z" fill="white"/>
<path d="M20.9011 3.28526C20.5051 3.3098 20.1161 3.40078 19.7501 3.55441C19.3862 3.7098 19.0653 3.95139 18.8149 4.25847C18.5716 4.56844 18.4039 4.93106 18.3249 5.3175C18.2454 5.70229 18.2283 6.09744 18.2743 6.48769C18.3523 7.26594 18.7046 7.99073 19.2679 8.53163C19.5428 8.80067 19.867 9.01391 20.2226 9.15963C20.5721 9.30706 20.9502 9.37371 21.3289 9.35467C21.708 9.33313 22.0786 9.23355 22.4177 9.06212C22.7582 8.88989 23.0604 8.65041 23.3063 8.35805C23.5531 8.06043 23.7393 7.71722 23.8546 7.34778C23.9722 6.9777 24.0178 6.58835 23.9887 6.201C23.941 5.40895 23.6071 4.66151 23.0496 4.09855C22.7664 3.82164 22.4305 3.60475 22.0619 3.46079C21.6918 3.32043 21.2961 3.2606 20.9011 3.28526ZM20.9011 3.26966C21.298 3.24476 21.6956 3.30459 22.0677 3.44519C22.4413 3.58748 22.7825 3.80371 23.071 4.081C23.3601 4.35972 23.5942 4.69053 23.7613 5.05616C23.9287 5.41989 24.0326 5.80977 24.0685 6.2088C24.1071 6.60766 24.0688 7.01026 23.9557 7.39459C23.8413 7.77915 23.6508 8.13666 23.3957 8.44582C23.1407 8.75268 22.8258 9.00392 22.4704 9.18405C22.1149 9.36417 21.7264 9.46936 21.3289 9.49314C20.9291 9.51082 20.5304 9.43817 20.1623 9.28055C19.794 9.12386 19.4593 8.89739 19.1765 8.61354C18.6066 8.04372 18.2584 7.28841 18.1946 6.48379C18.1566 6.08561 18.1828 5.68388 18.2724 5.2941C18.3614 4.90394 18.5376 4.53915 18.7876 4.22727C19.0438 3.91882 19.3707 3.67724 19.7404 3.5232C20.1098 3.37446 20.5015 3.28877 20.8992 3.26966H20.9011Z" fill="#0B2A35"/>
<path d="M21.2785 7.25387C21.8571 7.08953 22.1934 6.48582 22.0295 5.90545C21.8657 5.32507 21.2638 4.98781 20.6852 5.15214C20.1066 5.31648 19.7704 5.92019 19.9343 6.50057C20.0981 7.08095 20.6999 7.41821 21.2785 7.25387Z" fill="black"/>
<path opacity="0.05" d="M24.0293 6.37061C24.0293 6.37061 23.2924 8.11614 21.4744 8.1844C20.3248 8.20024 19.2018 7.83709 18.2779 7.15073C18.3276 7.64605 18.4948 8.12226 18.7654 8.53958C19.0359 8.9569 19.4022 9.30322 19.8334 9.54963C20.6811 10.0626 22.1666 9.93969 23.0065 9.21418C23.8465 8.48866 24.0934 7.847 24.0293 6.37061Z" fill="black"/>
<path d="M17.6496 11.7188L17.4319 11.724C17.288 11.7274 17.1742 11.8472 17.1776 11.9915L17.2027 13.0444C17.2062 13.1887 17.3256 13.3028 17.4694 13.2994L17.6871 13.2942C17.831 13.2907 17.9448 13.1709 17.9414 13.0266L17.9163 11.9738C17.9128 11.8295 17.7934 11.7153 17.6496 11.7188Z" fill="white"/>
<path d="M17.6945 13.2926H17.5642C17.5208 13.2951 17.4773 13.2951 17.4339 13.2926C17.3891 13.2874 17.3463 13.2712 17.3093 13.2453C17.2723 13.2194 17.2423 13.1847 17.222 13.1444C17.202 13.1029 17.1908 13.0577 17.1889 13.0117L17.1773 12.8811L17.152 12.6197C17.1345 12.4461 17.117 12.2726 17.1034 12.097V12.0327C17.1034 12.0093 17.1034 11.9937 17.1034 11.9605C17.1037 11.9008 17.1198 11.8423 17.1501 11.7908C17.1804 11.7388 17.2235 11.6954 17.2752 11.6647C17.3269 11.634 17.3855 11.617 17.4456 11.6153H17.5759C17.6244 11.612 17.6731 11.612 17.7217 11.6153C17.778 11.6282 17.8302 11.6548 17.8736 11.693C17.9171 11.7311 17.9504 11.7795 17.9706 11.8337C17.9815 11.8606 17.9887 11.8888 17.992 11.9176C17.9944 11.9435 17.9944 11.9697 17.992 11.9956V12.1263L17.9783 12.3876C17.9783 12.5632 17.9608 12.7367 17.955 12.9123C17.955 12.9552 17.955 12.9981 17.955 13.0429C17.9511 13.0874 17.9364 13.1303 17.9122 13.1678C17.8888 13.2048 17.8567 13.2355 17.8188 13.2573C17.7808 13.279 17.7382 13.2911 17.6945 13.2926ZM17.6945 13.2926C17.7379 13.2915 17.7804 13.2793 17.8179 13.2571C17.8553 13.2349 17.8865 13.2035 17.9083 13.1658C17.9302 13.1286 17.9416 13.0861 17.9414 13.0429C17.9414 13 17.9414 12.9571 17.9414 12.9123C17.9278 12.7387 17.9122 12.5651 17.8928 12.3896L17.8675 12.1282L17.8559 11.9976C17.8577 11.9801 17.8577 11.9624 17.8559 11.9449C17.852 11.9308 17.8468 11.9171 17.8403 11.904C17.8268 11.8787 17.8073 11.8571 17.7836 11.8411C17.7599 11.8252 17.7326 11.8153 17.7042 11.8123C17.6828 11.8123 17.6303 11.8123 17.5895 11.8123H17.4592C17.4318 11.8129 17.405 11.8202 17.3809 11.8334C17.3569 11.8467 17.3364 11.8655 17.3212 11.8883C17.3054 11.9117 17.2954 11.9384 17.292 11.9664C17.292 11.9781 17.292 12.0054 17.292 12.0249V12.0912C17.292 12.2648 17.2784 12.4403 17.2687 12.6158L17.2551 12.8772V13.0078C17.2504 13.0494 17.2558 13.0916 17.2706 13.1307C17.2872 13.1707 17.3138 13.2057 17.3479 13.2324C17.382 13.259 17.4223 13.2764 17.465 13.2828C17.5136 13.3004 17.6011 13.2926 17.6945 13.2926Z" fill="black"/>
<path opacity="0.05" d="M11.1768 6.73633C11.1768 6.73633 12.0285 8.50332 13.8484 8.50332C15.6683 8.50332 17.0798 7.26096 17.0798 7.26096C17.0798 7.26096 16.6054 9.39072 15.1666 9.94461C14.2917 10.282 12.8218 10.1611 12.2112 9.42582C11.5074 8.57938 11.1477 7.94943 11.1768 6.73633Z" fill="black"/>
<path d="M18.4539 11.6983L18.1974 11.7044C18.0642 11.7076 17.9589 11.8184 17.9621 11.952L17.9881 13.0438C17.9913 13.1774 18.1018 13.283 18.2349 13.2798L18.4915 13.2737C18.6246 13.2705 18.7299 13.1597 18.7268 13.0261L18.7007 11.9343C18.6975 11.8007 18.5871 11.6951 18.4539 11.6983Z" fill="white"/>
<path d="M18.4934 13.2713H18.2309C18.1854 13.2727 18.1403 13.2616 18.1006 13.2393C18.0609 13.2169 18.0279 13.1842 18.0054 13.1445C17.9828 13.1038 17.9701 13.0584 17.9684 13.0119L17.9568 12.8812L17.9315 12.6179C17.914 12.4424 17.8965 12.2669 17.8829 12.0913V11.9587V11.9197C17.8819 11.9048 17.8819 11.8898 17.8829 11.8748C17.8877 11.8444 17.8969 11.8149 17.9101 11.7871C17.9361 11.7304 17.9774 11.6821 18.0292 11.6477C18.0811 11.6132 18.1415 11.5939 18.2037 11.592H18.4681C18.5295 11.5943 18.5889 11.6138 18.6398 11.6483C18.6906 11.6828 18.7309 11.7308 18.7559 11.7871C18.7692 11.8135 18.7783 11.8418 18.7831 11.8709C18.7858 11.8975 18.7858 11.9243 18.7831 11.9509V12.0835L18.7695 12.3468C18.7695 12.5223 18.752 12.6998 18.7462 12.8754V13.0021C18.7475 13.0474 18.7375 13.0924 18.717 13.1328C18.6963 13.1745 18.6644 13.2096 18.6249 13.234C18.5854 13.2585 18.5398 13.2714 18.4934 13.2713ZM18.4934 13.2713C18.5266 13.2705 18.5592 13.2627 18.5891 13.2483C18.619 13.234 18.6455 13.2133 18.6669 13.1879C18.6882 13.1624 18.7039 13.1327 18.7129 13.1006C18.7219 13.0686 18.7239 13.035 18.7189 13.0021V12.8715C18.7053 12.6959 18.6898 12.5204 18.6703 12.3449L18.6451 12.0816L18.6334 11.9509C18.6354 11.9341 18.6354 11.917 18.6334 11.9002C18.629 11.8866 18.6231 11.8735 18.6159 11.8612C18.6016 11.8376 18.5813 11.8182 18.557 11.8052C18.5327 11.7921 18.5054 11.7859 18.4778 11.7871H18.2173C18.191 11.7876 18.1652 11.7951 18.1427 11.8088C18.1202 11.8225 18.1016 11.8419 18.089 11.8651C18.0832 11.8769 18.0786 11.8894 18.0754 11.9021C18.075 11.9086 18.075 11.9151 18.0754 11.9216V12.0796C18.0754 12.2552 18.0618 12.4307 18.052 12.6082L18.0384 12.8715V13.0041C18.0346 13.0355 18.0374 13.0674 18.0467 13.0977C18.0559 13.1279 18.0714 13.1559 18.0921 13.1798C18.1128 13.2037 18.1383 13.223 18.1669 13.2364C18.1955 13.2498 18.2266 13.257 18.2581 13.2576L18.4934 13.2713Z" fill="black"/>
<path opacity="0.1" d="M16.0767 11.0512C16.0767 11.0512 15.9639 11.0181 15.9561 11.6363C15.9484 12.2546 16.4889 12.5276 16.8661 12.6115C17.2433 12.6954 17.5719 12.2214 18.1396 12.3853C18.7074 12.5491 19.2732 12.6329 19.6037 12.1668C19.9342 11.7007 19.7593 10.8562 19.1915 10.8562C18.6238 10.8562 16.0767 11.0512 16.0767 11.0512Z" fill="black"/>
<path d="M16.8936 10.3452C16.8936 10.3452 16.0322 10.4934 16.0245 11.1253C16.0167 11.7572 16.5378 12.0049 16.9014 12.081C17.265 12.1571 17.5819 11.6909 18.1282 11.8528C18.6746 12.0147 19.219 12.1005 19.5379 11.6324C19.8568 11.1644 19.3959 10.3764 18.8476 10.3706L16.8936 10.3452Z" fill="#CCC7BA"/>
<path d="M16.8945 10.3578C16.7096 10.3936 16.535 10.4702 16.3832 10.582C16.3102 10.6324 16.2485 10.6974 16.202 10.7729C16.1555 10.8485 16.1251 10.9329 16.1129 11.0209C16.1098 11.1061 16.1183 11.1914 16.1382 11.2744C16.1559 11.3569 16.1853 11.4364 16.2257 11.5104C16.3119 11.658 16.437 11.7788 16.5873 11.8595C16.6648 11.9039 16.7461 11.9412 16.8304 11.9707C16.8711 11.9855 16.9126 11.9979 16.9548 12.0077C16.9947 12.014 17.0354 12.014 17.0754 12.0077C17.2533 11.9616 17.4281 11.9036 17.5984 11.8342C17.6925 11.8027 17.7908 11.7856 17.89 11.7834C17.9889 11.7839 18.0872 11.799 18.1817 11.8283C18.3617 11.8789 18.547 11.9077 18.7339 11.9141C18.9093 11.9243 19.0839 11.8823 19.2355 11.7932C19.3048 11.7479 19.3654 11.6904 19.4144 11.6235C19.4636 11.5607 19.4976 11.4873 19.5135 11.409C19.5395 11.2454 19.51 11.0779 19.4299 10.9331C19.3547 10.7841 19.2396 10.6592 19.0975 10.5723C19.0311 10.5316 18.9569 10.5057 18.8797 10.4962C18.8466 10.4962 18.7922 10.4962 18.7475 10.4962H18.6055C18.4111 10.4962 18.2264 10.4728 18.0359 10.4533C17.6567 10.3987 17.2737 10.3617 16.8945 10.3578ZM16.8945 10.3344C17.2834 10.3344 17.6548 10.309 18.0359 10.2817C18.2303 10.268 18.4247 10.2563 18.6094 10.2524H18.7533C18.8019 10.2524 18.8447 10.2524 18.905 10.2524C19.0178 10.2621 19.1272 10.296 19.2258 10.3519C19.4123 10.4618 19.5614 10.6256 19.6535 10.8219C19.7526 11.0183 19.7807 11.2429 19.7333 11.4577C19.7054 11.5659 19.6528 11.6661 19.5797 11.7503C19.5101 11.8309 19.4256 11.8971 19.3308 11.9453C19.1421 12.0358 18.9301 12.0651 18.7241 12.0292C18.5319 11.9995 18.3426 11.9532 18.1583 11.8907C17.9857 11.8238 17.7944 11.8238 17.6217 11.8907C17.5343 11.9248 17.4492 11.9645 17.367 12.0097C17.2802 12.0593 17.1883 12.0992 17.0929 12.1287C17.0397 12.1431 16.9845 12.149 16.9295 12.1462C16.8778 12.1413 16.8265 12.1328 16.7759 12.1208C16.677 12.1007 16.5805 12.07 16.4882 12.0292C16.2942 11.9412 16.1344 11.7919 16.0332 11.604C15.9854 11.5102 15.9551 11.4084 15.9437 11.3037C15.931 11.1988 15.9369 11.0925 15.9612 10.9897C15.9894 10.8872 16.0414 10.793 16.1129 10.7147C16.181 10.6408 16.2605 10.5783 16.3482 10.5294C16.5185 10.4366 16.7022 10.3709 16.8926 10.3344H16.8945Z" fill="black"/>
<path opacity="0.1" d="M17.1113 11.3314C16.5941 11.1832 16.1217 10.9901 16.075 11.2749C15.9992 11.7352 16.5397 12.0024 16.9033 12.0784C17.2669 12.1545 17.5838 11.6884 18.1302 11.8502C18.6765 12.0121 19.2209 12.0979 19.5398 11.6298C19.8587 11.1618 19.7012 10.838 19.2384 11.1306C18.7757 11.4231 17.6227 11.4777 17.1113 11.3314Z" fill="black"/>
<path d="M17.8184 11.0704C18.4013 11.0557 18.8662 10.7409 18.8568 10.3672C18.8475 9.99357 18.3673 9.70258 17.7844 9.71728C17.2015 9.73198 16.7366 10.0468 16.746 10.4204C16.7553 10.7941 17.2355 11.0851 17.8184 11.0704Z" fill="black"/>
<path d="M11.4733 15.5544C11.4733 15.5544 10.7422 13.6997 10.2328 13.1848C9.91779 12.8669 9.02145 12.9195 9.14978 13.6568C9.31894 14.6319 9.98779 15.9718 10.1472 16.3072" fill="#CCC7BA"/>
<path d="M11.472 15.5592C11.192 15.0346 10.9314 14.5041 10.6417 13.999C10.5698 13.8722 10.4959 13.7474 10.4181 13.6245C10.346 13.5047 10.2641 13.3912 10.1731 13.2851C10.0812 13.1984 9.9666 13.1397 9.84266 13.1158C9.71871 13.092 9.59056 13.1041 9.47319 13.1506C9.41706 13.1725 9.36706 13.2077 9.32745 13.2532C9.28784 13.2987 9.25979 13.3532 9.2457 13.4119C9.23068 13.4758 9.22673 13.5417 9.23403 13.6069C9.23403 13.6733 9.25736 13.7474 9.26903 13.8176C9.32888 14.1046 9.40748 14.3873 9.5043 14.664C9.69697 15.2225 9.91827 15.7706 10.1673 16.3062L10.1459 16.3159C9.86745 15.7917 9.61629 15.2534 9.39347 14.703C9.2835 14.4246 9.19192 14.1393 9.11932 13.8488C9.10376 13.7727 9.08432 13.7045 9.07265 13.6245C9.05851 13.5419 9.05851 13.4575 9.07265 13.3749C9.09041 13.2885 9.1284 13.2076 9.18348 13.1389C9.23973 13.0711 9.31008 13.0165 9.38958 12.9789C9.54283 12.9089 9.71289 12.8846 9.87955 12.9087C9.96329 12.9191 10.0451 12.9415 10.1226 12.975C10.1626 12.9924 10.201 13.0133 10.2373 13.0374C10.2741 13.0622 10.308 13.091 10.3384 13.1233C10.5415 13.3536 10.7111 13.6117 10.842 13.8897C10.9762 14.1569 11.0967 14.43 11.2036 14.7089C11.3106 14.9878 11.4078 15.2686 11.4895 15.5553L11.472 15.5592Z" fill="black"/>
<path d="M25.5258 15.7041C25.5258 15.7041 26.356 17.516 26.3755 18.2395C26.3871 18.6861 25.73 19.3005 25.2867 18.6978C24.7034 17.8963 24.1978 16.4901 24.0676 16.1429" fill="#CCC7BA"/>
<path d="M25.5357 15.699C25.686 15.959 25.8234 16.223 25.9479 16.4908C26.0723 16.7586 26.1857 17.0349 26.2881 17.3197C26.3945 17.6068 26.4599 17.9075 26.4826 18.2129C26.4875 18.257 26.4875 18.3015 26.4826 18.3456C26.4729 18.3862 26.4599 18.426 26.4437 18.4645C26.414 18.5433 26.3735 18.6175 26.3231 18.6849C26.2254 18.8222 26.0904 18.9285 25.9343 18.9911C25.8525 19.0227 25.765 19.036 25.6776 19.0301C25.5898 19.0223 25.5052 18.9935 25.4307 18.9463C25.3607 18.9011 25.2989 18.8444 25.2479 18.7785C25.1974 18.7142 25.1604 18.6518 25.1176 18.5835C24.9589 18.333 24.8167 18.0724 24.6918 17.8034C24.4495 17.2616 24.2353 16.7077 24.0502 16.1436H24.0716C24.2854 16.6948 24.5275 17.2344 24.7968 17.7605C24.9292 18.0216 25.0786 18.2737 25.244 18.5152C25.2868 18.5718 25.3296 18.6362 25.3723 18.6869C25.4136 18.7364 25.4629 18.7786 25.5182 18.8117C25.5703 18.8422 25.629 18.8595 25.6893 18.8622C25.7496 18.8649 25.8096 18.8529 25.8643 18.8273C25.9793 18.7746 26.077 18.6901 26.1459 18.5837C26.2148 18.4773 26.252 18.3534 26.2531 18.2266C26.2394 18.0869 26.214 17.9486 26.1773 17.8131C26.1423 17.6727 26.1034 17.5323 26.0626 17.3938C25.8954 16.8321 25.6951 16.2763 25.5104 15.7126L25.5357 15.699Z" fill="black"/>
<path opacity="0.2" d="M17.7639 31.3359C17.83 32.1336 17.8572 32.9313 17.8747 33.7309C17.8922 34.5306 17.8747 35.3282 17.8572 36.1259L17.828 38.5209L17.7872 40.9159H17.7639L17.7114 38.5209L17.6705 36.1259C17.6589 35.3282 17.6258 34.5286 17.6414 33.7309C17.6569 32.9333 17.6783 32.1336 17.7405 31.3359H17.7639Z" fill="black"/>
<path opacity="0.2" d="M10.1766 29.9285C10.0191 30.888 9.82272 31.8378 9.61857 32.7876C9.41441 33.7374 9.16359 34.6736 8.93416 35.6176L8.23809 38.4436L7.53035 41.2676H7.50702L8.12337 38.4221L8.75139 35.5727C8.96138 34.6248 9.15387 33.6731 9.39108 32.733C9.62829 31.793 9.87133 30.8529 10.1552 29.9226L10.1766 29.9285Z" fill="black"/>
<path opacity="0.2" d="M25.1376 28.6958C25.2018 28.9688 25.2562 29.2438 25.3165 29.5188L25.4818 30.3438C25.5907 30.8938 25.6918 31.4457 25.7909 31.9977C25.9854 33.1016 26.1448 34.2133 26.3159 35.3132L26.8331 38.6483L27.3347 41.9755H27.3114L26.7184 38.66L26.1351 35.3444C25.9407 34.2406 25.7326 33.1367 25.5635 32.0289C25.4798 31.475 25.3982 30.9192 25.3243 30.3633L25.2154 29.5286C25.1843 29.2497 25.1474 28.9708 25.1201 28.6919L25.1376 28.6958Z" fill="black"/>
<path d="M14.8043 18.5406C15.2617 18.5406 15.6326 18.1686 15.6326 17.7097C15.6326 17.2509 15.2617 16.8789 14.8043 16.8789C14.3468 16.8789 13.976 17.2509 13.976 17.7097C13.976 18.1686 14.3468 18.5406 14.8043 18.5406Z" fill="#0B2A35"/>
<path d="M16.9247 18.5406C17.3821 18.5406 17.7529 18.1686 17.7529 17.7097C17.7529 17.2509 17.3821 16.8789 16.9247 16.8789C16.4672 16.8789 16.0964 17.2509 16.0964 17.7097C16.0964 18.1686 16.4672 18.5406 16.9247 18.5406Z" fill="#0B2A35"/>
<path d="M19.0444 18.5406C19.5018 18.5406 19.8726 18.1686 19.8726 17.7097C19.8726 17.2509 19.5018 16.8789 19.0444 16.8789C18.5869 16.8789 18.2161 17.2509 18.2161 17.7097C18.2161 18.1686 18.5869 18.5406 19.0444 18.5406Z" fill="#FF5F00"/>
<path d="M21.1647 18.5406C21.6222 18.5406 21.993 18.1686 21.993 17.7097C21.993 17.2509 21.6222 16.8789 21.1647 16.8789C20.7073 16.8789 20.3365 17.2509 20.3365 17.7097C20.3365 18.1686 20.7073 18.5406 21.1647 18.5406Z" fill="#FF5F00"/>
<path d="M14.8043 20.6714C15.2617 20.6714 15.6326 20.2995 15.6326 19.8406C15.6326 19.3817 15.2617 19.0098 14.8043 19.0098C14.3468 19.0098 13.976 19.3817 13.976 19.8406C13.976 20.2995 14.3468 20.6714 14.8043 20.6714Z" fill="#0B2A35"/>
<path d="M16.9243 20.6714C17.3818 20.6714 17.7526 20.2995 17.7526 19.8406C17.7526 19.3817 17.3818 19.0098 16.9243 19.0098C16.4669 19.0098 16.096 19.3817 16.096 19.8406C16.096 20.2995 16.4669 20.6714 16.9243 20.6714Z" fill="#0B2A35"/>
<path d="M19.0447 20.6714C19.5021 20.6714 19.873 20.2995 19.873 19.8406C19.873 19.3817 19.5021 19.0098 19.0447 19.0098C18.5872 19.0098 18.2164 19.3817 18.2164 19.8406C18.2164 20.2995 18.5872 20.6714 19.0447 20.6714Z" fill="#FF5F00"/>
<path d="M21.1647 20.6714C21.6222 20.6714 21.993 20.2995 21.993 19.8406C21.993 19.3817 21.6222 19.0098 21.1647 19.0098C20.7073 19.0098 20.3365 19.3817 20.3365 19.8406C20.3365 20.2995 20.7073 20.6714 21.1647 20.6714Z" fill="#FF5F00"/>
<path d="M14.8043 22.7972C15.2617 22.7972 15.6326 22.4252 15.6326 21.9663C15.6326 21.5075 15.2617 21.1355 14.8043 21.1355C14.3468 21.1355 13.976 21.5075 13.976 21.9663C13.976 22.4252 14.3468 22.7972 14.8043 22.7972Z" fill="#0B2A35"/>
<path d="M16.9247 22.7972C17.3821 22.7972 17.7529 22.4252 17.7529 21.9663C17.7529 21.5075 17.3821 21.1355 16.9247 21.1355C16.4672 21.1355 16.0964 21.5075 16.0964 21.9663C16.0964 22.4252 16.4672 22.7972 16.9247 22.7972Z" fill="#0B2A35"/>
<path d="M19.0444 22.7972C19.5018 22.7972 19.8726 22.4252 19.8726 21.9663C19.8726 21.5075 19.5018 21.1355 19.0444 21.1355C18.5869 21.1355 18.2161 21.5075 18.2161 21.9663C18.2161 22.4252 18.5869 22.7972 19.0444 22.7972Z" fill="#0B2A35"/>
<path d="M21.1647 22.7972C21.6222 22.7972 21.993 22.4252 21.993 21.9663C21.993 21.5075 21.6222 21.1355 21.1647 21.1355C20.7073 21.1355 20.3365 21.5075 20.3365 21.9663C20.3365 22.4252 20.7073 22.7972 21.1647 22.7972Z" fill="#0B2A35"/>
<path d="M14.8043 24.9219C15.2617 24.9219 15.6326 24.55 15.6326 24.0911C15.6326 23.6322 15.2617 23.2603 14.8043 23.2603C14.3468 23.2603 13.976 23.6322 13.976 24.0911C13.976 24.55 14.3468 24.9219 14.8043 24.9219Z" fill="#0B2A35"/>
<path d="M16.9247 24.9219C17.3821 24.9219 17.7529 24.55 17.7529 24.0911C17.7529 23.6322 17.3821 23.2603 16.9247 23.2603C16.4672 23.2603 16.0964 23.6322 16.0964 24.0911C16.0964 24.55 16.4672 24.9219 16.9247 24.9219Z" fill="#0B2A35"/>
<path d="M19.0444 24.9219C19.5018 24.9219 19.8726 24.55 19.8726 24.0911C19.8726 23.6322 19.5018 23.2603 19.0444 23.2603C18.5869 23.2603 18.2161 23.6322 18.2161 24.0911C18.2161 24.55 18.5869 24.9219 19.0444 24.9219Z" fill="#0B2A35"/>
<path d="M21.1647 24.9219C21.6222 24.9219 21.993 24.55 21.993 24.0911C21.993 23.6322 21.6222 23.2603 21.1647 23.2603C20.7073 23.2603 20.3365 23.6322 20.3365 24.0911C20.3365 24.55 20.7073 24.9219 21.1647 24.9219Z" fill="#0B2A35"/>
<path d="M21.4364 6.12335C21.5653 6.12335 21.6698 6.01857 21.6698 5.88931C21.6698 5.76006 21.5653 5.65527 21.4364 5.65527C21.3076 5.65527 21.2031 5.76006 21.2031 5.88931C21.2031 6.01857 21.3076 6.12335 21.4364 6.12335Z" fill="white"/>
<path d="M14.5779 6.32184C14.7068 6.32184 14.8112 6.21705 14.8112 6.0878C14.8112 5.95854 14.7068 5.85376 14.5779 5.85376C14.449 5.85376 14.3446 5.95854 14.3446 6.0878C14.3446 6.21705 14.449 6.32184 14.5779 6.32184Z" fill="white"/>
</svg>
