<svg width="195" height="48" viewBox="0 0 195 48" fill="none" xmlns="http://www.w3.org/2000/svg">
<g clip-path="url(#clip0)">
<path d="M42.3638 30.6681H42.2593C40.6052 30.6681 38.8554 28.8947 38.8554 27.2155V27.1096H38.6V27.2155C38.6 28.8918 36.8502 30.6681 35.1932 30.6681H35.0887V30.9269H35.1932C36.8473 30.9269 38.6 32.7002 38.6 34.3795V34.4854H38.8554V34.3795C38.8554 32.7032 40.6052 30.9269 42.2593 30.9269H42.3638V30.6681Z" fill="#1EC1CB"/>
<path d="M13.2722 8.55553H13.1677C11.5136 8.55553 9.76377 6.78218 9.76377 5.10293V5H9.5084V5.10587C9.5084 6.78218 7.75856 8.55847 6.10157 8.55847H6V8.81727H6.10447C7.75856 8.81727 9.51131 10.5906 9.51131 12.2699V12.3757H9.76667V12.264C9.76667 10.5877 11.5165 8.81139 13.1706 8.81139H13.2751V8.55553H13.2722Z" fill="#1EC1CB"/>
<path d="M13.2722 15.9283H13.1677C11.5136 15.9283 9.76377 14.155 9.76377 12.4757V12.3699H9.5084V12.4757C9.5084 14.1521 7.75856 15.9283 6.10157 15.9283H6V16.1871H6.10447C7.75856 16.1871 9.51131 17.9605 9.51131 19.6397V19.7456H9.76667V19.6397C9.76667 17.9634 11.5165 16.1871 13.1706 16.1871H13.2751V15.9283H13.2722Z" fill="#1EC1CB"/>
<path d="M20.5443 15.9283H20.4399C18.7858 15.9283 17.0359 14.155 17.0359 12.4757V12.3699H16.7806V12.4757C16.7806 14.1521 15.0307 15.9283 13.3737 15.9283H13.2693V16.1871H13.3737C15.0278 16.1871 16.7806 17.9605 16.7806 19.6397V19.7456H17.0359V19.6397C17.0359 17.9634 18.7858 16.1871 20.4399 16.1871H20.5443V15.9283Z" fill="#1EC1CB"/>
<path d="M13.2722 23.2982H13.1677C11.5136 23.2982 9.76377 21.5249 9.76377 19.8456V19.7397H9.5084V19.8456C9.5084 21.5219 7.75856 23.2982 6.10157 23.2982H6V23.557H6.10447C7.75856 23.557 9.51131 25.3304 9.51131 27.0096V27.1155H9.76667V27.0096C9.76667 25.3333 11.5165 23.557 13.1706 23.557H13.2751V23.2982H13.2722Z" fill="#1EC1CB"/>
<path d="M20.5443 23.2982H20.4399C18.7858 23.2982 17.0359 21.5249 17.0359 19.8456V19.7397H16.7806V19.8456C16.7806 21.5219 15.0307 23.2982 13.3737 23.2982H13.2693V23.557H13.3737C15.0278 23.557 16.7806 25.3304 16.7806 27.0096V27.1155H17.0359V27.0096C17.0359 25.3333 18.7858 23.557 20.4399 23.557H20.5443V23.2982Z" fill="#1EC1CB"/>
<path d="M27.8194 23.2982H27.715C26.0609 23.2982 24.311 21.5249 24.311 19.8456V19.7397H24.0557V19.8456C24.0557 21.5219 22.3058 23.2982 20.6488 23.2982H20.5444V23.557H20.6488C22.3029 23.557 24.0557 25.3304 24.0557 27.0096V27.1155H24.311V27.0096C24.311 25.3333 26.0609 23.557 27.715 23.557H27.8194V23.2982Z" fill="#1EC1CB"/>
<path d="M13.2722 30.6681H13.1677C11.5136 30.6681 9.76377 28.8947 9.76377 27.2155V27.1096H9.5084V27.2155C9.5084 28.8918 7.75856 30.6681 6.10157 30.6681H6V30.9269H6.10447C7.75856 30.9269 9.51131 32.7002 9.51131 34.3795V34.4854H9.76667V34.3795C9.76667 32.7032 11.5165 30.9269 13.1706 30.9269H13.2751V30.6681H13.2722Z" fill="#1EC1CB"/>
<path d="M20.5443 30.6681H20.4399C18.7858 30.6681 17.0359 28.8947 17.0359 27.2155V27.1096H16.7806V27.2155C16.7806 28.8918 15.0307 30.6681 13.3737 30.6681H13.2693V30.9269H13.3737C15.0278 30.9269 16.7806 32.7002 16.7806 34.3795V34.4854H17.0359V34.3795C17.0359 32.7032 18.7858 30.9269 20.4399 30.9269H20.5443V30.6681Z" fill="#1EC1CB"/>
<path d="M35.0916 15.9283H34.9871C33.3331 15.9283 31.5832 14.155 31.5832 12.4757V12.3699H31.3278V12.4757C31.3278 14.1521 29.578 15.9283 27.921 15.9283H27.8165V16.1871H27.921C29.5751 16.1871 31.3278 17.9605 31.3278 19.6397V19.7456H31.5832V19.6397C31.5832 17.9634 33.3331 16.1871 34.9871 16.1871H35.0916V15.9283Z" fill="#1EC1CB"/>
<path d="M35.0916 23.2982H34.9871C33.3331 23.2982 31.5832 21.5249 31.5832 19.8456V19.7397H31.3278V19.8456C31.3278 21.5219 29.578 23.2982 27.921 23.2982H27.8165V23.557H27.921C29.5751 23.557 31.3278 25.3304 31.3278 27.0096V27.1155H31.5832V27.0096C31.5832 25.3333 33.3331 23.557 34.9871 23.557H35.0916V23.2982Z" fill="#1EC1CB"/>
<path d="M35.0916 30.6681H34.9871C33.3331 30.6681 31.5832 28.8947 31.5832 27.2155V27.1096H31.3278V27.2155C31.3278 28.8918 29.578 30.6681 27.921 30.6681H27.8165V30.9269H27.921C29.5751 30.9269 31.3278 32.7002 31.3278 34.3795V34.4854H31.5832V34.3795C31.5832 32.7032 33.3331 30.9269 34.9871 30.9269H35.0916V30.6681Z" fill="#1EC1CB"/>
<path d="M42.3638 15.9283H42.2593C40.6052 15.9283 38.8554 14.155 38.8554 12.4757V12.3699H38.6V12.4757C38.6 14.1521 36.8502 15.9283 35.1932 15.9283H35.0887V16.1871H35.1932C36.8473 16.1871 38.6 17.9605 38.6 19.6397V19.7456H38.8554V19.6397C38.8554 17.9634 40.6052 16.1871 42.2593 16.1871H42.3638V15.9283Z" fill="#1EC1CB"/>
<path d="M42.3638 8.55553H42.2593C40.6052 8.55553 38.8554 6.78218 38.8554 5.10293V5H38.6V5.10587C38.6 6.78218 36.8502 8.55847 35.1932 8.55847H35.0887V8.81727H35.1932C36.8473 8.81727 38.6 10.5906 38.6 12.2699V12.3757H38.8554V12.264C38.8554 10.5877 40.6052 8.81139 42.2593 8.81139H42.3638V8.55553Z" fill="#1EC1CB"/>
<path d="M42.3638 23.2982H42.2593C40.6052 23.2982 38.8554 21.5249 38.8554 19.8456V19.7397H38.6V19.8456C38.6 21.5219 36.8502 23.2982 35.1932 23.2982H35.0887V23.557H35.1932C36.8473 23.557 38.6 25.3304 38.6 27.0096V27.1155H38.8554V27.0096C38.8554 25.3333 40.6052 23.557 42.2593 23.557H42.3638V23.2982Z" fill="#1EC1CB"/>
<path d="M42.3638 38.038H42.2593C40.6052 38.038 38.8554 36.2646 38.8554 34.5854V34.4795H38.6V34.5854C38.6 36.2617 36.8502 38.038 35.1932 38.038H35.0887V38.2968H35.1932C36.8473 38.2968 38.6 40.0701 38.6 41.7494V41.8552H38.8554V41.7494C38.8554 40.0731 40.6052 38.2968 42.2593 38.2968H42.3638V38.038Z" fill="#1EC1CB"/>
<path d="M13.2722 38.038H13.1677C11.5136 38.038 9.76377 36.2646 9.76377 34.5854V34.4795H9.5084V34.5854C9.5084 36.2617 7.75856 38.038 6.10157 38.038H6V38.2968H6.10447C7.75856 38.2968 9.51131 40.0701 9.51131 41.7494V41.8552H9.76667V41.7494C9.76667 40.0731 11.5165 38.2968 13.1706 38.2968H13.2751V38.038H13.2722Z" fill="#1EC1CB"/>
<path d="M98.1671 8.06328H89.7157V6.02545H101.705V6.87582L93.2535 18.8538H101.705V20.8916H89.7157V20.0413L98.1671 8.06328ZM174.835 12.499C171.672 11.8133 171.093 11.0741 171.093 9.82531C171.093 8.56124 172.269 7.6764 173.954 7.6764C175.429 7.6764 176.706 8.16287 177.976 9.21243L178.135 9.3465L179.322 7.75301L179.171 7.63043C177.591 6.34338 176.045 5.79562 173.996 5.79562C171.146 5.79562 169.075 7.54999 169.075 10.013C169.075 12.7518 171.067 13.7554 174.057 14.4142C177.08 15.0616 177.636 15.7856 177.636 17.0267C177.636 18.3673 176.4 19.302 174.631 19.302C172.783 19.302 171.396 18.7197 169.838 17.2948L169.687 17.1531L168.425 18.6699L168.568 18.8002C170.364 20.4243 172.273 21.1827 174.574 21.1827C177.579 21.1827 179.681 19.4054 179.681 16.8198C179.673 14.5407 178.229 13.2498 174.835 12.499ZM147.523 16.4329C146.502 18.2141 144.624 19.4284 142.45 19.4284C139.207 19.4284 136.565 16.7547 136.565 13.4643C136.565 10.1739 139.204 7.5002 142.45 7.5002C144.624 7.5002 146.502 8.71446 147.523 10.4956L149.239 9.49206C147.874 7.10948 145.361 5.48535 142.45 5.48535C138.108 5.48535 134.577 9.06304 134.577 13.4643C134.577 17.8655 138.108 21.4432 142.45 21.4432C145.357 21.4432 147.874 19.8191 149.239 17.4365L147.523 16.4329ZM72.2495 20.8801H74.4456L79.4953 8.87918L84.5488 20.8801H86.7448V20.8763L80.5007 6.03311H77.5147C77.5147 6.03311 78.3954 6.25528 77.7188 7.87175L72.2495 20.8801ZM151.563 20.8801H153.759L158.809 8.87918L163.863 20.8801H166.059V20.8763L159.815 6.03311H156.829C156.829 6.03311 157.709 6.25528 157.033 7.87175L151.563 20.8801ZM53.8536 6.03311C54.2958 6.20166 54.6473 6.59237 54.7532 7.09416C54.8514 7.47721 54.9043 8.14372 54.9043 9.08985V20.8763H57.1873V14.4028H65.6085V20.8763H67.8915V6.03694H65.6085V12.4913H57.1873V6.03694L53.8536 6.03311ZM106.343 6.03311C106.785 6.20166 107.136 6.59237 107.242 7.09416C107.341 7.47721 107.393 8.15138 107.393 9.10134V20.8763H117.032V18.8691H109.676V14.3951H116.612V12.5028H109.676V8.05179H117.02V6.03694L106.343 6.03311ZM122.433 6.0446C122.875 6.21315 123.227 6.60386 123.333 7.10565C123.431 7.4887 123.484 8.16287 123.484 9.11284V20.8763H132.427V18.8768H125.767V6.03694L122.433 6.0446ZM190.094 20.8801V8.01348H195V6.03694H182.841V8.01348H187.766V17.8119C187.766 18.7619 187.716 19.436 187.614 19.8191C187.509 20.3247 187.157 20.7116 186.715 20.8801H190.094Z" fill="#141414"/>
<path d="M54.4979 35.6003L55.0526 30.0535H60.7401V30.9207H55.8573L55.4588 34.7644C56.0682 34.3477 56.7817 34.1394 57.5994 34.1394C58.6255 34.1394 59.4432 34.4727 60.0526 35.1394C60.6619 35.8061 60.9666 36.6941 60.9666 37.8035C60.9666 39.0014 60.6698 39.9311 60.076 40.5925C59.4823 41.254 58.6463 41.5847 57.5682 41.5847C56.5786 41.5847 55.7765 41.3087 55.1619 40.7566C54.5474 40.2045 54.1958 39.4311 54.1073 38.4363H55.0057C55.0942 39.2123 55.3573 39.8009 55.7948 40.2019C56.2323 40.5977 56.8234 40.7957 57.5682 40.7957C58.3807 40.7957 58.9927 40.5378 59.4041 40.0222C59.8208 39.5066 60.0291 38.7722 60.0291 37.8191C60.0291 36.9858 59.7974 36.3061 59.3338 35.78C58.8703 35.254 58.2375 34.991 57.4354 34.991C56.9927 34.991 56.6073 35.0483 56.2791 35.1628C55.951 35.2722 55.6047 35.4884 55.2401 35.8113L54.4979 35.6003ZM62.8026 40.866C62.8026 40.6837 62.8599 40.53 62.9744 40.405C63.0942 40.2748 63.2583 40.2097 63.4666 40.2097C63.675 40.2097 63.839 40.2748 63.9588 40.405C64.0786 40.53 64.1385 40.6837 64.1385 40.866C64.1385 41.0483 64.0786 41.1993 63.9588 41.3191C63.839 41.4337 63.675 41.491 63.4666 41.491C63.2583 41.491 63.0942 41.4337 62.9744 41.3191C62.8599 41.1993 62.8026 41.0483 62.8026 40.866ZM73.4276 36.6863C73.4276 38.2904 73.1333 39.5092 72.5448 40.3425C71.9562 41.1707 71.089 41.5847 69.9432 41.5847C68.8182 41.5847 67.9562 41.1785 67.3573 40.366C66.7583 39.5483 66.451 38.3608 66.4354 36.8035V34.7644C66.4354 33.1654 66.7323 31.9545 67.326 31.1316C67.9198 30.3087 68.7869 29.8972 69.9276 29.8972C71.0526 29.8972 71.9119 30.2957 72.5057 31.0925C73.0994 31.8842 73.4067 33.0535 73.4276 34.6003V36.6863ZM72.4901 34.6472C72.4901 33.3451 72.2765 32.3608 71.8494 31.6941C71.4276 31.0274 70.7869 30.6941 69.9276 30.6941C69.0838 30.6941 68.4484 31.0196 68.0213 31.6707C67.5942 32.3217 67.3755 33.2826 67.3651 34.5535V36.7878C67.3651 38.0847 67.5838 39.0769 68.0213 39.7644C68.464 40.4519 69.1047 40.7957 69.9432 40.7957C70.7765 40.7957 71.4067 40.4597 71.8338 39.7878C72.2661 39.116 72.4849 38.1316 72.4901 36.8347V34.6472Z" fill="black"/>
<path d="M79.701 41.4285V30.0535H83.0604C84.2791 30.0535 85.2036 30.3061 85.8338 30.8113C86.464 31.3113 86.7791 32.0509 86.7791 33.03C86.7791 33.6186 86.6177 34.1316 86.2948 34.5691C85.977 35.0014 85.5395 35.3113 84.9823 35.4988C85.6437 35.6446 86.175 35.9701 86.576 36.4753C86.9823 36.9806 87.1854 37.5639 87.1854 38.2253C87.1854 39.2306 86.8599 40.017 86.2088 40.5847C85.563 41.1472 84.6619 41.4285 83.5057 41.4285H79.701ZM80.6619 35.9597V40.616H83.5448C84.3677 40.616 85.0187 40.4076 85.4979 39.991C85.9823 39.5691 86.2244 38.9858 86.2244 38.241C86.2244 37.5378 85.9927 36.9832 85.5291 36.5769C85.0708 36.1654 84.4354 35.9597 83.6229 35.9597H80.6619ZM80.6619 35.155H83.2869C84.089 35.1394 84.7088 34.9519 85.1463 34.5925C85.589 34.2279 85.8104 33.6993 85.8104 33.0066C85.8104 32.2774 85.5812 31.741 85.1229 31.3972C84.6698 31.0483 83.9823 30.8738 83.0604 30.8738H80.6619V35.155ZM95.7948 35.9753H90.4744V40.616H96.5916V41.4285H89.5135V30.0535H96.5526V30.8738H90.4744V35.1628H95.7948V35.9753ZM106.498 30.8738H102.599V41.4285H101.639V30.8738H97.7479V30.0535H106.498V30.8738ZM113.857 38.241H108.693L107.521 41.4285H106.514L110.818 30.0535H111.732L116.037 41.4285H115.037L113.857 38.241ZM108.99 37.4207H113.553L111.271 31.2253L108.99 37.4207Z" fill="#005C09"/>
</g>
<defs>
<clipPath id="clip0">
<rect width="195" height="48" fill="white"/>
</clipPath>
</defs>
</svg>
