<?xml version="1.0" encoding="UTF-8" standalone="no" ?>
<!DOCTYPE svg PUBLIC "-//W3C//DTD SVG 1.1//EN" "http://www.w3.org/Graphics/SVG/1.1/DTD/svg11.dtd">
<svg xmlns="http://www.w3.org/2000/svg" xmlns:xlink="http://www.w3.org/1999/xlink" version="1.1" width="189" height="38" viewBox="0 0 189 38" xml:space="preserve">
<desc>Created with Fabric.js 3.6.3</desc>
<defs>
</defs>
<g transform="matrix(1 0 0 1 33.73 26.8)" clip-path="url(#CLIPPATH_6)"  >
<clipPath id="CLIPPATH_6" >
	<rect transform="matrix(1 0 0 1 58.77 -6.8)" id="clip0" x="-97.5" y="-24" rx="0" ry="0" width="195" height="48" />
</clipPath>
<path style="stroke: none; stroke-width: 1; stroke-dasharray: none; stroke-linecap: butt; stroke-dashoffset: 0; stroke-linejoin: miter; stroke-miterlimit: 4; fill: rgb(30,193,203); fill-rule: nonzero; opacity: 1;"  transform=" translate(-38.73, -30.8)" d="M 42.3638 30.6681 H 42.2593 C 40.6052 30.6681 38.8554 28.8947 38.8554 27.2155 V 27.1096 H 38.6 V 27.2155 C 38.6 28.8918 36.8502 30.6681 35.1932 30.6681 H 35.0887 V 30.9269 H 35.1932 C 36.8473 30.9269 38.6 32.7002 38.6 34.3795 V 34.4854 H 38.8554 V 34.3795 C 38.8554 32.7032 40.6052 30.9269 42.2593 30.9269 H 42.3638 V 30.6681 Z" stroke-linecap="round" />
</g>
<g transform="matrix(1 0 0 1 4.64 4.69)" clip-path="url(#CLIPPATH_7)"  >
<clipPath id="CLIPPATH_7" >
	<rect transform="matrix(1 0 0 1 87.86 15.31)" id="clip0" x="-97.5" y="-24" rx="0" ry="0" width="195" height="48" />
</clipPath>
<path style="stroke: none; stroke-width: 1; stroke-dasharray: none; stroke-linecap: butt; stroke-dashoffset: 0; stroke-linejoin: miter; stroke-miterlimit: 4; fill: rgb(30,193,203); fill-rule: nonzero; opacity: 1;"  transform=" translate(-9.64, -8.69)" d="M 13.2722 8.55553 H 13.1677 C 11.5136 8.55553 9.76377 6.78218 9.76377 5.10293 V 5 H 9.5084 V 5.10587 C 9.5084 6.78218 7.75856 8.55847 6.10157 8.55847 H 6 V 8.81727 H 6.10447 C 7.75856 8.81727 9.51131 10.5906 9.51131 12.2699 V 12.3757 H 9.76667 V 12.264 C 9.76667 10.5877 11.5165 8.81139 13.1706 8.81139 H 13.2751 V 8.55553 H 13.2722 Z" stroke-linecap="round" />
</g>
<g transform="matrix(1 0 0 1 4.64 12.06)" clip-path="url(#CLIPPATH_8)"  >
<clipPath id="CLIPPATH_8" >
	<rect transform="matrix(1 0 0 1 87.86 7.94)" id="clip0" x="-97.5" y="-24" rx="0" ry="0" width="195" height="48" />
</clipPath>
<path style="stroke: none; stroke-width: 1; stroke-dasharray: none; stroke-linecap: butt; stroke-dashoffset: 0; stroke-linejoin: miter; stroke-miterlimit: 4; fill: rgb(30,193,203); fill-rule: nonzero; opacity: 1;"  transform=" translate(-9.64, -16.06)" d="M 13.2722 15.9283 H 13.1677 C 11.5136 15.9283 9.76377 14.155 9.76377 12.4757 V 12.3699 H 9.5084 V 12.4757 C 9.5084 14.1521 7.75856 15.9283 6.10157 15.9283 H 6 V 16.1871 H 6.10447 C 7.75856 16.1871 9.51131 17.9605 9.51131 19.6397 V 19.7456 H 9.76667 V 19.6397 C 9.76667 17.9634 11.5165 16.1871 13.1706 16.1871 H 13.2751 V 15.9283 H 13.2722 Z" stroke-linecap="round" />
</g>
<g transform="matrix(1 0 0 1 11.91 12.06)" clip-path="url(#CLIPPATH_9)"  >
<clipPath id="CLIPPATH_9" >
	<rect transform="matrix(1 0 0 1 80.59 7.94)" id="clip0" x="-97.5" y="-24" rx="0" ry="0" width="195" height="48" />
</clipPath>
<path style="stroke: none; stroke-width: 1; stroke-dasharray: none; stroke-linecap: butt; stroke-dashoffset: 0; stroke-linejoin: miter; stroke-miterlimit: 4; fill: rgb(30,193,203); fill-rule: nonzero; opacity: 1;"  transform=" translate(-16.91, -16.06)" d="M 20.5443 15.9283 H 20.4399 C 18.7858 15.9283 17.0359 14.155 17.0359 12.4757 V 12.3699 H 16.7806 V 12.4757 C 16.7806 14.1521 15.0307 15.9283 13.3737 15.9283 H 13.2693 V 16.1871 H 13.3737 C 15.0278 16.1871 16.7806 17.9605 16.7806 19.6397 V 19.7456 H 17.0359 V 19.6397 C 17.0359 17.9634 18.7858 16.1871 20.4399 16.1871 H 20.5443 V 15.9283 Z" stroke-linecap="round" />
</g>
<g transform="matrix(1 0 0 1 4.64 19.43)" clip-path="url(#CLIPPATH_10)"  >
<clipPath id="CLIPPATH_10" >
	<rect transform="matrix(1 0 0 1 87.86 0.57)" id="clip0" x="-97.5" y="-24" rx="0" ry="0" width="195" height="48" />
</clipPath>
<path style="stroke: none; stroke-width: 1; stroke-dasharray: none; stroke-linecap: butt; stroke-dashoffset: 0; stroke-linejoin: miter; stroke-miterlimit: 4; fill: rgb(30,193,203); fill-rule: nonzero; opacity: 1;"  transform=" translate(-9.64, -23.43)" d="M 13.2722 23.2982 H 13.1677 C 11.5136 23.2982 9.76377 21.5249 9.76377 19.8456 V 19.7397 H 9.5084 V 19.8456 C 9.5084 21.5219 7.75856 23.2982 6.10157 23.2982 H 6 V 23.557 H 6.10447 C 7.75856 23.557 9.51131 25.3304 9.51131 27.0096 V 27.1155 H 9.76667 V 27.0096 C 9.76667 25.3333 11.5165 23.557 13.1706 23.557 H 13.2751 V 23.2982 H 13.2722 Z" stroke-linecap="round" />
</g>
<g transform="matrix(1 0 0 1 11.91 19.43)" clip-path="url(#CLIPPATH_11)"  >
<clipPath id="CLIPPATH_11" >
	<rect transform="matrix(1 0 0 1 80.59 0.57)" id="clip0" x="-97.5" y="-24" rx="0" ry="0" width="195" height="48" />
</clipPath>
<path style="stroke: none; stroke-width: 1; stroke-dasharray: none; stroke-linecap: butt; stroke-dashoffset: 0; stroke-linejoin: miter; stroke-miterlimit: 4; fill: rgb(30,193,203); fill-rule: nonzero; opacity: 1;"  transform=" translate(-16.91, -23.43)" d="M 20.5443 23.2982 H 20.4399 C 18.7858 23.2982 17.0359 21.5249 17.0359 19.8456 V 19.7397 H 16.7806 V 19.8456 C 16.7806 21.5219 15.0307 23.2982 13.3737 23.2982 H 13.2693 V 23.557 H 13.3737 C 15.0278 23.557 16.7806 25.3304 16.7806 27.0096 V 27.1155 H 17.0359 V 27.0096 C 17.0359 25.3333 18.7858 23.557 20.4399 23.557 H 20.5443 V 23.2982 Z" stroke-linecap="round" />
</g>
<g transform="matrix(1 0 0 1 19.18 19.43)" clip-path="url(#CLIPPATH_12)"  >
<clipPath id="CLIPPATH_12" >
	<rect transform="matrix(1 0 0 1 73.32 0.57)" id="clip0" x="-97.5" y="-24" rx="0" ry="0" width="195" height="48" />
</clipPath>
<path style="stroke: none; stroke-width: 1; stroke-dasharray: none; stroke-linecap: butt; stroke-dashoffset: 0; stroke-linejoin: miter; stroke-miterlimit: 4; fill: rgb(30,193,203); fill-rule: nonzero; opacity: 1;"  transform=" translate(-24.18, -23.43)" d="M 27.8194 23.2982 H 27.715 C 26.0609 23.2982 24.311 21.5249 24.311 19.8456 V 19.7397 H 24.0557 V 19.8456 C 24.0557 21.5219 22.3058 23.2982 20.6488 23.2982 H 20.5444 V 23.557 H 20.6488 C 22.3029 23.557 24.0557 25.3304 24.0557 27.0096 V 27.1155 H 24.311 V 27.0096 C 24.311 25.3333 26.0609 23.557 27.715 23.557 H 27.8194 V 23.2982 Z" stroke-linecap="round" />
</g>
<g transform="matrix(1 0 0 1 4.64 26.8)" clip-path="url(#CLIPPATH_13)"  >
<clipPath id="CLIPPATH_13" >
	<rect transform="matrix(1 0 0 1 87.86 -6.8)" id="clip0" x="-97.5" y="-24" rx="0" ry="0" width="195" height="48" />
</clipPath>
<path style="stroke: none; stroke-width: 1; stroke-dasharray: none; stroke-linecap: butt; stroke-dashoffset: 0; stroke-linejoin: miter; stroke-miterlimit: 4; fill: rgb(30,193,203); fill-rule: nonzero; opacity: 1;"  transform=" translate(-9.64, -30.8)" d="M 13.2722 30.6681 H 13.1677 C 11.5136 30.6681 9.76377 28.8947 9.76377 27.2155 V 27.1096 H 9.5084 V 27.2155 C 9.5084 28.8918 7.75856 30.6681 6.10157 30.6681 H 6 V 30.9269 H 6.10447 C 7.75856 30.9269 9.51131 32.7002 9.51131 34.3795 V 34.4854 H 9.76667 V 34.3795 C 9.76667 32.7032 11.5165 30.9269 13.1706 30.9269 H 13.2751 V 30.6681 H 13.2722 Z" stroke-linecap="round" />
</g>
<g transform="matrix(1 0 0 1 11.91 26.8)" clip-path="url(#CLIPPATH_14)"  >
<clipPath id="CLIPPATH_14" >
	<rect transform="matrix(1 0 0 1 80.59 -6.8)" id="clip0" x="-97.5" y="-24" rx="0" ry="0" width="195" height="48" />
</clipPath>
<path style="stroke: none; stroke-width: 1; stroke-dasharray: none; stroke-linecap: butt; stroke-dashoffset: 0; stroke-linejoin: miter; stroke-miterlimit: 4; fill: rgb(30,193,203); fill-rule: nonzero; opacity: 1;"  transform=" translate(-16.91, -30.8)" d="M 20.5443 30.6681 H 20.4399 C 18.7858 30.6681 17.0359 28.8947 17.0359 27.2155 V 27.1096 H 16.7806 V 27.2155 C 16.7806 28.8918 15.0307 30.6681 13.3737 30.6681 H 13.2693 V 30.9269 H 13.3737 C 15.0278 30.9269 16.7806 32.7002 16.7806 34.3795 V 34.4854 H 17.0359 V 34.3795 C 17.0359 32.7032 18.7858 30.9269 20.4399 30.9269 H 20.5443 V 30.6681 Z" stroke-linecap="round" />
</g>
<g transform="matrix(1 0 0 1 26.45 12.06)" clip-path="url(#CLIPPATH_15)"  >
<clipPath id="CLIPPATH_15" >
	<rect transform="matrix(1 0 0 1 66.05 7.94)" id="clip0" x="-97.5" y="-24" rx="0" ry="0" width="195" height="48" />
</clipPath>
<path style="stroke: none; stroke-width: 1; stroke-dasharray: none; stroke-linecap: butt; stroke-dashoffset: 0; stroke-linejoin: miter; stroke-miterlimit: 4; fill: rgb(30,193,203); fill-rule: nonzero; opacity: 1;"  transform=" translate(-31.45, -16.06)" d="M 35.0916 15.9283 H 34.9871 C 33.3331 15.9283 31.5832 14.155 31.5832 12.4757 V 12.3699 H 31.3278 V 12.4757 C 31.3278 14.1521 29.578 15.9283 27.921 15.9283 H 27.8165 V 16.1871 H 27.921 C 29.5751 16.1871 31.3278 17.9605 31.3278 19.6397 V 19.7456 H 31.5832 V 19.6397 C 31.5832 17.9634 33.3331 16.1871 34.9871 16.1871 H 35.0916 V 15.9283 Z" stroke-linecap="round" />
</g>
<g transform="matrix(1 0 0 1 26.45 19.43)" clip-path="url(#CLIPPATH_16)"  >
<clipPath id="CLIPPATH_16" >
	<rect transform="matrix(1 0 0 1 66.05 0.57)" id="clip0" x="-97.5" y="-24" rx="0" ry="0" width="195" height="48" />
</clipPath>
<path style="stroke: none; stroke-width: 1; stroke-dasharray: none; stroke-linecap: butt; stroke-dashoffset: 0; stroke-linejoin: miter; stroke-miterlimit: 4; fill: rgb(30,193,203); fill-rule: nonzero; opacity: 1;"  transform=" translate(-31.45, -23.43)" d="M 35.0916 23.2982 H 34.9871 C 33.3331 23.2982 31.5832 21.5249 31.5832 19.8456 V 19.7397 H 31.3278 V 19.8456 C 31.3278 21.5219 29.578 23.2982 27.921 23.2982 H 27.8165 V 23.557 H 27.921 C 29.5751 23.557 31.3278 25.3304 31.3278 27.0096 V 27.1155 H 31.5832 V 27.0096 C 31.5832 25.3333 33.3331 23.557 34.9871 23.557 H 35.0916 V 23.2982 Z" stroke-linecap="round" />
</g>
<g transform="matrix(1 0 0 1 26.45 26.8)" clip-path="url(#CLIPPATH_17)"  >
<clipPath id="CLIPPATH_17" >
	<rect transform="matrix(1 0 0 1 66.05 -6.8)" id="clip0" x="-97.5" y="-24" rx="0" ry="0" width="195" height="48" />
</clipPath>
<path style="stroke: none; stroke-width: 1; stroke-dasharray: none; stroke-linecap: butt; stroke-dashoffset: 0; stroke-linejoin: miter; stroke-miterlimit: 4; fill: rgb(30,193,203); fill-rule: nonzero; opacity: 1;"  transform=" translate(-31.45, -30.8)" d="M 35.0916 30.6681 H 34.9871 C 33.3331 30.6681 31.5832 28.8947 31.5832 27.2155 V 27.1096 H 31.3278 V 27.2155 C 31.3278 28.8918 29.578 30.6681 27.921 30.6681 H 27.8165 V 30.9269 H 27.921 C 29.5751 30.9269 31.3278 32.7002 31.3278 34.3795 V 34.4854 H 31.5832 V 34.3795 C 31.5832 32.7032 33.3331 30.9269 34.9871 30.9269 H 35.0916 V 30.6681 Z" stroke-linecap="round" />
</g>
<g transform="matrix(1 0 0 1 33.73 12.06)" clip-path="url(#CLIPPATH_18)"  >
<clipPath id="CLIPPATH_18" >
	<rect transform="matrix(1 0 0 1 58.77 7.94)" id="clip0" x="-97.5" y="-24" rx="0" ry="0" width="195" height="48" />
</clipPath>
<path style="stroke: none; stroke-width: 1; stroke-dasharray: none; stroke-linecap: butt; stroke-dashoffset: 0; stroke-linejoin: miter; stroke-miterlimit: 4; fill: rgb(30,193,203); fill-rule: nonzero; opacity: 1;"  transform=" translate(-38.73, -16.06)" d="M 42.3638 15.9283 H 42.2593 C 40.6052 15.9283 38.8554 14.155 38.8554 12.4757 V 12.3699 H 38.6 V 12.4757 C 38.6 14.1521 36.8502 15.9283 35.1932 15.9283 H 35.0887 V 16.1871 H 35.1932 C 36.8473 16.1871 38.6 17.9605 38.6 19.6397 V 19.7456 H 38.8554 V 19.6397 C 38.8554 17.9634 40.6052 16.1871 42.2593 16.1871 H 42.3638 V 15.9283 Z" stroke-linecap="round" />
</g>
<g transform="matrix(1 0 0 1 33.73 4.69)" clip-path="url(#CLIPPATH_19)"  >
<clipPath id="CLIPPATH_19" >
	<rect transform="matrix(1 0 0 1 58.77 15.31)" id="clip0" x="-97.5" y="-24" rx="0" ry="0" width="195" height="48" />
</clipPath>
<path style="stroke: none; stroke-width: 1; stroke-dasharray: none; stroke-linecap: butt; stroke-dashoffset: 0; stroke-linejoin: miter; stroke-miterlimit: 4; fill: rgb(30,193,203); fill-rule: nonzero; opacity: 1;"  transform=" translate(-38.73, -8.69)" d="M 42.3638 8.55553 H 42.2593 C 40.6052 8.55553 38.8554 6.78218 38.8554 5.10293 V 5 H 38.6 V 5.10587 C 38.6 6.78218 36.8502 8.55847 35.1932 8.55847 H 35.0887 V 8.81727 H 35.1932 C 36.8473 8.81727 38.6 10.5906 38.6 12.2699 V 12.3757 H 38.8554 V 12.264 C 38.8554 10.5877 40.6052 8.81139 42.2593 8.81139 H 42.3638 V 8.55553 Z" stroke-linecap="round" />
</g>
<g transform="matrix(1 0 0 1 33.73 19.43)" clip-path="url(#CLIPPATH_20)"  >
<clipPath id="CLIPPATH_20" >
	<rect transform="matrix(1 0 0 1 58.77 0.57)" id="clip0" x="-97.5" y="-24" rx="0" ry="0" width="195" height="48" />
</clipPath>
<path style="stroke: none; stroke-width: 1; stroke-dasharray: none; stroke-linecap: butt; stroke-dashoffset: 0; stroke-linejoin: miter; stroke-miterlimit: 4; fill: rgb(30,193,203); fill-rule: nonzero; opacity: 1;"  transform=" translate(-38.73, -23.43)" d="M 42.3638 23.2982 H 42.2593 C 40.6052 23.2982 38.8554 21.5249 38.8554 19.8456 V 19.7397 H 38.6 V 19.8456 C 38.6 21.5219 36.8502 23.2982 35.1932 23.2982 H 35.0887 V 23.557 H 35.1932 C 36.8473 23.557 38.6 25.3304 38.6 27.0096 V 27.1155 H 38.8554 V 27.0096 C 38.8554 25.3333 40.6052 23.557 42.2593 23.557 H 42.3638 V 23.2982 Z" stroke-linecap="round" />
</g>
<g transform="matrix(1 0 0 1 33.73 34.17)" clip-path="url(#CLIPPATH_21)"  >
<clipPath id="CLIPPATH_21" >
	<rect transform="matrix(1 0 0 1 58.77 -14.17)" id="clip0" x="-97.5" y="-24" rx="0" ry="0" width="195" height="48" />
</clipPath>
<path style="stroke: none; stroke-width: 1; stroke-dasharray: none; stroke-linecap: butt; stroke-dashoffset: 0; stroke-linejoin: miter; stroke-miterlimit: 4; fill: rgb(30,193,203); fill-rule: nonzero; opacity: 1;"  transform=" translate(-38.73, -38.17)" d="M 42.3638 38.038 H 42.2593 C 40.6052 38.038 38.8554 36.2646 38.8554 34.5854 V 34.4795 H 38.6 V 34.5854 C 38.6 36.2617 36.8502 38.038 35.1932 38.038 H 35.0887 V 38.2968 H 35.1932 C 36.8473 38.2968 38.6 40.0701 38.6 41.7494 V 41.8552 H 38.8554 V 41.7494 C 38.8554 40.0731 40.6052 38.2968 42.2593 38.2968 H 42.3638 V 38.038 Z" stroke-linecap="round" />
</g>
<g transform="matrix(1 0 0 1 4.64 34.17)" clip-path="url(#CLIPPATH_22)"  >
<clipPath id="CLIPPATH_22" >
	<rect transform="matrix(1 0 0 1 87.86 -14.17)" id="clip0" x="-97.5" y="-24" rx="0" ry="0" width="195" height="48" />
</clipPath>
<path style="stroke: none; stroke-width: 1; stroke-dasharray: none; stroke-linecap: butt; stroke-dashoffset: 0; stroke-linejoin: miter; stroke-miterlimit: 4; fill: rgb(30,193,203); fill-rule: nonzero; opacity: 1;"  transform=" translate(-9.64, -38.17)" d="M 13.2722 38.038 H 13.1677 C 11.5136 38.038 9.76377 36.2646 9.76377 34.5854 V 34.4795 H 9.5084 V 34.5854 C 9.5084 36.2617 7.75856 38.038 6.10157 38.038 H 6 V 38.2968 H 6.10447 C 7.75856 38.2968 9.51131 40.0701 9.51131 41.7494 V 41.8552 H 9.76667 V 41.7494 C 9.76667 40.0731 11.5165 38.2968 13.1706 38.2968 H 13.2751 V 38.038 H 13.2722 Z" stroke-linecap="round" />
</g>
<g transform="matrix(1 0 0 1 119.43 9.46)" clip-path="url(#CLIPPATH_23)"  >
<clipPath id="CLIPPATH_23" >
	<rect transform="matrix(1 0 0 1 -26.93 10.54)" id="clip0" x="-97.5" y="-24" rx="0" ry="0" width="195" height="48" />
</clipPath>
<path style="stroke: none; stroke-width: 1; stroke-dasharray: none; stroke-linecap: butt; stroke-dashoffset: 0; stroke-linejoin: miter; stroke-miterlimit: 4; fill: rgb(20,20,20); fill-rule: nonzero; opacity: 1;"  transform=" translate(-124.43, -13.46)" d="M 98.1671 8.06328 H 89.7157 V 6.02545 H 101.705 V 6.87582 L 93.2535 18.8538 H 101.705 V 20.8916 H 89.7157 V 20.0413 L 98.1671 8.06328 Z M 174.835 12.499 C 171.672 11.8133 171.093 11.0741 171.093 9.82531 C 171.093 8.56124 172.269 7.6764 173.954 7.6764 C 175.429 7.6764 176.706 8.16287 177.976 9.21243 L 178.135 9.3465 L 179.322 7.75301 L 179.171 7.63043 C 177.591 6.34338 176.045 5.79562 173.996 5.79562 C 171.146 5.79562 169.075 7.54999 169.075 10.013 C 169.075 12.7518 171.067 13.7554 174.057 14.4142 C 177.08 15.0616 177.636 15.7856 177.636 17.0267 C 177.636 18.3673 176.4 19.302 174.631 19.302 C 172.783 19.302 171.396 18.7197 169.838 17.2948 L 169.687 17.1531 L 168.425 18.6699 L 168.568 18.8002 C 170.364 20.4243 172.273 21.1827 174.574 21.1827 C 177.579 21.1827 179.681 19.4054 179.681 16.8198 C 179.673 14.5407 178.229 13.2498 174.835 12.499 Z M 147.523 16.4329 C 146.502 18.2141 144.624 19.4284 142.45 19.4284 C 139.207 19.4284 136.565 16.7547 136.565 13.4643 C 136.565 10.1739 139.204 7.5002 142.45 7.5002 C 144.624 7.5002 146.502 8.71446 147.523 10.4956 L 149.239 9.49206 C 147.874 7.10948 145.361 5.48535 142.45 5.48535 C 138.108 5.48535 134.577 9.06304 134.577 13.4643 C 134.577 17.8655 138.108 21.4432 142.45 21.4432 C 145.357 21.4432 147.874 19.8191 149.239 17.4365 L 147.523 16.4329 Z M 72.2495 20.8801 H 74.4456 L 79.4953 8.87918 L 84.5488 20.8801 H 86.7448 V 20.8763 L 80.5007 6.03311 H 77.5147 C 77.5147 6.03311 78.3954 6.25528 77.7188 7.87175 L 72.2495 20.8801 Z M 151.563 20.8801 H 153.759 L 158.809 8.87918 L 163.863 20.8801 H 166.059 V 20.8763 L 159.815 6.03311 H 156.829 C 156.829 6.03311 157.709 6.25528 157.033 7.87175 L 151.563 20.8801 Z M 53.8536 6.03311 C 54.2958 6.20166 54.6473 6.59237 54.7532 7.09416 C 54.8514 7.47721 54.9043 8.14372 54.9043 9.08985 V 20.8763 H 57.1873 V 14.4028 H 65.6085 V 20.8763 H 67.8915 V 6.03694 H 65.6085 V 12.4913 H 57.1873 V 6.03694 L 53.8536 6.03311 Z M 106.343 6.03311 C 106.785 6.20166 107.136 6.59237 107.242 7.09416 C 107.341 7.47721 107.393 8.15138 107.393 9.10134 V 20.8763 H 117.032 V 18.8691 H 109.676 V 14.3951 H 116.612 V 12.5028 H 109.676 V 8.05179 H 117.02 V 6.03694 L 106.343 6.03311 Z M 122.433 6.0446 C 122.875 6.21315 123.227 6.60386 123.333 7.10565 C 123.431 7.4887 123.484 8.16287 123.484 9.11284 V 20.8763 H 132.427 V 18.8768 H 125.767 V 6.03694 L 122.433 6.0446 Z M 190.094 20.8801 V 8.01348 H 195 V 6.03694 H 182.841 V 8.01348 H 187.766 V 17.8119 C 187.766 18.7619 187.716 19.436 187.614 19.8191 C 187.509 20.3247 187.157 20.7116 186.715 20.8801 H 190.094 Z" stroke-linecap="round" />
</g>
<g transform="matrix(1 0 0 1 58.77 31.74)" clip-path="url(#CLIPPATH_24)"  >
<clipPath id="CLIPPATH_24" >
	<rect transform="matrix(1 0 0 1 33.73 -11.74)" id="clip0" x="-97.5" y="-24" rx="0" ry="0" width="195" height="48" />
</clipPath>
<path style="stroke: none; stroke-width: 1; stroke-dasharray: none; stroke-linecap: butt; stroke-dashoffset: 0; stroke-linejoin: miter; stroke-miterlimit: 4; fill: rgb(0,0,0); fill-rule: nonzero; opacity: 1;"  transform=" translate(-63.77, -35.74)" d="M 54.4979 35.6003 L 55.0526 30.0535 H 60.7401 V 30.9207 H 55.8573 L 55.4588 34.7644 C 56.0682 34.3477 56.7817 34.1394 57.5994 34.1394 C 58.6255 34.1394 59.4432 34.4727 60.0526 35.1394 C 60.6619 35.8061 60.9666 36.6941 60.9666 37.8035 C 60.9666 39.0014 60.6698 39.9311 60.076 40.5925 C 59.4823 41.254 58.6463 41.5847 57.5682 41.5847 C 56.5786 41.5847 55.7765 41.3087 55.1619 40.7566 C 54.5474 40.2045 54.1958 39.4311 54.1073 38.4363 H 55.0057 C 55.0942 39.2123 55.3573 39.8009 55.7948 40.2019 C 56.2323 40.5977 56.8234 40.7957 57.5682 40.7957 C 58.3807 40.7957 58.9927 40.5378 59.4041 40.0222 C 59.8208 39.5066 60.0291 38.7722 60.0291 37.8191 C 60.0291 36.9858 59.7974 36.3061 59.3338 35.78 C 58.8703 35.254 58.2375 34.991 57.4354 34.991 C 56.9927 34.991 56.6073 35.0483 56.2791 35.1628 C 55.951 35.2722 55.6047 35.4884 55.2401 35.8113 L 54.4979 35.6003 Z M 62.8026 40.866 C 62.8026 40.6837 62.8599 40.53 62.9744 40.405 C 63.0942 40.2748 63.2583 40.2097 63.4666 40.2097 C 63.675 40.2097 63.839 40.2748 63.9588 40.405 C 64.0786 40.53 64.1385 40.6837 64.1385 40.866 C 64.1385 41.0483 64.0786 41.1993 63.9588 41.3191 C 63.839 41.4337 63.675 41.491 63.4666 41.491 C 63.2583 41.491 63.0942 41.4337 62.9744 41.3191 C 62.8599 41.1993 62.8026 41.0483 62.8026 40.866 Z M 73.4276 36.6863 C 73.4276 38.2904 73.1333 39.5092 72.5448 40.3425 C 71.9562 41.1707 71.089 41.5847 69.9432 41.5847 C 68.8182 41.5847 67.9562 41.1785 67.3573 40.366 C 66.7583 39.5483 66.451 38.3608 66.4354 36.8035 V 34.7644 C 66.4354 33.1654 66.7323 31.9545 67.326 31.1316 C 67.9198 30.3087 68.7869 29.8972 69.9276 29.8972 C 71.0526 29.8972 71.9119 30.2957 72.5057 31.0925 C 73.0994 31.8842 73.4067 33.0535 73.4276 34.6003 V 36.6863 Z M 72.4901 34.6472 C 72.4901 33.3451 72.2765 32.3608 71.8494 31.6941 C 71.4276 31.0274 70.7869 30.6941 69.9276 30.6941 C 69.0838 30.6941 68.4484 31.0196 68.0213 31.6707 C 67.5942 32.3217 67.3755 33.2826 67.3651 34.5535 V 36.7878 C 67.3651 38.0847 67.5838 39.0769 68.0213 39.7644 C 68.464 40.4519 69.1047 40.7957 69.9432 40.7957 C 70.7765 40.7957 71.4067 40.4597 71.8338 39.7878 C 72.2661 39.116 72.4849 38.1316 72.4901 36.8347 V 34.6472 Z" stroke-linecap="round" />
</g>
</svg>