<?xml version="1.0" encoding="UTF-8"?>
<svg xmlns="http://www.w3.org/2000/svg" xmlns:xlink="http://www.w3.org/1999/xlink" width="225px" height="30px" viewBox="0 0 225 30" version="1.1">
<defs>
<clipPath id="clip1">
  <path d="M 128 0.714844 L 150 0.714844 L 150 29.832031 L 128 29.832031 Z M 128 0.714844 "/>
</clipPath>
<clipPath id="clip2">
  <path d="M 183 0.714844 L 201 0.714844 L 201 29.832031 L 183 29.832031 Z M 183 0.714844 "/>
</clipPath>
<clipPath id="clip3">
  <path d="M 0 1 L 21 1 L 21 29.832031 L 0 29.832031 Z M 0 1 "/>
</clipPath>
<clipPath id="clip4">
  <path d="M 32 1 L 49 1 L 49 29.832031 L 32 29.832031 Z M 32 1 "/>
</clipPath>
<clipPath id="clip5">
  <path d="M 27 14 L 34 14 L 34 29.832031 L 27 29.832031 Z M 27 14 "/>
</clipPath>
<clipPath id="clip6">
  <path d="M 162 1 L 178 1 L 178 29.832031 L 162 29.832031 Z M 162 1 "/>
</clipPath>
<clipPath id="clip7">
  <path d="M 156 14 L 163 14 L 163 29.832031 L 156 29.832031 Z M 156 14 "/>
</clipPath>
<clipPath id="clip8">
  <path d="M 54 1 L 75 1 L 75 29.832031 L 54 29.832031 Z M 54 1 "/>
</clipPath>
<clipPath id="clip9">
  <path d="M 84 25 L 103 25 L 103 29.832031 L 84 29.832031 Z M 84 25 "/>
</clipPath>
<clipPath id="clip10">
  <path d="M 110 1 L 126 1 L 126 29.832031 L 110 29.832031 Z M 110 1 "/>
</clipPath>
<clipPath id="clip11">
  <path d="M 204 1 L 224 1 L 224 29.832031 L 204 29.832031 Z M 204 1 "/>
</clipPath>
</defs>
<g id="surface1">
<g clip-path="url(#clip1)" clip-rule="nonzero">
<path style=" stroke:none;fill-rule:nonzero;fill:rgb(4.313725%,16.862745%,22.352941%);fill-opacity:1;" d="M 137.523438 5.71875 C 139.011719 4.964844 140.628906 4.578125 142.332031 4.578125 C 144.152344 4.578125 145.878906 5.007812 147.484375 5.859375 C 147.875 6.039062 148.195312 6.125 148.46875 6.125 C 148.921875 6.125 149.300781 5.941406 149.5625 5.589844 C 149.800781 5.269531 149.925781 4.882812 149.925781 4.441406 C 149.925781 3.617188 149.589844 2.976562 148.921875 2.546875 C 147.996094 1.960938 146.9375 1.503906 145.765625 1.1875 C 144.605469 0.871094 143.386719 0.714844 142.148438 0.714844 C 139.875 0.714844 137.671875 1.238281 135.609375 2.277344 C 133.535156 3.320312 131.820312 4.945312 130.519531 7.109375 C 129.21875 9.269531 128.558594 11.945312 128.558594 15.0625 C 128.558594 18.183594 129.21875 20.828125 130.519531 23 C 131.820312 25.175781 133.523438 26.820312 135.585938 27.886719 C 137.640625 28.953125 139.835938 29.492188 142.113281 29.492188 C 144.691406 29.492188 146.980469 28.851562 148.90625 27.589844 C 149.230469 27.402344 149.484375 27.140625 149.664062 26.808594 C 149.839844 26.488281 149.925781 26.148438 149.925781 25.800781 C 149.925781 25.332031 149.789062 24.921875 149.515625 24.585938 C 149.230469 24.230469 148.84375 24.042969 148.398438 24.042969 C 148.089844 24.042969 147.796875 24.125 147.535156 24.28125 C 145.902344 25.148438 144.148438 25.589844 142.332031 25.589844 C 140.605469 25.589844 138.976562 25.191406 137.488281 24.414062 C 136.007812 23.640625 134.796875 22.449219 133.894531 20.867188 C 132.988281 19.285156 132.527344 17.332031 132.527344 15.066406 C 132.527344 12.800781 132.992188 10.777344 133.910156 9.210938 C 134.828125 7.644531 136.042969 6.472656 137.519531 5.722656 Z M 137.523438 5.71875 "/>
</g>
<g clip-path="url(#clip2)" clip-rule="nonzero">
<path style=" stroke:none;fill-rule:nonzero;fill:rgb(4.313725%,16.862745%,22.352941%);fill-opacity:1;" d="M 198.039062 6.453125 C 199.046875 5.859375 199.71875 4.648438 196.96875 2.394531 C 196.953125 2.382812 196.9375 2.371094 196.921875 2.359375 C 195.496094 1.273438 193.71875 0.753906 191.675781 0.753906 C 190.160156 0.753906 188.773438 1.054688 187.550781 1.65625 C 186.316406 2.257812 185.332031 3.136719 184.628906 4.261719 C 183.921875 5.390625 183.5625 6.695312 183.5625 8.140625 C 183.5625 9.71875 183.933594 11.058594 184.671875 12.125 C 185.394531 13.171875 186.277344 14.023438 187.304688 14.660156 C 188.296875 15.28125 189.625 15.960938 191.238281 16.679688 C 192.519531 17.261719 193.554688 17.769531 194.308594 18.199219 C 195.035156 18.609375 195.648438 19.125 196.132812 19.734375 C 196.601562 20.328125 196.828125 21.023438 196.828125 21.863281 C 196.828125 23.0625 196.410156 24.003906 195.550781 24.726562 C 194.683594 25.457031 193.492188 25.832031 192 25.832031 C 190.738281 25.832031 189.769531 25.703125 188.722656 25.109375 C 188.421875 24.941406 188.023438 24.617188 187.613281 24.171875 C 186.34375 22.800781 185.96875 21.960938 184.625 22.304688 C 183.597656 22.570312 183.066406 23.734375 183.558594 25.070312 C 184.207031 26.84375 186.351562 28.046875 186.351562 28.046875 C 187.9375 29.085938 189.867188 29.476562 192 29.476562 C 193.699219 29.476562 195.242188 29.160156 196.585938 28.542969 C 197.941406 27.917969 199.019531 27 199.785156 25.824219 C 200.554688 24.644531 200.945312 23.246094 200.945312 21.671875 C 200.945312 20.097656 200.578125 18.761719 199.851562 17.707031 C 199.140625 16.667969 198.257812 15.839844 197.230469 15.238281 C 196.234375 14.660156 194.910156 14.015625 193.292969 13.320312 C 191.964844 12.765625 190.90625 12.269531 190.136719 11.839844 C 189.402344 11.433594 188.777344 10.902344 188.285156 10.269531 C 187.800781 9.652344 187.570312 8.917969 187.570312 8.023438 C 187.570312 6.898438 187.949219 6.039062 188.734375 5.390625 C 189.527344 4.734375 190.53125 4.402344 191.710938 4.402344 C 192.890625 4.402344 193.773438 4.789062 194.597656 5.375 C 194.648438 5.410156 195.101562 5.804688 195.101562 5.804688 C 196.625 7.222656 198.035156 6.453125 198.035156 6.453125 Z M 198.039062 6.453125 "/>
</g>
<g clip-path="url(#clip3)" clip-rule="nonzero">
<path style=" stroke:none;fill-rule:nonzero;fill:rgb(4.313725%,16.862745%,22.352941%);fill-opacity:1;" d="M 18.324219 1.179688 C 17.25 1.179688 16.378906 2.042969 16.378906 3.113281 L 16.378906 13.21875 L 3.890625 13.21875 L 3.890625 3.113281 C 3.890625 2.042969 3.019531 1.179688 1.945312 1.179688 C 0.871094 1.179688 0 2.042969 0 3.113281 L 0 27.117188 C 0 28.1875 0.871094 29.050781 1.945312 29.050781 C 3.019531 29.050781 3.890625 28.1875 3.890625 27.117188 L 3.890625 16.992188 L 16.378906 16.992188 L 16.378906 27.117188 C 16.378906 28.1875 17.25 29.050781 18.324219 29.050781 C 19.398438 29.050781 20.265625 28.1875 20.265625 27.117188 L 20.265625 3.113281 C 20.265625 2.042969 19.398438 1.179688 18.324219 1.179688 Z M 18.324219 1.179688 "/>
</g>
<g clip-path="url(#clip4)" clip-rule="nonzero">
<path style=" stroke:none;fill-rule:nonzero;fill:rgb(4.313725%,16.862745%,22.352941%);fill-opacity:1;" d="M 48.613281 26.460938 L 40.699219 3.160156 C 40.492188 2.578125 40.191406 2.105469 39.804688 1.75 C 39.394531 1.375 38.925781 1.183594 38.410156 1.183594 L 37.59375 1.183594 C 37.125 1.183594 36.671875 1.382812 36.25 1.769531 C 35.851562 2.136719 35.554688 2.605469 35.371094 3.164062 L 32.988281 10.207031 L 34.835938 15.996094 C 36.355469 10.925781 37.996094 6.5 38.074219 6.242188 L 44.871094 27.679688 C 45.203125 28.730469 46.339844 29.300781 47.386719 28.945312 C 48.414062 28.597656 48.964844 27.488281 48.617188 26.464844 Z M 48.613281 26.460938 "/>
</g>
<g clip-path="url(#clip5)" clip-rule="nonzero">
<path style=" stroke:none;fill-rule:nonzero;fill:rgb(6.27451%,64.313725%,70.196078%);fill-opacity:1;" d="M 31.488281 14.8125 L 27.53125 26.460938 C 27.183594 27.484375 27.734375 28.597656 28.761719 28.945312 C 29.808594 29.300781 30.945312 28.726562 31.277344 27.679688 L 33.414062 20.636719 L 31.488281 14.808594 Z M 31.488281 14.8125 "/>
</g>
<g clip-path="url(#clip6)" clip-rule="nonzero">
<path style=" stroke:none;fill-rule:nonzero;fill:rgb(4.313725%,16.862745%,22.352941%);fill-opacity:1;" d="M 177.839844 26.460938 L 169.925781 3.160156 C 169.71875 2.578125 169.414062 2.105469 169.03125 1.75 C 168.621094 1.375 168.152344 1.183594 167.636719 1.183594 L 166.820312 1.183594 C 166.351562 1.183594 165.898438 1.382812 165.476562 1.769531 C 165.078125 2.136719 164.78125 2.605469 164.597656 3.164062 L 162.214844 10.207031 L 164.058594 15.996094 C 165.582031 10.925781 167.21875 6.5 167.296875 6.242188 L 174.09375 27.679688 C 174.429688 28.730469 175.5625 29.300781 176.609375 28.945312 C 177.640625 28.597656 178.191406 27.488281 177.839844 26.464844 Z M 177.839844 26.460938 "/>
</g>
<g clip-path="url(#clip7)" clip-rule="nonzero">
<path style=" stroke:none;fill-rule:nonzero;fill:rgb(6.27451%,64.313725%,70.196078%);fill-opacity:1;" d="M 160.710938 14.8125 L 156.757812 26.460938 C 156.40625 27.484375 156.957031 28.597656 157.988281 28.945312 C 159.035156 29.300781 160.171875 28.726562 160.5 27.679688 L 162.636719 20.636719 L 160.710938 14.808594 Z M 160.710938 14.8125 "/>
</g>
<g clip-path="url(#clip8)" clip-rule="nonzero">
<path style=" stroke:none;fill-rule:nonzero;fill:rgb(4.313725%,16.862745%,22.352941%);fill-opacity:1;" d="M 73.0625 25.300781 L 60.71875 25.300781 L 74.070312 3.726562 C 74.320312 3.308594 74.445312 2.945312 74.445312 2.621094 C 74.445312 2.207031 74.269531 1.84375 73.929688 1.570312 C 73.613281 1.3125 73.191406 1.183594 72.679688 1.183594 L 56.769531 1.183594 C 55.726562 1.183594 54.882812 2.023438 54.882812 3.058594 C 54.882812 4.097656 55.726562 4.933594 56.769531 4.933594 L 69.074219 4.933594 L 55.625 26.5 C 55.371094 26.890625 55.242188 27.265625 55.242188 27.617188 C 55.242188 28.058594 55.414062 28.429688 55.738281 28.6875 C 56.042969 28.929688 56.457031 29.054688 56.96875 29.054688 L 73.058594 29.054688 C 74.101562 29.054688 74.945312 28.214844 74.945312 27.179688 C 74.945312 26.140625 74.101562 25.304688 73.058594 25.304688 Z M 73.0625 25.300781 "/>
</g>
<path style=" stroke:none;fill-rule:nonzero;fill:rgb(4.313725%,16.862745%,22.352941%);fill-opacity:1;" d="M 102.796875 3.042969 C 102.796875 2 101.945312 1.152344 100.898438 1.152344 L 86.226562 1.152344 C 85.203125 1.152344 84.371094 1.976562 84.371094 2.996094 L 84.371094 4.929688 L 100.898438 4.929688 C 101.945312 4.929688 102.796875 4.082031 102.796875 3.039062 Z M 102.796875 3.042969 "/>
<g clip-path="url(#clip9)" clip-rule="nonzero">
<path style=" stroke:none;fill-rule:nonzero;fill:rgb(4.313725%,16.862745%,22.352941%);fill-opacity:1;" d="M 101 25.277344 L 84.472656 25.277344 L 84.472656 27.210938 C 84.472656 28.226562 85.304688 29.050781 86.328125 29.050781 L 101 29.050781 C 102.046875 29.050781 102.898438 28.207031 102.898438 27.164062 C 102.898438 26.121094 102.046875 25.273438 101 25.273438 Z M 101 25.277344 "/>
</g>
<path style=" stroke:none;fill-rule:nonzero;fill:rgb(4.313725%,16.862745%,22.352941%);fill-opacity:1;" d="M 101 13.214844 L 79.84375 13.214844 L 79.84375 16.988281 L 101 16.988281 C 102.046875 16.988281 102.898438 16.144531 102.898438 15.101562 C 102.898438 14.058594 102.050781 13.214844 101 13.214844 Z M 101 13.214844 "/>
<g clip-path="url(#clip10)" clip-rule="nonzero">
<path style=" stroke:none;fill-rule:nonzero;fill:rgb(4.313725%,16.862745%,22.352941%);fill-opacity:1;" d="M 123.613281 25.277344 L 114.070312 25.277344 L 114.070312 3.136719 C 114.070312 2.054688 113.1875 1.175781 112.097656 1.175781 C 111.007812 1.175781 110.125 2.054688 110.125 3.136719 L 110.125 27.207031 C 110.125 28.226562 110.953125 29.050781 111.980469 29.050781 L 123.609375 29.050781 C 124.65625 29.050781 125.507812 28.207031 125.507812 27.160156 C 125.507812 26.117188 124.660156 25.273438 123.609375 25.273438 Z M 123.613281 25.277344 "/>
</g>
<g clip-path="url(#clip11)" clip-rule="nonzero">
<path style=" stroke:none;fill-rule:nonzero;fill:rgb(4.313725%,16.862745%,22.352941%);fill-opacity:1;" d="M 221.226562 1.179688 L 206.585938 1.179688 C 205.539062 1.179688 204.6875 2.023438 204.6875 3.066406 C 204.6875 4.113281 205.535156 4.957031 206.585938 4.957031 L 211.933594 4.957031 L 211.933594 27.09375 C 211.933594 28.175781 212.816406 29.054688 213.90625 29.054688 C 214.996094 29.054688 215.878906 28.175781 215.878906 27.09375 L 215.878906 4.953125 L 221.226562 4.953125 C 222.273438 4.953125 223.125 4.109375 223.125 3.066406 C 223.125 2.023438 222.277344 1.175781 221.226562 1.175781 Z M 221.226562 1.179688 "/>
</g>
</g>
</svg>
