<?xml version="1.0" encoding="UTF-8" standalone="no"?>
<svg
   xmlns:dc="http://purl.org/dc/elements/1.1/"
   xmlns:cc="http://creativecommons.org/ns#"
   xmlns:rdf="http://www.w3.org/1999/02/22-rdf-syntax-ns#"
   xmlns:svg="http://www.w3.org/2000/svg"
   xmlns="http://www.w3.org/2000/svg"
   xmlns:sodipodi="http://sodipodi.sourceforge.net/DTD/sodipodi-0.dtd"
   xmlns:inkscape="http://www.inkscape.org/namespaces/inkscape"
   width="175px"
   height="23px"
   viewBox="0 0 172 23"
   version="1.1"
   id="svg872"
   sodipodi:docname="hazelcast-logo.svg"
   inkscape:version="1.0.2 (e86c8708, 2021-01-15)">
  <metadata
     id="metadata876">
    <rdf:RDF>
      <cc:Work
         rdf:about="">
        <dc:format>image/svg+xml</dc:format>
        <dc:type
           rdf:resource="http://purl.org/dc/dcmitype/StillImage" />
      </cc:Work>
    </rdf:RDF>
  </metadata>
  <sodipodi:namedview
     pagecolor="#ffffff"
     bordercolor="#666666"
     borderopacity="1"
     objecttolerance="10"
     gridtolerance="10"
     guidetolerance="10"
     inkscape:pageopacity="0"
     inkscape:pageshadow="2"
     inkscape:window-width="1634"
     inkscape:window-height="919"
     id="namedview874"
     showgrid="false"
     inkscape:zoom="3.5314286"
     inkscape:cx="87.5"
     inkscape:cy="11.5"
     inkscape:window-x="0"
     inkscape:window-y="25"
     inkscape:window-maximized="0"
     inkscape:current-layer="svg872" />
  <defs
     id="defs839">
    <clipPath
       id="clip1">
      <path
         d="M 82.507812 0.546875 L 96.359375 0.546875 L 96.359375 19.304688 L 82.507812 19.304688 Z M 82.507812 0.546875 "
         id="path833" />
    </clipPath>
    <clipPath
       id="clip2">
      <path
         d="M 117.4375 0.546875 L 129.480469 0.546875 L 129.480469 19.304688 L 117.4375 19.304688 Z M 117.4375 0.546875 "
         id="path836" />
    </clipPath>
  </defs>
  <g
     id="surface1"
     transform="matrix(1.2209413,0,0,1.2209413,0,-0.12082729)">
    <g
       clip-path="url(#clip1)"
       clip-rule="nonzero"
       id="g843">
      <path
         style="fill:#072635;fill-opacity:1;fill-rule:nonzero;stroke:none"
         d="m 88.34375,3.769531 c 0.957031,-0.484375 1.996094,-0.734375 3.089844,-0.734375 1.167968,0 2.277344,0.277344 3.308594,0.828125 0.25,0.113281 0.457031,0.167969 0.632812,0.167969 0.292969,0 0.535156,-0.117188 0.703125,-0.339844 0.152344,-0.207031 0.234375,-0.460937 0.234375,-0.742187 0,-0.53125 -0.21875,-0.945313 -0.648438,-1.222657 -0.59375,-0.375 -1.273437,-0.667968 -2.023437,-0.871093 -0.75,-0.207031 -1.53125,-0.308594 -2.324219,-0.308594 -1.460937,0 -2.875,0.339844 -4.203125,1.007813 -1.332031,0.671874 -2.433593,1.71875 -3.269531,3.113281 -0.835938,1.390625 -1.257812,3.117187 -1.257812,5.125 0,2.007812 0.421874,3.710937 1.257812,5.109375 0.835938,1.402344 1.929688,2.460937 3.253906,3.152344 1.320313,0.6875 2.730469,1.035156 4.195313,1.035156 1.65625,0 3.128906,-0.414063 4.363281,-1.226563 0.207031,-0.121093 0.371094,-0.289062 0.484375,-0.503906 0.113281,-0.207031 0.171875,-0.425781 0.171875,-0.648437 0,-0.304688 -0.08984,-0.566407 -0.265625,-0.785157 -0.183594,-0.226562 -0.429687,-0.347656 -0.71875,-0.347656 -0.199219,0 -0.386719,0.05078 -0.554687,0.152344 -1.046876,0.558593 -2.171876,0.839843 -3.339844,0.839843 -1.109375,0 -2.15625,-0.253906 -3.113282,-0.753906 -0.949218,-0.5 -1.726562,-1.265625 -2.308593,-2.28125 -0.582031,-1.023437 -0.878907,-2.28125 -0.878907,-3.742187 0,-1.460938 0.300782,-2.761719 0.890626,-3.773438 0.589843,-1.007812 1.371093,-1.761719 2.316406,-2.246093 z m 0,0"
         id="path841" />
    </g>
    <g
       clip-path="url(#clip2)"
       clip-rule="nonzero"
       id="g847">
      <path
         style="fill:#072635;fill-opacity:1;fill-rule:nonzero;stroke:none"
         d="m 127.21875,4.246094 c 0.64844,-0.382813 1.07812,-1.164063 -0.6875,-2.617188 -0.0117,-0.00391 -0.0195,-0.011718 -0.0312,-0.023437 -0.91406,-0.695313 -2.05859,-1.03125 -3.36719,-1.03125 -0.97265,0 -1.86718,0.195312 -2.65234,0.578125 -0.79297,0.386718 -1.42578,0.953125 -1.87891,1.679687 -0.45312,0.726563 -0.68359,1.566407 -0.68359,2.5 0,1.015625 0.24219,1.878907 0.71484,2.566407 0.46094,0.671874 1.03125,1.226562 1.6875,1.636718 0.64063,0.398438 1.49219,0.835938 2.53125,1.296875 0.82032,0.375 1.48438,0.707031 1.97266,0.980469 0.46484,0.261719 0.85937,0.597656 1.16797,0.988281 0.30078,0.382813 0.44922,0.828125 0.44922,1.371094 0,0.773437 -0.26953,1.378906 -0.82422,1.847656 -0.55469,0.46875 -1.32031,0.707031 -2.27735,0.707031 -0.8125,0 -1.43359,-0.08203 -2.10546,-0.460937 -0.19532,-0.109375 -0.44922,-0.320313 -0.71485,-0.605469 -0.8164,-0.882812 -1.05469,-1.425781 -1.91797,-1.203125 -0.66015,0.171875 -1.0039,0.921875 -0.6875,1.78125 0.41797,1.144531 1.79688,1.917969 1.79688,1.917969 1.01562,0.671875 2.25781,0.921875 3.625,0.921875 1.09375,0 2.08594,-0.203125 2.94922,-0.601563 0.87109,-0.402343 1.5625,-0.992187 2.05468,-1.753906 0.4961,-0.757812 0.7461,-1.65625 0.7461,-2.671875 0,-1.015625 -0.23828,-1.875 -0.70313,-2.554687 -0.45703,-0.667969 -1.02343,-1.203125 -1.68359,-1.589844 -0.64063,-0.375 -1.48828,-0.789062 -2.53125,-1.238281 -0.85156,-0.355469 -1.53125,-0.675781 -2.02734,-0.949219 -0.46875,-0.265625 -0.8711,-0.605469 -1.1875,-1.015625 -0.3125,-0.398437 -0.46094,-0.871094 -0.46094,-1.445313 0,-0.726562 0.24609,-1.277343 0.75,-1.699218 0.50781,-0.421875 1.15234,-0.636719 1.91015,-0.636719 0.75782,0 1.32422,0.25 1.85547,0.625 0.0312,0.023437 0.32032,0.28125 0.32032,0.28125 0.98046,0.910156 1.88671,0.417969 1.88671,0.417969 z m 0,0"
         id="path845" />
    </g>
    <path
       style="fill:#072635;fill-opacity:1;fill-rule:nonzero;stroke:none"
       d="m 11.769531,0.847656 c -0.6875,0 -1.25,0.554688 -1.25,1.246094 V 8.601562 H 2.5 V 2.09375 C 2.5,1.402344 1.9375,0.847656 1.25,0.847656 0.558594,0.847656 0,1.402344 0,2.09375 v 15.464844 c 0,0.6875 0.558594,1.246094 1.25,1.246094 0.6875,0 1.25,-0.558594 1.25,-1.246094 v -6.523438 h 8.019531 v 6.523438 c 0,0.6875 0.5625,1.246094 1.25,1.246094 0.691407,0 1.25,-0.558594 1.25,-1.246094 V 2.09375 c 0,-0.691406 -0.558593,-1.246094 -1.25,-1.246094 z m 0,0"
       id="path849" />
    <path
       style="fill:#072635;fill-opacity:1;fill-rule:nonzero;stroke:none"
       d="M 31.230469,17.136719 26.144531,2.125 C 26.011719,1.75 25.820312,1.445312 25.570312,1.214844 25.308594,0.972656 25.007812,0.847656 24.675781,0.847656 h -0.523437 c -0.300782,0 -0.59375,0.128906 -0.863282,0.378906 C 23.03125,1.464844 22.839844,1.765625 22.722656,2.125 l -1.53125,4.539062 1.1875,3.730469 C 23.355469,7.128906 24.40625,4.273438 24.457031,4.109375 l 4.367188,13.808594 c 0.210937,0.679687 0.945312,1.046875 1.613281,0.820312 0.664062,-0.226562 1.019531,-0.941406 0.792969,-1.601562 z m 0,0"
       id="path851" />
    <path
       style="fill:#0ca1b3;fill-opacity:1;fill-rule:nonzero;stroke:none"
       d="M 20.226562,9.628906 17.6875,17.136719 c -0.226562,0.65625 0.128906,1.375 0.789062,1.597656 0.671876,0.230469 1.402344,-0.140625 1.617188,-0.816406 l 1.371094,-4.535157 z m 0,0"
       id="path853" />
    <path
       style="fill:#072635;fill-opacity:1;fill-rule:nonzero;stroke:none"
       d="M 114.24219,17.136719 109.16016,2.125 C 109.02344,1.75 108.83203,1.445312 108.58594,1.214844 108.32031,0.972656 108.01953,0.847656 107.6875,0.847656 h -0.52344 c -0.30078,0 -0.59375,0.128906 -0.86328,0.378906 -0.25781,0.238282 -0.44922,0.539063 -0.5664,0.898438 l -1.53125,4.539062 1.1875,3.730469 c 0.97656,-3.265625 2.03125,-6.121093 2.08203,-6.285156 l 4.36718,13.808594 c 0.21094,0.679687 0.94141,1.046875 1.61329,0.820312 0.66015,-0.226562 1.01562,-0.941406 0.79296,-1.601562 z m 0,0"
       id="path855" />
    <path
       style="fill:#0ca1b3;fill-opacity:1;fill-rule:nonzero;stroke:none"
       d="m 103.23828,9.628906 -2.53906,7.507813 c -0.22656,0.65625 0.12891,1.375 0.78906,1.597656 0.67578,0.230469 1.40235,-0.140625 1.61719,-0.816406 l 1.37109,-4.535157 z m 0,0"
       id="path857" />
    <path
       style="fill:#072635;fill-opacity:1;fill-rule:nonzero;stroke:none"
       d="M 46.933594,16.386719 H 39.003906 L 47.582031,2.488281 c 0.160157,-0.269531 0.242188,-0.5 0.242188,-0.710937 0,-0.265625 -0.117188,-0.503906 -0.332031,-0.679688 C 47.289062,0.933594 47.019531,0.851562 46.6875,0.851562 H 36.46875 c -0.671875,0 -1.210938,0.539063 -1.210938,1.207032 0,0.667968 0.539063,1.210937 1.210938,1.210937 h 7.902344 l -8.640625,13.890625 c -0.160157,0.25 -0.242188,0.492188 -0.242188,0.722656 0,0.28125 0.109375,0.519532 0.316407,0.6875 0.195312,0.15625 0.460937,0.234376 0.792968,0.234376 h 10.335938 c 0.667968,0 1.210937,-0.539063 1.210937,-1.207032 0,-0.667968 -0.542969,-1.210937 -1.210937,-1.210937 z m 0,0"
       id="path859" />
    <path
       style="fill:#072635;fill-opacity:1;fill-rule:nonzero;stroke:none"
       d="m 66.035156,2.046875 c 0,-0.671875 -0.546875,-1.214844 -1.21875,-1.214844 h -9.425781 c -0.65625,0 -1.191406,0.53125 -1.191406,1.183594 v 1.246094 h 10.617187 c 0.671875,0 1.222656,-0.542969 1.222656,-1.214844 z m 0,0"
       id="path861" />
    <path
       style="fill:#072635;fill-opacity:1;fill-rule:nonzero;stroke:none"
       d="M 64.882812,16.371094 H 54.265625 v 1.246094 c 0,0.65625 0.53125,1.1875 1.191406,1.1875 h 9.421875 c 0.675782,0 1.222656,-0.546876 1.222656,-1.21875 0,-0.671876 -0.546874,-1.214844 -1.222656,-1.214844 z m 0,0"
       id="path863" />
    <path
       style="fill:#072635;fill-opacity:1;fill-rule:nonzero;stroke:none"
       d="M 64.882812,8.601562 H 51.292969 v 2.429688 h 13.589843 c 0.671876,0 1.21875,-0.542969 1.21875,-1.214844 0,-0.671875 -0.542968,-1.214844 -1.21875,-1.214844 z m 0,0"
       id="path865" />
    <path
       style="fill:#072635;fill-opacity:1;fill-rule:nonzero;stroke:none"
       d="M 79.40625,16.371094 H 73.277344 V 2.109375 c 0,-0.699219 -0.566406,-1.261719 -1.265625,-1.261719 -0.699219,0 -1.265625,0.5625 -1.265625,1.261719 v 15.507813 c 0,0.65625 0.53125,1.183593 1.1875,1.183593 h 7.46875 c 0.675781,0 1.222656,-0.542969 1.222656,-1.214843 0,-0.671876 -0.546875,-1.214844 -1.222656,-1.214844 z m 0,0"
       id="path867" />
    <path
       style="fill:#072635;fill-opacity:1;fill-rule:nonzero;stroke:none"
       d="m 142.11328,0.847656 h -9.40234 c -0.67578,0 -1.22266,0.542969 -1.22266,1.21875 0,0.671875 0.54688,1.214844 1.22266,1.214844 h 3.43359 v 14.261719 c 0,0.695312 0.57031,1.261719 1.26563,1.261719 0.69921,0 1.26953,-0.566407 1.26953,-1.261719 V 3.28125 h 3.43359 c 0.67578,0 1.21875,-0.546875 1.21875,-1.21875 0,-0.671875 -0.54297,-1.214844 -1.21875,-1.214844 z m 0,0"
       id="path869" />
  </g>
</svg>
