<svg width="166" height="32" viewBox="0 0 166 32" fill="none" xmlns="http://www.w3.org/2000/svg">
<g clip-path="url(#clip0)">
<path d="M26.4 0H15.9448V14.1279H29.8134V3.47722C29.8134 2.555 29.4538 1.67056 28.8137 1.01845C28.1735 0.366349 27.3053 0 26.4 0" fill="#2D7DE4"/>
<path d="M26.4 17.8721H19.3582C18.9097 17.8712 18.4655 17.9605 18.0509 18.1349C17.6364 18.3094 17.2598 18.5654 16.9426 18.8885C16.6255 19.2116 16.3741 19.5953 16.2029 20.0176C16.0316 20.4398 15.9439 20.8924 15.9448 21.3493V32H29.8134V21.3493C29.8143 20.8924 29.7266 20.4398 29.5554 20.0176C29.3842 19.5953 29.1328 19.2116 28.8157 18.8885C28.4985 18.5654 28.1219 18.3094 27.7073 18.1349C27.2928 17.9605 26.8485 17.8712 26.4 17.8721Z" fill="#041A3B"/>
<path d="M11.8864 32H3.46715C2.54761 32 1.66572 31.6279 1.01551 30.9655C0.365288 30.3031 0 29.4048 0 28.468L0 3.53198C0 2.59524 0.365288 1.69687 1.01551 1.03449C1.66572 0.372118 2.54761 0 3.46715 0L11.8864 0V32Z" fill="#041A3B"/>
<path d="M129.104 20.391C126.927 20.391 125.866 21.1235 125.866 22.6362C125.866 24.1489 126.659 24.8882 128.365 24.8882C129.961 24.9353 131.528 24.455 132.834 23.5192V20.6512C131.598 20.476 130.352 20.3891 129.104 20.391ZM136.072 27.6672H134.13L133.264 26.2298C131.798 27.1722 130.099 27.6707 128.365 27.6672C124.555 27.6672 122.627 25.9902 122.627 22.6841C122.627 19.378 124.804 17.6052 129.104 17.6052C130.352 17.6068 131.598 17.6937 132.834 17.8653V16.7085C132.834 15.0862 131.57 14.2991 128.977 14.2991C127.361 14.3191 125.757 14.575 124.213 15.0589L123.863 15.1615V12.3209L124.058 12.2661C125.654 11.778 127.31 11.5245 128.977 11.5132C133.68 11.5132 136.072 13.2313 136.072 16.6263V27.6672Z" fill="#041A3B"/>
<path d="M53.6468 27.6671H50.3947V17.5572C50.3978 16.7447 50.0951 15.962 49.5489 15.3699C49.0027 14.7779 48.2546 14.4216 47.4584 14.3743H47.2837C45.7304 14.4239 44.2535 15.0722 43.1513 16.1882V27.6671H39.9126V5.43481H41.579C41.996 5.43481 42.3959 5.60357 42.6908 5.90394C42.9856 6.20432 43.1513 6.61173 43.1513 7.03653V12.9232C44.4633 11.9766 46.0392 11.4847 47.6465 11.5199C51.631 11.5199 53.6468 13.5734 53.6468 17.6051V27.6671Z" fill="#041A3B"/>
<path d="M62.3415 20.391C60.1577 20.391 59.0961 21.1235 59.0961 22.6362C59.0961 24.1489 59.889 24.8882 61.5957 24.8882C63.1915 24.9383 64.76 24.4577 66.064 23.5192V20.6512C64.8306 20.4762 63.5868 20.3893 62.3415 20.391ZM69.3027 27.6672H67.3608L66.5209 26.2298C65.0553 27.1732 63.3562 27.6718 61.6226 27.6672C57.8127 27.6672 55.8843 25.9902 55.8843 22.6841C55.8843 19.378 58.0613 17.6052 62.3684 17.6052C63.6135 17.6071 64.8571 17.694 66.0909 17.8653V16.7085C66.0909 15.0862 64.8277 14.2991 62.234 14.2991C60.6095 14.3165 58.996 14.5724 57.4432 15.0589L57.0938 15.1615V12.3209L57.2886 12.2661C58.8846 11.778 60.5408 11.5245 62.2071 11.5132C66.9106 11.5132 69.3027 13.2313 69.3027 16.6263V27.6672Z" fill="#041A3B"/>
<path d="M84.1254 27.6672H71.6276V25.2099L71.6948 25.1346L80.5777 14.2991H71.9232V11.52H84.4144V14.1211L84.3539 14.1964L75.5785 25.0319H84.1254V27.6672Z" fill="#041A3B"/>
<path d="M89.0306 17.7968H96.7577C96.6233 15.408 95.4139 14.2512 93.1024 14.2512C90.623 14.2512 89.2993 15.408 89.0709 17.7968H89.0306ZM93.9692 27.6467C88.5535 27.6467 85.812 24.8676 85.812 19.3917C85.812 14.1553 88.2713 11.4995 93.1226 11.4995C97.638 11.4995 99.9225 13.8062 99.9225 18.3444C99.9215 19.031 99.8789 19.7167 99.7949 20.3979L99.7613 20.6443H89.0171C89.1179 23.485 90.8179 24.8745 94.2178 24.8745C95.7553 24.9 97.2887 24.7064 98.7735 24.2995L99.1229 24.2037V27.0033L98.9213 27.058C97.2907 27.4957 95.6082 27.7008 93.9222 27.6672" fill="#041A3B"/>
<path d="M105.809 27.6671H102.57V5.43481H104.236C104.653 5.43481 105.053 5.60357 105.348 5.90394C105.643 6.20432 105.809 6.61173 105.809 7.03653V27.6671Z" fill="#041A3B"/>
<path d="M116.58 27.6671C110.983 27.6671 108.147 24.847 108.147 19.2957C108.147 14.1347 110.983 11.5199 116.58 11.5199C117.974 11.5109 119.365 11.6624 120.725 11.9717L120.934 12.0196V14.8123L120.605 14.737C119.234 14.4305 117.835 14.2835 116.432 14.299C113.039 14.299 111.386 15.9349 111.386 19.2957C111.386 23.0536 113.039 24.888 116.432 24.888C117.834 24.9001 119.234 24.7531 120.605 24.45L120.934 24.3678V27.1674L120.725 27.2153C119.365 27.5246 117.974 27.6761 116.58 27.6671Z" fill="#041A3B"/>
<path d="M144.875 27.6672C143.009 27.6654 141.152 27.4123 139.351 26.9142L139.15 26.8595V23.8888L139.499 24.0052C141.234 24.5872 143.048 24.8852 144.875 24.8881C148.234 24.8881 148.234 23.4165 148.234 22.9305C148.234 22.157 147.999 21.1303 145.95 21.1303H143.793C140.326 21.1303 138.565 19.4875 138.565 16.2499C138.565 13.0122 140.803 11.52 145.211 11.52C147.07 11.5222 148.92 11.7754 150.714 12.273L150.915 12.3277V15.2916L150.566 15.1752C148.83 14.5976 147.016 14.3019 145.19 14.2991C141.636 14.2991 141.636 15.7707 141.636 16.2499C141.636 17.4819 142.308 18.0569 143.773 18.0569H145.956C149.625 18.0569 151.48 19.6929 151.48 22.9305C151.48 26.1681 149.249 27.6672 144.854 27.6672" fill="#041A3B"/>
<path d="M160.887 27.6671H158.051C155.316 27.6671 153.932 26.1612 153.932 23.1837V8.99414H156.109L156.687 11.5199H160.887V14.299H157.171V22.9783C157.171 24.2788 157.675 24.888 158.75 24.888H160.887V27.6671Z" fill="#041A3B"/>
<path d="M166 9.58298C166.007 9.95034 165.944 10.3156 165.812 10.6576C165.691 10.9573 165.513 11.2295 165.288 11.4585C165.075 11.6748 164.821 11.8448 164.542 11.9582C164.255 12.0734 163.95 12.1315 163.642 12.1293C163.336 12.1315 163.032 12.0734 162.748 11.9582C162.466 11.8467 162.209 11.6765 161.995 11.4585C161.773 11.2291 161.597 10.9569 161.478 10.6576C161.218 9.96798 161.218 9.20483 161.478 8.51518C161.597 8.21596 161.773 7.94374 161.995 7.71432C162.209 7.49628 162.466 7.3261 162.748 7.21464C163.032 7.09942 163.336 7.04131 163.642 7.04352C163.95 7.04129 164.255 7.09938 164.542 7.21464C164.821 7.32797 165.075 7.49798 165.288 7.71432C165.513 7.94335 165.691 8.21555 165.812 8.51518C165.943 8.85502 166.007 9.2179 166 9.58298ZM165.496 9.58298C165.498 9.29661 165.453 9.01191 165.362 8.74106C165.281 8.48873 165.151 8.25582 164.979 8.05657C164.814 7.87643 164.615 7.73208 164.394 7.63218C163.912 7.44086 163.378 7.44086 162.896 7.63218C162.673 7.72851 162.473 7.87336 162.311 8.05657C162.134 8.25216 162.003 8.48624 161.928 8.74106C161.74 9.28836 161.74 9.88445 161.928 10.4318C162.006 10.6851 162.137 10.9185 162.311 11.1162C162.473 11.2995 162.673 11.4443 162.896 11.5406C163.378 11.732 163.912 11.732 164.394 11.5406C164.615 11.4407 164.814 11.2964 164.979 11.1162C165.148 10.9148 165.278 10.6825 165.362 10.4318C165.454 10.1587 165.499 9.87163 165.496 9.58298ZM164.327 10.952C164.22 10.7441 164.101 10.5429 163.971 10.3496C163.836 10.158 163.722 10.0074 163.628 9.89785H163.164V10.952H162.674V8.214C162.805 8.18577 162.937 8.1652 163.07 8.1524H163.447C163.765 8.1315 164.081 8.21033 164.354 8.37828C164.458 8.45607 164.542 8.55979 164.596 8.67959C164.65 8.7994 164.673 8.9313 164.663 9.06277C164.666 9.22614 164.619 9.38642 164.529 9.52138C164.433 9.65681 164.3 9.75946 164.145 9.81571L164.307 10.0279C164.372 10.1183 164.432 10.2119 164.488 10.3085C164.555 10.4112 164.623 10.5207 164.683 10.6303C164.744 10.7398 164.804 10.8561 164.858 10.9725L164.327 10.952ZM163.164 9.48716H163.427C163.603 9.49431 163.779 9.46401 163.944 9.39817C164.013 9.36991 164.071 9.31889 164.109 9.25319C164.147 9.18749 164.162 9.11085 164.152 9.03539C164.158 8.96314 164.142 8.89088 164.107 8.82759C164.073 8.76431 164.021 8.7128 163.957 8.67945C163.811 8.60807 163.65 8.57289 163.487 8.57678H163.326H163.164V9.48716Z" fill="#041A3B"/>
</g>
<defs>
<clipPath id="clip0">
<rect width="166" height="32" fill="white"/>
</clipPath>
</defs>
</svg>
