<svg width="255" height="34" viewBox="0 0 255 34" fill="none" xmlns="http://www.w3.org/2000/svg">
<g clip-path="url(#clip0_1583_18385)">
<path d="M155.858 6.48078C157.547 5.62522 159.381 5.19004 161.31 5.19004C163.372 5.19004 165.329 5.6738 167.148 6.64133C167.59 6.84413 167.955 6.9413 168.266 6.9413C168.778 6.9413 169.207 6.73217 169.502 6.33713C169.776 5.97167 169.917 5.53438 169.917 5.03372C169.917 4.09788 169.534 3.3754 168.776 2.8853C167.728 2.22409 166.527 1.70653 165.203 1.3474C163.884 0.988278 162.505 0.808716 161.102 0.808716C158.525 0.808716 156.03 1.40444 153.69 2.5811C151.338 3.7641 149.398 5.6062 147.921 8.0567C146.446 10.5051 145.7 13.5386 145.7 17.0729C145.7 20.6071 146.448 23.6047 147.921 26.0658C149.396 28.5311 151.327 30.3943 153.665 31.6069C155.992 32.8152 158.48 33.4257 161.06 33.4257C163.984 33.4257 166.58 32.6969 168.761 31.2689C169.128 31.0555 169.417 30.7576 169.619 30.3837C169.817 30.0183 169.917 29.6338 169.917 29.243C169.917 28.7085 169.762 28.2438 169.453 27.8635C169.128 27.4621 168.691 27.2488 168.183 27.2488C167.834 27.2488 167.501 27.3417 167.205 27.5171C165.354 28.5015 163.37 29 161.308 29C159.353 29 157.507 28.5522 155.819 27.6692C154.143 26.7925 152.772 25.4405 151.748 23.6512C150.719 21.8577 150.199 19.6438 150.199 17.075C150.199 14.5062 150.726 12.2162 151.767 10.4375C152.804 8.66299 154.181 7.33423 155.856 6.485L155.858 6.48078Z" fill="#fff"/>
<path d="M224.444 7.31314C225.585 6.64136 226.35 5.26612 223.231 2.71422C223.214 2.70155 223.197 2.68887 223.18 2.67409C221.563 1.44461 219.546 0.855225 217.234 0.855225C215.517 0.855225 213.945 1.19745 212.559 1.87556C211.159 2.5579 210.043 3.55289 209.244 4.83095C208.443 6.10901 208.037 7.58776 208.037 9.22495C208.037 11.0142 208.46 12.5331 209.295 13.7415C210.113 14.9266 211.116 15.8941 212.277 16.6166C213.405 17.3201 214.907 18.089 216.737 18.9023C218.188 19.5614 219.361 20.1402 220.218 20.624C221.04 21.0888 221.733 21.676 222.283 22.3668C222.814 23.0365 223.072 23.8244 223.072 24.7793C223.072 26.1397 222.598 27.2023 221.624 28.0241C220.643 28.8522 219.289 29.2747 217.6 29.2747C216.17 29.2747 215.071 29.1289 213.887 28.4593C213.545 28.2649 213.093 27.8995 212.627 27.3946C211.189 25.8419 210.764 24.887 209.242 25.2778C208.078 25.5778 207.474 26.8981 208.031 28.4149C208.768 30.4239 211.197 31.7864 211.197 31.7864C212.995 32.9652 215.181 33.4067 217.598 33.4067C219.527 33.4067 221.276 33.0497 222.797 32.3484C224.334 31.6386 225.554 30.6013 226.423 29.2662C227.296 27.929 227.738 26.3468 227.738 24.5617C227.738 22.7766 227.322 21.262 226.499 20.0663C225.692 18.8918 224.693 17.9517 223.526 17.2715C222.4 16.6145 220.9 15.8836 219.064 15.0956C217.561 14.4682 216.359 13.9041 215.49 13.4204C214.657 12.9577 213.949 12.3578 213.388 11.6374C212.842 10.9403 212.578 10.1059 212.578 9.09186C212.578 7.82014 213.01 6.84627 213.898 6.11112C214.799 5.36752 215.934 4.98939 217.272 4.98939C218.611 4.98939 219.61 5.42879 220.545 6.09C220.6 6.13014 221.114 6.57799 221.114 6.57799C222.84 8.18349 224.44 7.31314 224.44 7.31314H224.444Z" fill="#fff"/>
<path d="M20.7655 1.33679C19.5479 1.33679 18.5619 2.31699 18.5619 3.52745V14.9793H4.40725V3.52745C4.40725 2.31699 3.42125 1.33679 2.20362 1.33679C0.986 1.33679 0 2.31699 0 3.52745V30.7343C0 31.9448 0.986 32.925 2.20362 32.925C3.42125 32.925 4.40725 31.9448 4.40725 30.7343V19.2571H18.5619V30.7343C18.5619 31.9448 19.5479 32.925 20.7655 32.925C21.9831 32.925 22.9691 31.9448 22.9691 30.7343V3.52745C22.9691 2.31699 21.9831 1.33679 20.7655 1.33679Z" fill="#fff"/>
<path d="M55.097 29.9908L46.1273 3.58034C45.8915 2.92124 45.5493 2.38467 45.1137 1.98329C44.6483 1.55868 44.1171 1.34109 43.5327 1.34109H42.6062C42.075 1.34109 41.5628 1.56502 41.0847 2.00442C40.6321 2.42269 40.2963 2.95504 40.0881 3.58668L37.3872 11.5677L39.4803 18.1291C41.2037 12.3831 43.061 7.36594 43.1502 7.07653L50.8533 31.3703C51.2295 32.5596 52.5172 33.2082 53.703 32.8068C54.8696 32.4117 55.4943 31.1527 55.0991 29.9929L55.097 29.9908Z" fill="#fff"/>
<path d="M35.6849 16.7856L31.2011 29.9908C30.8059 31.1506 31.4306 32.4096 32.5973 32.8047C33.7851 33.2061 35.0708 32.5575 35.4469 31.3682L37.8673 23.3893L35.6849 16.7835V16.7856Z" fill="#10A4B3"/>
<path d="M201.552 29.9908L192.582 3.58034C192.347 2.92124 192.004 2.38467 191.569 1.98329C191.103 1.55868 190.572 1.34109 189.988 1.34109H189.061C188.53 1.34109 188.018 1.56502 187.54 2.00442C187.087 2.42269 186.751 2.95504 186.543 3.58668L183.842 11.5677L185.935 18.1291C187.659 12.3831 189.516 7.36594 189.605 7.07653L197.308 31.3703C197.685 32.5596 198.972 33.2082 200.158 32.8068C201.325 32.4117 201.949 31.1527 201.554 29.9929L201.552 29.9908Z" fill="#fff"/>
<path d="M182.14 16.7856L177.657 29.9908C177.261 31.1506 177.886 32.4096 179.053 32.8047C180.241 33.2061 181.526 32.5575 181.902 31.3682L184.323 23.3893L182.14 16.7835V16.7856Z" fill="#10A4B3"/>
<path d="M82.803 28.6747H68.8142L83.9442 4.22465C84.231 3.74934 84.3713 3.33951 84.3713 2.96983C84.3713 2.50085 84.1715 2.08891 83.789 1.78049C83.4299 1.48896 82.9518 1.3432 82.3695 1.3432H64.3389C63.1574 1.3432 62.2012 2.29383 62.2012 3.46838C62.2012 4.64293 63.1574 5.59355 64.3389 5.59355H78.2832L63.0405 30.0331C62.7537 30.4746 62.607 30.9013 62.607 31.3006C62.607 31.8012 62.8025 32.2195 63.1702 32.5131C63.5144 32.7878 63.984 32.9272 64.5663 32.9272H82.8009C83.9824 32.9272 84.9387 31.9766 84.9387 30.802C84.9387 29.6275 83.9824 28.6768 82.8009 28.6768L82.803 28.6747Z" fill="#fff"/>
<path d="M116.503 3.44718C116.503 2.2663 115.54 1.30722 114.35 1.30722H97.7221C96.5618 1.30722 95.6226 2.24095 95.6226 3.39437V5.58503H114.352C115.54 5.58503 116.505 4.62807 116.505 3.44507L116.503 3.44718Z" fill="#fff"/>
<path d="M114.468 28.6473H95.7378V30.8379C95.7378 31.9913 96.677 32.9251 97.8373 32.9251H114.465C115.653 32.9251 116.618 31.9681 116.618 30.7851C116.618 29.6021 115.655 28.6451 114.465 28.6451L114.468 28.6473Z" fill="#fff"/>
<path d="M114.467 14.9772H90.4907V19.2551H114.467C115.655 19.2551 116.62 18.2981 116.62 17.1151C116.62 15.9342 115.657 14.9751 114.467 14.9751V14.9772Z" fill="#fff"/>
<path d="M140.093 28.6472H129.281V3.55704C129.281 2.32967 128.28 1.33469 127.045 1.33469C125.81 1.33469 124.81 2.32967 124.81 3.55704V30.8358C124.81 31.9892 125.749 32.9229 126.909 32.9229H140.09C141.278 32.9229 142.243 31.9659 142.243 30.7829C142.243 29.5999 141.28 28.643 140.09 28.643L140.093 28.6472Z" fill="#fff"/>
<path d="M250.724 1.3368H234.132C232.944 1.3368 231.979 2.29376 231.979 3.47676C231.979 4.65976 232.942 5.61672 234.132 5.61672H240.193V30.7069C240.193 31.9342 241.194 32.9292 242.428 32.9292C243.663 32.9292 244.664 31.9342 244.664 30.7069V5.61461H250.724C251.912 5.61461 252.877 4.65765 252.877 3.47465C252.877 2.29165 251.914 1.33469 250.724 1.33469V1.3368Z" fill="#fff"/>
</g>
<defs>
<clipPath id="clip0_1583_18385">
<rect width="255" height="33" fill="white" transform="translate(0 0.808716)"/>
</clipPath>
</defs>
</svg>
