<svg width="240" height="43" viewBox="0 0 240 43" fill="none" xmlns="http://www.w3.org/2000/svg">
<path d="M31.9995 29.3283H31.9083C30.4511 29.3283 28.9123 27.8159 28.9123 26.3883V26.2988H28.6891V26.3883C28.6891 27.8183 27.1479 29.3283 25.6932 29.3283H25.6019V29.5474H25.6932C27.1503 29.5474 28.6891 31.0597 28.6891 32.4873V32.5768H28.9123V32.4873C28.9123 31.0574 30.4535 29.5474 31.9083 29.5474H31.9995V29.3283Z" fill="#1EC1CB"/>
<path d="M6.39998 10.4848H6.30876C4.8516 10.4848 3.31282 8.97241 3.31282 7.54484V7.45532H3.08956V7.54484C3.08956 8.97476 1.54838 10.4848 0.0936232 10.4848H0V10.7039H0.0912226C1.54838 10.7039 3.08716 12.2162 3.08716 13.6438V13.7333H3.31042V13.6438C3.31042 12.2139 4.8516 10.7039 6.30636 10.7039H6.39758V10.4848H6.39998Z" fill="#1EC1CB"/>
<path d="M6.39998 16.7675H6.30876C4.8516 16.7675 3.31282 15.2551 3.31282 13.8276V13.738H3.08956V13.8276C3.08956 15.2575 1.54838 16.7675 0.0936232 16.7675H0V16.9866H0.0912226C1.54838 16.9866 3.08716 18.499 3.08716 19.9265V20.016H3.31042V19.9265C3.31042 18.4966 4.8516 16.9866 6.30636 16.9866H6.39758V16.7675H6.39998Z" fill="#1EC1CB"/>
<path d="M12.8004 16.7675H12.7092C11.252 16.7675 9.71325 15.2551 9.71325 13.8276V13.738H9.49V13.8276C9.49 15.2575 7.94881 16.7675 6.49405 16.7675H6.40283V16.9866H6.49405C7.95121 16.9866 9.49 18.499 9.49 19.9265V20.016H9.71325V19.9265C9.71325 18.4966 11.2544 16.9866 12.7092 16.9866H12.8004V16.7675Z" fill="#1EC1CB"/>
<path d="M6.39998 23.048H6.30876C4.8516 23.048 3.31282 21.5356 3.31282 20.1081V20.0186H3.08956V20.1081C3.08956 21.538 1.54838 23.048 0.0936232 23.048H0V23.2671H0.0912226C1.54838 23.2671 3.08716 24.7795 3.08716 26.207V26.2966H3.31042V26.207C3.31042 24.7771 4.8516 23.2671 6.30636 23.2671H6.39758V23.048H6.39998Z" fill="#1EC1CB"/>
<path d="M12.8004 23.048H12.7092C11.252 23.048 9.71325 21.5356 9.71325 20.1081V20.0186H9.49V20.1081C9.49 21.538 7.94881 23.048 6.49405 23.048H6.40283V23.2671H6.49405C7.95121 23.2671 9.49 24.7795 9.49 26.207V26.2966H9.71325V26.207C9.71325 24.7771 11.2544 23.2671 12.7092 23.2671H12.8004V23.048Z" fill="#1EC1CB"/>
<path d="M19.1997 23.048H19.1085C17.6513 23.048 16.1125 21.5356 16.1125 20.1081V20.0186H15.8893V20.1081C15.8893 21.538 14.3481 23.048 12.8933 23.048H12.8021V23.2671H12.8933C14.3505 23.2671 15.8893 24.7795 15.8893 26.207V26.2966H16.1125V26.207C16.1125 24.7771 17.6537 23.2671 19.1085 23.2671H19.1997V23.048Z" fill="#1EC1CB"/>
<path d="M6.39998 29.3283H6.30876C4.8516 29.3283 3.31282 27.8159 3.31282 26.3883V26.2988H3.08956V26.3883C3.08956 27.8183 1.54838 29.3283 0.0936232 29.3283H0V29.5474H0.0912226C1.54838 29.5474 3.08716 31.0597 3.08716 32.4873V32.5768H3.31042V32.4873C3.31042 31.0574 4.8516 29.5474 6.30636 29.5474H6.39758V29.3283H6.39998Z" fill="#1EC1CB"/>
<path d="M12.8004 29.3283H12.7092C11.252 29.3283 9.71325 27.8159 9.71325 26.3883V26.2988H9.49V26.3883C9.49 27.8183 7.94881 29.3283 6.49405 29.3283H6.40283V29.5474H6.49405C7.95121 29.5474 9.49 31.0597 9.49 32.4873V32.5768H9.71325V32.4873C9.71325 31.0574 11.2544 29.5474 12.7092 29.5474H12.8004V29.3283Z" fill="#1EC1CB"/>
<path d="M25.599 16.7675H25.5078C24.0506 16.7675 22.5118 15.2551 22.5118 13.8276V13.738H22.2886V13.8276C22.2886 15.2575 20.7474 16.7675 19.2926 16.7675H19.2014V16.9866H19.2926C20.7498 16.9866 22.2886 18.499 22.2886 19.9265V20.016H22.5118V19.9265C22.5118 18.4966 24.053 16.9866 25.5078 16.9866H25.599V16.7675Z" fill="#1EC1CB"/>
<path d="M25.599 23.048H25.5078C24.0506 23.048 22.5118 21.5356 22.5118 20.1081V20.0186H22.2886V20.1081C22.2886 21.538 20.7474 23.048 19.2926 23.048H19.2014V23.2671H19.2926C20.7498 23.2671 22.2886 24.7795 22.2886 26.207V26.2966H22.5118V26.207C22.5118 24.7771 24.053 23.2671 25.5078 23.2671H25.599V23.048Z" fill="#1EC1CB"/>
<path d="M25.599 29.3283H25.5078C24.0506 29.3283 22.5118 27.8159 22.5118 26.3883V26.2988H22.2886V26.3883C22.2886 27.8183 20.7474 29.3283 19.2926 29.3283H19.2014V29.5474H19.2926C20.7498 29.5474 22.2886 31.0597 22.2886 32.4873V32.5768H22.5118V32.4873C22.5118 31.0574 24.053 29.5474 25.5078 29.5474H25.599V29.3283Z" fill="#1EC1CB"/>
<path d="M31.9995 16.7675H31.9083C30.4511 16.7675 28.9123 15.2551 28.9123 13.8276V13.738H28.6891V13.8276C28.6891 15.2575 27.1479 16.7675 25.6932 16.7675H25.6019V16.9866H25.6932C27.1503 16.9866 28.6891 18.499 28.6891 19.9265V20.016H28.9123V19.9265C28.9123 18.4966 30.4535 16.9866 31.9083 16.9866H31.9995V16.7675Z" fill="#1EC1CB"/>
<path d="M31.9995 10.4848H31.9083C30.4511 10.4848 28.9123 8.97241 28.9123 7.54484V7.45532H28.6891V7.54484C28.6891 8.97476 27.1479 10.4848 25.6932 10.4848H25.6019V10.7039H25.6932C27.1503 10.7039 28.6891 12.2162 28.6891 13.6438V13.7333H28.9123V13.6438C28.9123 12.2139 30.4535 10.7039 31.9083 10.7039H31.9995V10.4848Z" fill="#1EC1CB"/>
<path d="M31.9995 23.048H31.9083C30.4511 23.048 28.9123 21.5356 28.9123 20.1081V20.0186H28.6891V20.1081C28.6891 21.538 27.1479 23.048 25.6932 23.048H25.6019V23.2671H25.6932C27.1503 23.2671 28.6891 24.7795 28.6891 26.207V26.2966H28.9123V26.207C28.9123 24.7771 30.4535 23.2671 31.9083 23.2671H31.9995V23.048Z" fill="#1EC1CB"/>
<path d="M31.9995 35.6086H31.9083C30.4511 35.6086 28.9123 34.0962 28.9123 32.6686V32.5791H28.6891V32.6686C28.6891 34.0985 27.1479 35.6086 25.6932 35.6086H25.6019V35.8276H25.6932C27.1503 35.8276 28.6891 37.34 28.6891 38.7676V38.8571H28.9123V38.7676C28.9123 37.3377 30.4535 35.8276 31.9083 35.8276H31.9995V35.6086Z" fill="#1EC1CB"/>
<path d="M6.39998 35.6086H6.30876C4.8516 35.6086 3.31282 34.0962 3.31282 32.6686V32.5791H3.08956V32.6686C3.08956 34.0985 1.54838 35.6086 0.0936232 35.6086H0V35.8276H0.0912226C1.54838 35.8276 3.08716 37.34 3.08716 38.7676V38.8571H3.31042V38.7676C3.31042 37.3377 4.8516 35.8276 6.30636 35.8276H6.39758V35.6086H6.39998Z" fill="#1EC1CB"/>
<path d="M99.3964 16.2309H88.2607V13.6782H104.063V14.744L92.9277 29.7542H104.063V32.3069H88.2607V31.2411L99.3964 16.2309ZM200.429 21.7908C196.261 20.9299 195.495 20.0058 195.495 18.4407C195.495 16.8532 197.046 15.7464 199.265 15.7464C201.21 15.7464 202.892 16.3576 204.566 17.673L204.779 17.8407L206.341 15.8433L206.144 15.6905C204.064 14.0807 202.022 13.3913 199.323 13.3913C195.565 13.3913 192.839 15.5936 192.839 18.6754C192.839 22.1112 195.464 23.3633 199.404 24.1906C203.391 24.9993 204.122 25.9122 204.122 27.4625C204.122 29.1394 202.494 30.3132 200.162 30.3132C197.726 30.3132 195.898 29.5828 193.844 27.7978L193.643 27.6227L191.977 29.5232L192.166 29.6872C194.533 31.7218 197.046 32.6721 200.077 32.6721C204.037 32.6721 206.805 30.4436 206.805 27.2053C206.805 24.3508 204.899 22.7298 200.429 21.7908ZM164.439 26.7209C163.098 28.953 160.619 30.4734 157.754 30.4734C153.478 30.4734 150.002 27.1196 150.002 23.0019C150.002 18.8841 153.482 15.5303 157.754 15.5303C160.619 15.5303 163.094 17.0507 164.439 19.2828L166.701 18.0233C164.903 15.0384 161.59 13 157.758 13C152.035 13 147.38 17.4867 147.38 22.9981C147.38 28.5133 152.035 33 157.758 33C161.59 33 164.907 30.9653 166.701 27.9767L164.439 26.7209ZM65.2471 32.292H68.1393L74.7936 17.2556L81.4518 32.2957H84.3439V32.292L76.1159 13.6894H72.1837C72.1837 13.6894 73.3436 13.9689 72.4543 15.9924L65.2471 32.292ZM169.764 32.292H172.656L179.31 17.2556L185.968 32.2957H188.86V32.292L180.632 13.6894H176.7C176.7 13.6894 177.86 13.9689 176.971 15.9924L169.764 32.292ZM41 13.6894C41.5838 13.9018 42.0478 14.3862 42.187 15.0197C42.3185 15.5005 42.3842 16.3315 42.3842 17.5202V32.2882H45.3924V24.1794H56.4855V32.292H59.4937V13.6894H56.4855V21.7796H45.3924V13.6894H41ZM110.172 13.6894C110.756 13.9018 111.22 14.3862 111.359 15.0197C111.491 15.5005 111.557 16.3464 111.557 17.5351V32.292H124.258V29.7766H114.569V24.1645H123.709V21.7945H114.569V16.2159H124.247V13.6894H110.172ZM131.377 13.7006C131.96 13.913 132.424 14.3974 132.564 15.0309C132.695 15.5116 132.761 16.3576 132.761 17.5463V32.2882H144.546V29.7803H135.769V13.6894L131.377 13.7006ZM220.535 32.292V16.1675H227V13.6894H210.977V16.1675H217.469V28.4462C217.469 29.635 217.403 30.4809 217.272 30.9616C217.136 31.5951 216.672 32.0796 216.085 32.292H220.535Z" fill="black"/>
</svg>
