<svg width="195" height="48" viewBox="0 0 195 48" fill="none" xmlns="http://www.w3.org/2000/svg">
<g clip-path="url(#clip0)">
<path d="M42.3638 30.6681H42.2594C40.6053 30.6681 38.8554 28.8947 38.8554 27.2155V27.1096H38.6V27.2155C38.6 28.8918 36.8502 30.6681 35.1932 30.6681H35.0887V30.9269H35.1932C36.8473 30.9269 38.6 32.7002 38.6 34.3795V34.4854H38.8554V34.3795C38.8554 32.7032 40.6053 30.9269 42.2594 30.9269H42.3638V30.6681Z" fill="#1EC1CB"/>
<path d="M13.2722 8.55553H13.1677C11.5136 8.55553 9.76377 6.78218 9.76377 5.10293V5H9.5084V5.10587C9.5084 6.78218 7.75856 8.55847 6.10157 8.55847H6V8.81727H6.10447C7.75856 8.81727 9.51131 10.5906 9.51131 12.2699V12.3757H9.76667V12.264C9.76667 10.5877 11.5165 8.81139 13.1706 8.81139H13.2751V8.55553H13.2722Z" fill="#1EC1CB"/>
<path d="M13.2722 15.9283H13.1677C11.5136 15.9283 9.76377 14.155 9.76377 12.4757V12.3699H9.5084V12.4757C9.5084 14.1521 7.75856 15.9283 6.10157 15.9283H6V16.1871H6.10447C7.75856 16.1871 9.51131 17.9605 9.51131 19.6397V19.7456H9.76667V19.6397C9.76667 17.9634 11.5165 16.1871 13.1706 16.1871H13.2751V15.9283H13.2722Z" fill="#1EC1CB"/>
<path d="M20.5444 15.9283H20.4399C18.7858 15.9283 17.036 14.155 17.036 12.4757V12.3699H16.7806V12.4757C16.7806 14.1521 15.0307 15.9283 13.3738 15.9283H13.2693V16.1871H13.3738C15.0278 16.1871 16.7806 17.9605 16.7806 19.6397V19.7456H17.036V19.6397C17.036 17.9634 18.7858 16.1871 20.4399 16.1871H20.5444V15.9283Z" fill="#1EC1CB"/>
<path d="M13.2722 23.2982H13.1677C11.5136 23.2982 9.76377 21.5249 9.76377 19.8456V19.7397H9.5084V19.8456C9.5084 21.5219 7.75856 23.2982 6.10157 23.2982H6V23.557H6.10447C7.75856 23.557 9.51131 25.3304 9.51131 27.0096V27.1155H9.76667V27.0096C9.76667 25.3333 11.5165 23.557 13.1706 23.557H13.2751V23.2982H13.2722Z" fill="#1EC1CB"/>
<path d="M20.5444 23.2982H20.4399C18.7858 23.2982 17.036 21.5249 17.036 19.8456V19.7397H16.7806V19.8456C16.7806 21.5219 15.0307 23.2982 13.3738 23.2982H13.2693V23.557H13.3738C15.0278 23.557 16.7806 25.3304 16.7806 27.0096V27.1155H17.036V27.0096C17.036 25.3333 18.7858 23.557 20.4399 23.557H20.5444V23.2982Z" fill="#1EC1CB"/>
<path d="M27.8194 23.2982H27.7149C26.0608 23.2982 24.311 21.5249 24.311 19.8456V19.7397H24.0556V19.8456C24.0556 21.5219 22.3058 23.2982 20.6488 23.2982H20.5443V23.557H20.6488C22.3029 23.557 24.0556 25.3304 24.0556 27.0096V27.1155H24.311V27.0096C24.311 25.3333 26.0608 23.557 27.7149 23.557H27.8194V23.2982Z" fill="#1EC1CB"/>
<path d="M13.2722 30.6681H13.1677C11.5136 30.6681 9.76377 28.8947 9.76377 27.2155V27.1096H9.5084V27.2155C9.5084 28.8918 7.75856 30.6681 6.10157 30.6681H6V30.9269H6.10447C7.75856 30.9269 9.51131 32.7002 9.51131 34.3795V34.4854H9.76667V34.3795C9.76667 32.7032 11.5165 30.9269 13.1706 30.9269H13.2751V30.6681H13.2722Z" fill="#1EC1CB"/>
<path d="M20.5444 30.6681H20.4399C18.7858 30.6681 17.036 28.8947 17.036 27.2155V27.1096H16.7806V27.2155C16.7806 28.8918 15.0307 30.6681 13.3738 30.6681H13.2693V30.9269H13.3738C15.0278 30.9269 16.7806 32.7002 16.7806 34.3795V34.4854H17.036V34.3795C17.036 32.7032 18.7858 30.9269 20.4399 30.9269H20.5444V30.6681Z" fill="#1EC1CB"/>
<path d="M35.0916 15.9283H34.9871C33.3331 15.9283 31.5832 14.155 31.5832 12.4757V12.3699H31.3278V12.4757C31.3278 14.1521 29.578 15.9283 27.921 15.9283H27.8165V16.1871H27.921C29.5751 16.1871 31.3278 17.9605 31.3278 19.6397V19.7456H31.5832V19.6397C31.5832 17.9634 33.3331 16.1871 34.9871 16.1871H35.0916V15.9283Z" fill="#1EC1CB"/>
<path d="M35.0916 23.2982H34.9871C33.3331 23.2982 31.5832 21.5249 31.5832 19.8456V19.7397H31.3278V19.8456C31.3278 21.5219 29.578 23.2982 27.921 23.2982H27.8165V23.557H27.921C29.5751 23.557 31.3278 25.3304 31.3278 27.0096V27.1155H31.5832V27.0096C31.5832 25.3333 33.3331 23.557 34.9871 23.557H35.0916V23.2982Z" fill="#1EC1CB"/>
<path d="M35.0916 30.6681H34.9871C33.3331 30.6681 31.5832 28.8947 31.5832 27.2155V27.1096H31.3278V27.2155C31.3278 28.8918 29.578 30.6681 27.921 30.6681H27.8165V30.9269H27.921C29.5751 30.9269 31.3278 32.7002 31.3278 34.3795V34.4854H31.5832V34.3795C31.5832 32.7032 33.3331 30.9269 34.9871 30.9269H35.0916V30.6681Z" fill="#1EC1CB"/>
<path d="M42.3638 15.9283H42.2594C40.6053 15.9283 38.8554 14.155 38.8554 12.4757V12.3699H38.6V12.4757C38.6 14.1521 36.8502 15.9283 35.1932 15.9283H35.0887V16.1871H35.1932C36.8473 16.1871 38.6 17.9605 38.6 19.6397V19.7456H38.8554V19.6397C38.8554 17.9634 40.6053 16.1871 42.2594 16.1871H42.3638V15.9283Z" fill="#1EC1CB"/>
<path d="M42.3638 8.55553H42.2594C40.6053 8.55553 38.8554 6.78218 38.8554 5.10293V5H38.6V5.10587C38.6 6.78218 36.8502 8.55847 35.1932 8.55847H35.0887V8.81727H35.1932C36.8473 8.81727 38.6 10.5906 38.6 12.2699V12.3757H38.8554V12.264C38.8554 10.5877 40.6053 8.81139 42.2594 8.81139H42.3638V8.55553Z" fill="#1EC1CB"/>
<path d="M42.3638 23.2982H42.2594C40.6053 23.2982 38.8554 21.5249 38.8554 19.8456V19.7397H38.6V19.8456C38.6 21.5219 36.8502 23.2982 35.1932 23.2982H35.0887V23.557H35.1932C36.8473 23.557 38.6 25.3304 38.6 27.0096V27.1155H38.8554V27.0096C38.8554 25.3333 40.6053 23.557 42.2594 23.557H42.3638V23.2982Z" fill="#1EC1CB"/>
<path d="M42.3638 38.038H42.2594C40.6053 38.038 38.8554 36.2646 38.8554 34.5854V34.4795H38.6V34.5854C38.6 36.2617 36.8502 38.038 35.1932 38.038H35.0887V38.2968H35.1932C36.8473 38.2968 38.6 40.0701 38.6 41.7494V41.8552H38.8554V41.7494C38.8554 40.0731 40.6053 38.2968 42.2594 38.2968H42.3638V38.038Z" fill="#1EC1CB"/>
<path d="M13.2722 38.038H13.1677C11.5136 38.038 9.76377 36.2646 9.76377 34.5854V34.4795H9.5084V34.5854C9.5084 36.2617 7.75856 38.038 6.10157 38.038H6V38.2968H6.10447C7.75856 38.2968 9.51131 40.0701 9.51131 41.7494V41.8552H9.76667V41.7494C9.76667 40.0731 11.5165 38.2968 13.1706 38.2968H13.2751V38.038H13.2722Z" fill="#1EC1CB"/>
<path d="M98.1672 8.06328H89.7157V6.02545H101.705V6.87582L93.2535 18.8538H101.705V20.8916H89.7157V20.0413L98.1672 8.06328ZM174.835 12.499C171.672 11.8133 171.093 11.0741 171.093 9.82531C171.093 8.56124 172.269 7.6764 173.955 7.6764C175.429 7.6764 176.706 8.16287 177.976 9.21243L178.135 9.3465L179.322 7.75301L179.171 7.63043C177.591 6.34338 176.045 5.79562 173.996 5.79562C171.146 5.79562 169.075 7.54999 169.075 10.013C169.075 12.7518 171.067 13.7554 174.057 14.4142C177.08 15.0616 177.636 15.7856 177.636 17.0267C177.636 18.3673 176.4 19.302 174.631 19.302C172.783 19.302 171.396 18.7197 169.838 17.2948L169.687 17.1531L168.425 18.6699L168.568 18.8002C170.364 20.4243 172.273 21.1827 174.574 21.1827C177.579 21.1827 179.681 19.4054 179.681 16.8198C179.673 14.5407 178.229 13.2498 174.835 12.499ZM147.523 16.4329C146.502 18.2141 144.624 19.4284 142.45 19.4284C139.207 19.4284 136.565 16.7547 136.565 13.4643C136.565 10.1739 139.204 7.5002 142.45 7.5002C144.624 7.5002 146.502 8.71446 147.523 10.4956L149.239 9.49206C147.874 7.10948 145.361 5.48535 142.45 5.48535C138.108 5.48535 134.577 9.06304 134.577 13.4643C134.577 17.8655 138.108 21.4432 142.45 21.4432C145.357 21.4432 147.874 19.8191 149.239 17.4365L147.523 16.4329ZM72.2496 20.8801H74.4456L79.4953 8.87918L84.5488 20.8801H86.7448V20.8763L80.5007 6.03311H77.5147C77.5147 6.03311 78.3954 6.25528 77.7188 7.87175L72.2496 20.8801ZM151.563 20.8801H153.759L158.809 8.87918L163.863 20.8801H166.059V20.8763L159.815 6.03311H156.829C156.829 6.03311 157.709 6.25528 157.033 7.87175L151.563 20.8801ZM53.8536 6.03311C54.2959 6.20166 54.6474 6.59237 54.7532 7.09416C54.8515 7.47721 54.9044 8.14372 54.9044 9.08985V20.8763H57.1874V14.4028H65.6086V20.8763H67.8916V6.03694H65.6086V12.4913H57.1874V6.03694L53.8536 6.03311ZM106.343 6.03311C106.785 6.20166 107.136 6.59237 107.242 7.09416C107.341 7.47721 107.394 8.15138 107.394 9.10134V20.8763H117.032V18.8691H109.676V14.3951H116.612V12.5028H109.676V8.05179H117.02V6.03694L106.343 6.03311ZM122.433 6.0446C122.875 6.21315 123.227 6.60386 123.333 7.10565C123.431 7.4887 123.484 8.16287 123.484 9.11284V20.8763H132.427V18.8768H125.767V6.03694L122.433 6.0446ZM190.094 20.8801V8.01348H195V6.03694H182.841V8.01348H187.766V17.8119C187.766 18.7619 187.717 19.436 187.614 19.8191C187.509 20.3247 187.157 20.7116 186.715 20.8801H190.094Z" fill="#141414"/>
<path d="M55.3984 36.3672V41H54.4375V29.625H58.3125C59.4948 29.625 60.4271 29.9271 61.1094 30.5312C61.7969 31.1354 62.1406 31.9661 62.1406 33.0234C62.1406 34.0911 61.8099 34.9167 61.1484 35.5C60.4922 36.0781 59.5391 36.3672 58.2891 36.3672H55.3984ZM55.3984 35.5547H58.3125C59.2448 35.5547 59.9557 35.3333 60.4453 34.8906C60.9349 34.4479 61.1797 33.8307 61.1797 33.0391C61.1797 32.2526 60.9349 31.6276 60.4453 31.1641C59.9609 30.6953 59.2708 30.4557 58.375 30.4453H55.3984V35.5547ZM65.2656 40.1875H70.8828V41H64.2969V29.625H65.2656V40.1875ZM79.0312 37.8125H73.8672L72.6953 41H71.6875L75.9922 29.625H76.9062L81.2109 41H80.2109L79.0312 37.8125ZM74.1641 36.9922H78.7266L76.4453 30.7969L74.1641 36.9922ZM89.5938 30.4453H85.6953V41H84.7344V30.4453H80.8438V29.625H89.5938V30.4453ZM97.7031 35.6875H92.3984V41H91.4375V29.625H98.4844V30.4453H92.3984V34.8672H97.7031V35.6875ZM108.844 35.9297C108.844 36.9766 108.661 37.8958 108.297 38.6875C107.938 39.4792 107.422 40.0885 106.75 40.5156C106.078 40.9427 105.302 41.1562 104.422 41.1562C103.094 41.1562 102.021 40.6823 101.203 39.7344C100.385 38.7812 99.9766 37.4974 99.9766 35.8828V34.7109C99.9766 33.6745 100.159 32.7578 100.523 31.9609C100.893 31.1589 101.414 30.5443 102.086 30.1172C102.758 29.6849 103.531 29.4688 104.406 29.4688C105.281 29.4688 106.052 29.6797 106.719 30.1016C107.391 30.5234 107.909 31.1198 108.273 31.8906C108.638 32.6615 108.828 33.5547 108.844 34.5703V35.9297ZM107.883 34.6953C107.883 33.3255 107.573 32.2526 106.953 31.4766C106.333 30.7005 105.484 30.3125 104.406 30.3125C103.349 30.3125 102.505 30.7031 101.875 31.4844C101.25 32.2604 100.938 33.3464 100.938 34.7422V35.9297C100.938 37.2786 101.25 38.349 101.875 39.1406C102.5 39.9271 103.349 40.3203 104.422 40.3203C105.51 40.3203 106.359 39.9323 106.969 39.1562C107.578 38.375 107.883 37.2891 107.883 35.8984V34.6953ZM115.516 36.2656H112.211V41H111.242V29.625H114.938C116.151 29.625 117.099 29.9193 117.781 30.5078C118.464 31.0964 118.805 31.9193 118.805 32.9766C118.805 33.7057 118.591 34.349 118.164 34.9062C117.737 35.4635 117.164 35.849 116.445 36.0625L119.289 40.8984V41H118.266L115.516 36.2656ZM112.211 35.4453H115.156C115.964 35.4453 116.612 35.2161 117.102 34.7578C117.591 34.2995 117.836 33.7057 117.836 32.9766C117.836 32.1745 117.581 31.5521 117.07 31.1094C116.56 30.6667 115.844 30.4453 114.922 30.4453H112.211V35.4453ZM122.695 29.625L126.891 39.6641L131.102 29.625H132.383V41H131.422V36.0469L131.5 30.9688L127.266 41H126.523L122.305 31.0078L122.383 36.0156V41H121.422V29.625H122.695Z" fill="black"/>
</g>
<defs>
<clipPath id="clip0">
<rect width="195" height="48" fill="white"/>
</clipPath>
</defs>
</svg>
