<?xml version="1.0" encoding="UTF-8"?>
<svg xmlns="http://www.w3.org/2000/svg" xmlns:xlink="http://www.w3.org/1999/xlink" width="240px" height="32px" viewBox="0 0 240 32" version="1.1">
<defs>
<clipPath id="clip1">
  <path d="M 137 0.761719 L 160 0.761719 L 160 31.820312 L 137 31.820312 Z M 137 0.761719 "/>
</clipPath>
<clipPath id="clip2">
  <path d="M 195 0.761719 L 215 0.761719 L 215 31.820312 L 195 31.820312 Z M 195 0.761719 "/>
</clipPath>
</defs>
<g id="surface1">
<g clip-path="url(#clip1)" clip-rule="nonzero">
<path style=" stroke:none;fill-rule:nonzero;fill:rgb(4.313725%,16.862745%,22.352941%);fill-opacity:1;" d="M 146.691406 6.097656 C 148.28125 5.292969 150.003906 4.882812 151.820312 4.882812 C 153.761719 4.882812 155.605469 5.339844 157.316406 6.25 C 157.730469 6.441406 158.074219 6.53125 158.367188 6.53125 C 158.851562 6.53125 159.253906 6.335938 159.53125 5.964844 C 159.789062 5.621094 159.921875 5.207031 159.921875 4.738281 C 159.921875 3.855469 159.5625 3.175781 158.847656 2.714844 C 157.863281 2.09375 156.730469 1.605469 155.484375 1.269531 C 154.242188 0.929688 152.945312 0.761719 151.625 0.761719 C 149.199219 0.761719 146.851562 1.320312 144.648438 2.429688 C 142.4375 3.542969 140.609375 5.277344 139.21875 7.582031 C 137.832031 9.886719 137.128906 12.742188 137.128906 16.070312 C 137.128906 19.394531 137.832031 22.214844 139.21875 24.53125 C 140.609375 26.851562 142.425781 28.605469 144.625 29.746094 C 146.816406 30.886719 149.15625 31.460938 151.585938 31.460938 C 154.335938 31.460938 156.78125 30.773438 158.832031 29.429688 C 159.179688 29.230469 159.453125 28.949219 159.640625 28.597656 C 159.828125 28.253906 159.921875 27.890625 159.921875 27.523438 C 159.921875 27.019531 159.777344 26.582031 159.484375 26.222656 C 159.179688 25.847656 158.769531 25.644531 158.289062 25.644531 C 157.960938 25.644531 157.648438 25.734375 157.371094 25.898438 C 155.628906 26.824219 153.761719 27.292969 151.820312 27.292969 C 149.980469 27.292969 148.242188 26.871094 146.652344 26.042969 C 145.074219 25.214844 143.785156 23.945312 142.820312 22.261719 C 141.851562 20.570312 141.363281 18.488281 141.363281 16.070312 C 141.363281 13.652344 141.859375 11.496094 142.839844 9.824219 C 143.816406 8.152344 145.113281 6.902344 146.6875 6.105469 Z M 146.691406 6.097656 "/>
</g>
<g clip-path="url(#clip2)" clip-rule="nonzero">
<path style=" stroke:none;fill-rule:nonzero;fill:rgb(4.313725%,16.862745%,22.352941%);fill-opacity:1;" d="M 211.242188 6.882812 C 212.316406 6.25 213.035156 4.957031 210.101562 2.554688 C 210.082031 2.542969 210.066406 2.53125 210.050781 2.515625 C 208.53125 1.359375 206.632812 0.804688 204.457031 0.804688 C 202.839844 0.804688 201.359375 1.128906 200.054688 1.765625 C 198.738281 2.40625 197.6875 3.34375 196.933594 4.546875 C 196.183594 5.75 195.800781 7.140625 195.800781 8.683594 C 195.800781 10.367188 196.199219 11.796875 196.984375 12.933594 C 197.753906 14.046875 198.699219 14.960938 199.789062 15.640625 C 200.851562 16.300781 202.265625 17.023438 203.988281 17.789062 C 205.351562 18.410156 206.457031 18.957031 207.265625 19.410156 C 208.039062 19.847656 208.691406 20.402344 209.207031 21.050781 C 209.707031 21.679688 209.949219 22.421875 209.949219 23.320312 C 209.949219 24.601562 209.503906 25.601562 208.585938 26.375 C 207.664062 27.15625 206.390625 27.550781 204.800781 27.550781 C 203.453125 27.550781 202.417969 27.414062 201.304688 26.785156 C 200.984375 26.601562 200.558594 26.257812 200.121094 25.78125 C 198.765625 24.320312 198.367188 23.421875 196.933594 23.789062 C 195.839844 24.074219 195.269531 25.316406 195.792969 26.742188 C 196.488281 28.632812 198.773438 29.917969 198.773438 29.917969 C 200.464844 31.027344 202.523438 31.441406 204.796875 31.441406 C 206.613281 31.441406 208.257812 31.105469 209.691406 30.445312 C 211.136719 29.777344 212.285156 28.800781 213.105469 27.542969 C 213.925781 26.285156 214.339844 24.796875 214.339844 23.117188 C 214.339844 21.4375 213.949219 20.011719 213.175781 18.886719 C 212.414062 17.78125 211.476562 16.894531 210.378906 16.253906 C 209.316406 15.636719 207.90625 14.949219 206.179688 14.207031 C 204.761719 13.617188 203.632812 13.085938 202.8125 12.632812 C 202.03125 12.195312 201.363281 11.632812 200.835938 10.953125 C 200.320312 10.296875 200.074219 9.511719 200.074219 8.558594 C 200.074219 7.359375 200.480469 6.445312 201.316406 5.75 C 202.164062 5.050781 203.230469 4.695312 204.492188 4.695312 C 205.75 4.695312 206.691406 5.109375 207.570312 5.730469 C 207.625 5.769531 208.105469 6.191406 208.105469 6.191406 C 209.730469 7.703125 211.238281 6.882812 211.238281 6.882812 Z M 211.242188 6.882812 "/>
</g>
<path style=" stroke:none;fill-rule:nonzero;fill:rgb(4.313725%,16.862745%,22.352941%);fill-opacity:1;" d="M 19.542969 1.257812 C 18.398438 1.257812 17.46875 2.179688 17.46875 3.320312 L 17.46875 14.097656 L 4.148438 14.097656 L 4.148438 3.320312 C 4.148438 2.179688 3.21875 1.257812 2.074219 1.257812 C 0.929688 1.257812 0 2.179688 0 3.320312 L 0 28.925781 C 0 30.066406 0.929688 30.988281 2.074219 30.988281 C 3.21875 30.988281 4.148438 30.066406 4.148438 28.925781 L 4.148438 18.125 L 17.46875 18.125 L 17.46875 28.925781 C 17.46875 30.066406 18.398438 30.988281 19.542969 30.988281 C 20.691406 30.988281 21.617188 30.066406 21.617188 28.925781 L 21.617188 3.320312 C 21.617188 2.179688 20.691406 1.257812 19.542969 1.257812 Z M 19.542969 1.257812 "/>
<path style=" stroke:none;fill-rule:nonzero;fill:rgb(4.313725%,16.862745%,22.352941%);fill-opacity:1;" d="M 51.855469 28.226562 L 43.414062 3.371094 C 43.191406 2.75 42.871094 2.246094 42.460938 1.867188 C 42.023438 1.46875 41.523438 1.261719 40.972656 1.261719 L 40.101562 1.261719 C 39.601562 1.261719 39.117188 1.472656 38.667969 1.886719 C 38.242188 2.28125 37.925781 2.78125 37.730469 3.375 L 35.1875 10.886719 L 37.15625 17.0625 C 38.78125 11.65625 40.527344 6.933594 40.613281 6.660156 L 47.863281 29.523438 C 48.214844 30.644531 49.429688 31.253906 50.542969 30.878906 C 51.640625 30.503906 52.230469 29.320312 51.859375 28.230469 Z M 51.855469 28.226562 "/>
<path style=" stroke:none;fill-rule:nonzero;fill:rgb(6.27451%,64.313725%,70.196078%);fill-opacity:1;" d="M 33.585938 15.796875 L 29.367188 28.226562 C 28.992188 29.316406 29.582031 30.503906 30.679688 30.875 C 31.796875 31.253906 33.007812 30.640625 33.363281 29.523438 L 35.640625 22.011719 Z M 33.585938 15.796875 "/>
<path style=" stroke:none;fill-rule:nonzero;fill:rgb(4.313725%,16.862745%,22.352941%);fill-opacity:1;" d="M 189.695312 28.226562 L 181.253906 3.371094 C 181.03125 2.75 180.710938 2.246094 180.300781 1.867188 C 179.863281 1.46875 179.363281 1.261719 178.8125 1.261719 L 177.941406 1.261719 C 177.441406 1.261719 176.957031 1.472656 176.507812 1.886719 C 176.082031 2.28125 175.765625 2.78125 175.570312 3.375 L 173.027344 10.886719 L 174.996094 17.0625 C 176.621094 11.65625 178.367188 6.933594 178.453125 6.660156 L 185.703125 29.523438 C 186.054688 30.644531 187.269531 31.253906 188.382812 30.878906 C 189.480469 30.503906 190.070312 29.320312 189.699219 28.230469 Z M 189.695312 28.226562 "/>
<path style=" stroke:none;fill-rule:nonzero;fill:rgb(6.27451%,64.313725%,70.196078%);fill-opacity:1;" d="M 171.425781 15.796875 L 167.207031 28.226562 C 166.832031 29.316406 167.421875 30.503906 168.519531 30.875 C 169.636719 31.253906 170.847656 30.640625 171.203125 29.523438 L 173.480469 22.011719 Z M 171.425781 15.796875 "/>
<path style=" stroke:none;fill-rule:nonzero;fill:rgb(4.313725%,16.862745%,22.352941%);fill-opacity:1;" d="M 77.933594 26.988281 L 64.765625 26.988281 L 79.007812 3.976562 C 79.277344 3.527344 79.410156 3.144531 79.410156 2.796875 C 79.410156 2.355469 79.21875 1.964844 78.859375 1.675781 C 78.523438 1.402344 78.074219 1.265625 77.523438 1.265625 L 60.554688 1.265625 C 59.441406 1.265625 58.542969 2.160156 58.542969 3.265625 C 58.542969 4.371094 59.441406 5.265625 60.554688 5.265625 L 73.679688 5.265625 L 59.332031 28.265625 C 59.0625 28.683594 58.925781 29.082031 58.925781 29.460938 C 58.925781 29.929688 59.109375 30.324219 59.453125 30.601562 C 59.777344 30.859375 60.21875 30.992188 60.769531 30.992188 L 77.929688 30.992188 C 79.042969 30.992188 79.941406 30.09375 79.941406 28.988281 C 79.941406 27.882812 79.042969 26.988281 77.929688 26.988281 Z M 77.933594 26.988281 "/>
<path style=" stroke:none;fill-rule:nonzero;fill:rgb(4.313725%,16.862745%,22.352941%);fill-opacity:1;" d="M 109.648438 3.246094 C 109.648438 2.132812 108.742188 1.230469 107.625 1.230469 L 91.972656 1.230469 C 90.882812 1.230469 89.996094 2.109375 89.996094 3.195312 L 89.996094 5.257812 L 107.625 5.257812 C 108.742188 5.257812 109.652344 4.355469 109.652344 3.242188 Z M 109.648438 3.246094 "/>
<path style=" stroke:none;fill-rule:nonzero;fill:rgb(4.313725%,16.862745%,22.352941%);fill-opacity:1;" d="M 107.734375 26.960938 L 90.105469 26.960938 L 90.105469 29.023438 C 90.105469 30.109375 90.988281 30.988281 92.082031 30.988281 L 107.730469 30.988281 C 108.851562 30.988281 109.757812 30.085938 109.757812 28.972656 C 109.757812 27.859375 108.851562 26.960938 107.730469 26.960938 Z M 107.734375 26.960938 "/>
<path style=" stroke:none;fill-rule:nonzero;fill:rgb(4.313725%,16.862745%,22.352941%);fill-opacity:1;" d="M 107.734375 14.097656 L 85.167969 14.097656 L 85.167969 18.121094 L 107.734375 18.121094 C 108.851562 18.121094 109.761719 17.222656 109.761719 16.109375 C 109.761719 14.996094 108.855469 14.09375 107.734375 14.09375 Z M 107.734375 14.097656 "/>
<path style=" stroke:none;fill-rule:nonzero;fill:rgb(4.313725%,16.862745%,22.352941%);fill-opacity:1;" d="M 131.851562 26.960938 L 121.675781 26.960938 L 121.675781 3.347656 C 121.675781 2.191406 120.734375 1.257812 119.570312 1.257812 C 118.410156 1.257812 117.46875 2.191406 117.46875 3.347656 L 117.46875 29.023438 C 117.46875 30.109375 118.351562 30.984375 119.445312 30.984375 L 131.847656 30.984375 C 132.96875 30.984375 133.875 30.085938 133.875 28.972656 C 133.875 27.859375 132.96875 26.957031 131.847656 26.957031 Z M 131.851562 26.960938 "/>
<path style=" stroke:none;fill-rule:nonzero;fill:rgb(4.313725%,16.862745%,22.352941%);fill-opacity:1;" d="M 235.976562 1.257812 L 220.359375 1.257812 C 219.242188 1.257812 218.332031 2.160156 218.332031 3.273438 C 218.332031 4.386719 219.238281 5.285156 220.359375 5.285156 L 226.0625 5.285156 L 226.0625 28.902344 C 226.0625 30.054688 227.007812 30.992188 228.167969 30.992188 C 229.328125 30.992188 230.273438 30.054688 230.273438 28.902344 L 230.273438 5.285156 L 235.976562 5.285156 C 237.09375 5.285156 238 4.382812 238 3.269531 C 238 2.15625 237.09375 1.257812 235.976562 1.257812 Z M 235.976562 1.257812 "/>
</g>
</svg>
