<svg width="85" height="70" viewBox="0 0 85 70" fill="none" xmlns="http://www.w3.org/2000/svg">
<g clip-path="url(#clip0)">
<path d="M57.0501 0H41.6101V20.48H62.0901V5C62.0901 3.67392 61.5633 2.40215 60.6256 1.46447C59.688 0.526784 58.4162 0 57.0901 0" fill="#2D7DE4"/>
<path d="M57.0499 25.9H46.6499C45.3238 25.9 44.0521 26.4268 43.1144 27.3645C42.1767 28.3021 41.6499 29.5739 41.6499 30.9V46.37H62.0899V30.94C62.0899 29.6139 61.5631 28.3421 60.6254 27.4045C59.6878 26.4668 58.416 25.94 57.0899 25.94" fill="white"/>
<path d="M35.6201 46.38H23.1901C21.8322 46.38 20.5299 45.8406 19.5697 44.8804C18.6095 43.9202 18.0701 42.6179 18.0701 41.26V5.12C18.0701 3.76209 18.6095 2.4598 19.5697 1.49961C20.5299 0.539427 21.8322 0 23.1901 0L35.6201 0V46.38Z" fill="white"/>
<path d="M59.7101 64.71C58.2501 64.71 57.5401 65.19 57.5401 66.19C57.5401 67.19 58.0701 67.66 59.2201 67.66C60.2907 67.689 61.3423 67.3736 62.2201 66.76V64.88C61.3914 64.7686 60.5563 64.7119 59.7201 64.71H59.7101ZM64.3801 69.49H63.0801L62.5001 68.55C61.5167 69.1649 60.38 69.4907 59.2201 69.49C56.6701 69.49 55.3701 68.39 55.3701 66.22C55.3701 64.05 56.8301 62.88 59.7101 62.88C60.5463 62.8819 61.3814 62.9386 62.2101 63.05V62.29C62.2101 61.22 61.3601 60.71 59.6301 60.71C58.5492 60.7156 57.4748 60.8773 56.4401 61.19L56.2001 61.26V59.41H56.3301C57.4006 59.0865 58.5119 58.9181 59.6301 58.91C62.7801 58.91 64.3701 60.04 64.3701 62.27L64.3801 69.49Z" fill="white"/>
<path d="M9.2 69.49H7V62.85C7.00309 62.3092 6.79644 61.7883 6.42348 61.3967C6.05052 61.0051 5.54029 60.7733 5 60.75H4.93C3.89231 60.782 2.90563 61.2074 2.17 61.94V69.49H0V54.88H1.12C1.3906 54.8953 1.64505 55.0138 1.83104 55.2109C2.01703 55.4081 2.12043 55.669 2.12 55.94V59.8C2.99537 59.1794 4.04719 58.8568 5.12 58.88C7.78 58.88 9.12 60.23 9.12 62.88L9.2 69.49Z" fill="white"/>
<path d="M14.9999 64.71C13.5399 64.71 12.8299 65.19 12.8299 66.19C12.8299 67.19 13.3599 67.66 14.4999 67.66C15.5705 67.689 16.6221 67.3736 17.4999 66.76V64.88C16.6712 64.7686 15.8361 64.7119 14.9999 64.71ZM19.6599 69.49H18.3799L17.7999 68.55C16.8134 69.1662 15.6731 69.492 14.5099 69.49C11.9699 69.49 10.6699 68.39 10.6699 66.22C10.6699 64.05 12.1299 62.88 15.0099 62.88C15.8461 62.8819 16.6812 62.9386 17.5099 63.05V62.29C17.5099 61.22 16.6599 60.71 14.9299 60.71C13.849 60.7156 12.7746 60.8773 11.7399 61.19L11.4999 61.26V59.41H11.6299C12.7004 59.0865 13.8117 58.9181 14.9299 58.91C18.0799 58.91 19.6699 60.04 19.6699 62.27L19.6599 69.49Z" fill="white"/>
<path d="M29.6 69.49H21.23V67.88L21.27 67.83L27.22 60.71H21.43V58.88H29.79V60.59L29.75 60.64L23.88 67.76H29.6V69.49Z" fill="white"/>
<path d="M32.88 63H38C38.0264 62.6777 37.9806 62.3535 37.8657 62.0512C37.7508 61.749 37.5698 61.4762 37.3359 61.2528C37.102 61.0295 36.8212 60.8612 36.5139 60.7604C36.2066 60.6596 35.8807 60.6287 35.56 60.67C35.2273 60.6277 34.8896 60.6562 34.5687 60.7535C34.2479 60.8509 33.9512 61.0149 33.6982 61.2349C33.4452 61.4549 33.2415 61.7258 33.1005 62.03C32.9595 62.3342 32.8843 62.6647 32.88 63ZM36.16 69.47C32.54 69.47 30.7 67.65 30.7 64.05C30.7 60.61 32.3499 58.86 35.5999 58.86C38.5999 58.86 40.15 60.38 40.15 63.37C40.1475 63.8181 40.1175 64.2656 40.06 64.71V64.86H32.8699C32.9399 66.74 34.08 67.64 36.36 67.64C37.3728 67.6537 38.3825 67.5258 39.36 67.26L39.59 67.2V69.04H39.4599C38.3676 69.3298 37.2399 69.4644 36.11 69.44" fill="white"/>
<path d="M44.11 69.49H42V54.88H43.11C43.3806 54.8953 43.635 55.0138 43.821 55.2109C44.007 55.4081 44.1104 55.669 44.11 55.94V69.49Z" fill="white"/>
<path d="M51.3299 69.49C47.5799 69.49 45.6799 67.64 45.6799 63.99C45.6799 60.6 47.5799 58.88 51.3299 58.88C52.2617 58.8743 53.191 58.975 54.0999 59.18H54.2399V61.02L53.9999 61C53.0845 60.7946 52.1481 60.6973 51.2099 60.71C48.9299 60.71 47.8299 61.78 47.8299 63.99C47.8299 66.46 48.9299 67.66 51.2099 67.66C52.1474 67.6707 53.0832 67.5768 53.9999 67.38H54.2199V69.21H54.0799C53.171 69.415 52.2417 69.5157 51.3099 69.51" fill="white"/>
<path d="M70.27 69.49C69.0204 69.4915 67.7761 69.3267 66.57 69H66.44V67L66.67 67.08C67.8329 67.4566 69.0476 67.6489 70.27 67.65C72.54 67.65 72.54 66.65 72.54 66.37C72.54 65.86 72.38 65.19 71.01 65.19H69.54C67.22 65.2 66 64.12 66 62C66 59.88 67.5 58.89 70.45 58.89C71.6959 58.8941 72.9362 59.0588 74.14 59.38H74.27V61.38L74.04 61.3C72.8803 60.9243 71.669 60.732 70.45 60.73C68.08 60.73 68.08 61.73 68.08 62.01C68.08 62.82 68.53 63.2 69.5 63.2H71C73.45 63.2 74.69 64.27 74.69 66.4C74.69 68.53 73.2 69.51 70.26 69.51" fill="white"/>
<path d="M81.0001 69.49H79.1001C77.2701 69.49 76.3401 68.49 76.3401 66.55V57.22H77.8001L78.1901 58.88H81.0001V60.71H78.5001V66.41C78.5001 67.27 78.8401 67.66 79.5601 67.66H81.0001V69.49Z" fill="white"/>
<path d="M84.41 57.59C84.4151 57.8298 84.3708 58.068 84.28 58.29C84.2027 58.4873 84.0871 58.6674 83.94 58.82C83.7147 59.03 83.4348 59.1724 83.1324 59.2307C82.83 59.2891 82.5173 59.2611 82.23 59.15C82.0436 59.0733 81.8738 58.9613 81.73 58.82C81.5797 58.668 81.4608 58.4879 81.38 58.29C81.2939 58.0667 81.2498 57.8294 81.25 57.59C81.2499 57.3474 81.294 57.1068 81.38 56.88C81.461 56.6852 81.58 56.5084 81.73 56.36C81.8685 56.2123 82.0398 56.0992 82.23 56.03C82.6165 55.8832 83.0435 55.8832 83.43 56.03C83.6221 56.1014 83.7962 56.214 83.94 56.36C84.0871 56.5088 84.2027 56.6856 84.28 56.88C84.3708 57.1055 84.4151 57.347 84.41 57.59ZM84.08 57.59C84.0896 57.3901 84.0624 57.1901 84 57C83.9471 56.841 83.862 56.6946 83.75 56.57C83.6382 56.4491 83.5018 56.3536 83.35 56.29C83.1915 56.2242 83.0216 56.1903 82.85 56.19C82.6785 56.1913 82.5088 56.2252 82.35 56.29C82.2026 56.3564 82.07 56.4516 81.96 56.57C81.8483 56.6966 81.7602 56.8423 81.7 57C81.6377 57.18 81.6072 57.3695 81.61 57.56C81.6074 57.7472 81.6379 57.9334 81.7 58.11C81.7601 58.2708 81.8481 58.4198 81.96 58.55C82.0677 58.6686 82.2011 58.7609 82.35 58.82C82.5074 58.8894 82.678 58.9235 82.85 58.92C83.022 58.9245 83.1929 58.8903 83.35 58.82C83.5034 58.764 83.6407 58.6713 83.75 58.55C83.8622 58.4218 83.9473 58.2721 84 58.11C84.0555 57.9424 84.0826 57.7666 84.08 57.59ZM83.29 58.51C83.2197 58.3711 83.1395 58.2374 83.05 58.11C82.98 58.0051 82.9031 57.9049 82.82 57.81H82.51V58.51H82.19V56.71H82.45H82.7C82.9142 56.6932 83.1281 56.7458 83.31 56.86C83.3796 56.9093 83.4355 56.9757 83.4723 57.0527C83.509 57.1297 83.5255 57.2148 83.52 57.3C83.5236 57.4072 83.492 57.5125 83.43 57.6C83.364 57.6899 83.2738 57.7593 83.17 57.8L83.28 57.94L83.4 58.12L83.53 58.33L83.65 58.56L83.29 58.51ZM82.51 57.51H82.69C82.8095 57.5132 82.9284 57.4928 83.04 57.45C83.0853 57.4295 83.1232 57.3953 83.1483 57.3523C83.1733 57.3093 83.1844 57.2596 83.18 57.21C83.1728 57.1616 83.1521 57.1162 83.1202 57.0791C83.0884 57.0419 83.0467 57.0145 83 57C82.9025 56.957 82.7965 56.9365 82.69 56.94H82.47L82.51 57.51Z" fill="white"/>
</g>
<defs>
<clipPath id="clip0">
<rect width="84.41" height="69.49" fill="white"/>
</clipPath>
</defs>
</svg>
