<?xml version="1.0" encoding="UTF-8"?>
<svg xmlns="http://www.w3.org/2000/svg" xmlns:xlink="http://www.w3.org/1999/xlink" width="50pt" height="50pt" viewBox="0 0 50 50" version="1.1">
<g id="surface29962613">
<path style=" stroke:none;fill-rule:nonzero;fill:#0080a9;fill-opacity:1;" d="M 25 1.050781 C 24.78125 1.050781 24.566406 1.121094 24.378906 1.261719 L 1.378906 19.210938 C 0.949219 19.550781 0.871094 20.179688 1.210938 20.621094 C 1.550781 21.050781 2.179688 21.128906 2.617188 20.789062 L 4 19.710938 L 4 46 C 4 46.550781 4.449219 47 5 47 L 18 47 L 18 27 L 32 27 L 32 47 L 45 47 C 45.550781 47 46 46.550781 46 46 L 46 19.710938 L 47.378906 20.789062 C 47.570312 20.929688 47.78125 21 48 21 C 48.300781 21 48.589844 20.871094 48.789062 20.621094 C 49.128906 20.179688 49.050781 19.550781 48.617188 19.210938 L 41 13.269531 L 41 6 C 41 5.449219 40.550781 5 40 5 L 36 5 C 35.730469 5 35.480469 5.109375 35.289062 5.289062 C 35.109375 5.480469 35 5.730469 35 6 L 35 8.589844 L 25.617188 1.261719 C 25.433594 1.121094 25.21875 1.050781 25 1.050781 Z M 20 29.097656 L 20 47 L 30 47 L 30 29.097656 Z M 27 36 C 27.550781 36 28 36.449219 28 37 C 28 37.550781 27.550781 38 27 38 C 26.449219 38 26 37.550781 26 37 C 26 36.449219 26.449219 36 27 36 Z M 27 36 "/>
</g>
</svg>
