<svg width="195" height="48" viewBox="0 0 195 48" fill="none" xmlns="http://www.w3.org/2000/svg">
<g clip-path="url(#clip0)">
<path d="M9.72028 12.4406C11.7749 12.4406 13.4406 10.7749 13.4406 8.72028C13.4406 6.66563 11.7749 5 9.72028 5C7.66563 5 6 6.66563 6 8.72028C6 10.7749 7.66563 12.4406 9.72028 12.4406Z" fill="#0B2A35"/>
<path d="M19.2399 12.4406C21.2946 12.4406 22.9602 10.7749 22.9602 8.72028C22.9602 6.66563 21.2946 5 19.2399 5C17.1853 5 15.5197 6.66563 15.5197 8.72028C15.5197 10.7749 17.1853 12.4406 19.2399 12.4406Z" fill="#0B2A35"/>
<path d="M28.7601 12.4406C30.8147 12.4406 32.4804 10.7749 32.4804 8.72028C32.4804 6.66563 30.8147 5 28.7601 5C26.7054 5 25.0398 6.66563 25.0398 8.72028C25.0398 10.7749 26.7054 12.4406 28.7601 12.4406Z" fill="#1EC1CB"/>
<path d="M38.2797 12.4406C40.3344 12.4406 42 10.7749 42 8.72028C42 6.66563 40.3344 5 38.2797 5C36.2251 5 34.5594 6.66563 34.5594 8.72028C34.5594 10.7749 36.2251 12.4406 38.2797 12.4406Z" fill="#1EC1CB"/>
<path d="M9.72028 21.9601C11.7749 21.9601 13.4406 20.2945 13.4406 18.2398C13.4406 16.1852 11.7749 14.5195 9.72028 14.5195C7.66563 14.5195 6 16.1852 6 18.2398C6 20.2945 7.66563 21.9601 9.72028 21.9601Z" fill="#0B2A35"/>
<path d="M19.2399 21.9601C21.2946 21.9601 22.9602 20.2945 22.9602 18.2398C22.9602 16.1852 21.2946 14.5195 19.2399 14.5195C17.1853 14.5195 15.5197 16.1852 15.5197 18.2398C15.5197 20.2945 17.1853 21.9601 19.2399 21.9601Z" fill="#0B2A35"/>
<path d="M28.7601 21.9601C30.8147 21.9601 32.4804 20.2945 32.4804 18.2398C32.4804 16.1852 30.8147 14.5195 28.7601 14.5195C26.7054 14.5195 25.0398 16.1852 25.0398 18.2398C25.0398 20.2945 26.7054 21.9601 28.7601 21.9601Z" fill="#1EC1CB"/>
<path d="M38.2797 21.9601C40.3344 21.9601 42 20.2945 42 18.2398C42 16.1852 40.3344 14.5195 38.2797 14.5195C36.2251 14.5195 34.5594 16.1852 34.5594 18.2398C34.5594 20.2945 36.2251 21.9601 38.2797 21.9601Z" fill="#1EC1CB"/>
<path d="M9.72028 31.4801C11.7749 31.4801 13.4406 29.8145 13.4406 27.7598C13.4406 25.7052 11.7749 24.0396 9.72028 24.0396C7.66563 24.0396 6 25.7052 6 27.7598C6 29.8145 7.66563 31.4801 9.72028 31.4801Z" fill="#0B2A35"/>
<path d="M19.2399 31.4801C21.2946 31.4801 22.9602 29.8145 22.9602 27.7598C22.9602 25.7052 21.2946 24.0396 19.2399 24.0396C17.1853 24.0396 15.5197 25.7052 15.5197 27.7598C15.5197 29.8145 17.1853 31.4801 19.2399 31.4801Z" fill="#0B2A35"/>
<path d="M28.7601 31.4801C30.8147 31.4801 32.4804 29.8145 32.4804 27.7598C32.4804 25.7052 30.8147 24.0396 28.7601 24.0396C26.7054 24.0396 25.0398 25.7052 25.0398 27.7598C25.0398 29.8145 26.7054 31.4801 28.7601 31.4801Z" fill="#0B2A35"/>
<path d="M38.2797 31.4801C40.3344 31.4801 42 29.8145 42 27.7598C42 25.7052 40.3344 24.0396 38.2797 24.0396C36.2251 24.0396 34.5594 25.7052 34.5594 27.7598C34.5594 29.8145 36.2251 31.4801 38.2797 31.4801Z" fill="#0B2A35"/>
<path d="M9.72028 40.9999C11.7749 40.9999 13.4406 39.3343 13.4406 37.2796C13.4406 35.225 11.7749 33.5593 9.72028 33.5593C7.66563 33.5593 6 35.225 6 37.2796C6 39.3343 7.66563 40.9999 9.72028 40.9999Z" fill="#0B2A35"/>
<path d="M19.2399 40.9999C21.2946 40.9999 22.9602 39.3343 22.9602 37.2796C22.9602 35.225 21.2946 33.5593 19.2399 33.5593C17.1853 33.5593 15.5197 35.225 15.5197 37.2796C15.5197 39.3343 17.1853 40.9999 19.2399 40.9999Z" fill="#0B2A35"/>
<path d="M28.7601 40.9999C30.8147 40.9999 32.4804 39.3343 32.4804 37.2796C32.4804 35.225 30.8147 33.5593 28.7601 33.5593C26.7054 33.5593 25.0398 35.225 25.0398 37.2796C25.0398 39.3343 26.7054 40.9999 28.7601 40.9999Z" fill="#0B2A35"/>
<path d="M38.2797 40.9999C40.3344 40.9999 42 39.3343 42 37.2796C42 35.225 40.3344 33.5593 38.2797 33.5593C36.2251 33.5593 34.5594 35.225 34.5594 37.2796C34.5594 39.3343 36.2251 40.9999 38.2797 40.9999Z" fill="#0B2A35"/>
<path d="M98.1671 8.06328H89.7156V6.02545H101.705V6.87582L93.2535 18.8538H101.705V20.8916H89.7156V20.0413L98.1671 8.06328ZM174.835 12.499C171.672 11.8133 171.093 11.0741 171.093 9.82531C171.093 8.56124 172.269 7.6764 173.954 7.6764C175.429 7.6764 176.706 8.16287 177.976 9.21243L178.135 9.3465L179.322 7.75301L179.17 7.63043C177.591 6.34338 176.045 5.79562 173.996 5.79562C171.146 5.79562 169.075 7.54999 169.075 10.013C169.075 12.7518 171.067 13.7554 174.057 14.4142C177.08 15.0616 177.636 15.7856 177.636 17.0267C177.636 18.3673 176.4 19.302 174.631 19.302C172.783 19.302 171.396 18.7197 169.838 17.2948L169.687 17.1531L168.425 18.6699L168.568 18.8002C170.364 20.4243 172.272 21.1827 174.574 21.1827C177.579 21.1827 179.681 19.4054 179.681 16.8198C179.673 14.5407 178.229 13.2498 174.835 12.499ZM147.523 16.4329C146.502 18.2141 144.624 19.4284 142.45 19.4284C139.207 19.4284 136.565 16.7547 136.565 13.4643C136.565 10.1739 139.204 7.5002 142.45 7.5002C144.624 7.5002 146.502 8.71446 147.523 10.4956L149.239 9.49206C147.874 7.10948 145.361 5.48535 142.45 5.48535C138.108 5.48535 134.577 9.06304 134.577 13.4643C134.577 17.8655 138.108 21.4432 142.45 21.4432C145.357 21.4432 147.874 19.8191 149.239 17.4365L147.523 16.4329ZM72.2495 20.8801H74.4455L79.4953 8.87918L84.5488 20.8801H86.7448V20.8763L80.5007 6.03311H77.5147C77.5147 6.03311 78.3954 6.25528 77.7188 7.87175L72.2495 20.8801ZM151.563 20.8801H153.759L158.809 8.87918L163.863 20.8801H166.059V20.8763L159.815 6.03311H156.829C156.829 6.03311 157.709 6.25528 157.033 7.87175L151.563 20.8801ZM53.8536 6.03311C54.2958 6.20166 54.6473 6.59237 54.7532 7.09416C54.8514 7.47721 54.9043 8.14372 54.9043 9.08985V20.8763H57.1873V14.4028H65.6085V20.8763H67.8915V6.03694H65.6085V12.4913H57.1873V6.03694L53.8536 6.03311ZM106.343 6.03311C106.785 6.20166 107.136 6.59237 107.242 7.09416C107.341 7.47721 107.393 8.15138 107.393 9.10134V20.8763H117.032V18.8691H109.676V14.3951H116.612V12.5028H109.676V8.05179H117.02V6.03694L106.343 6.03311ZM122.433 6.0446C122.875 6.21315 123.227 6.60386 123.333 7.10565C123.431 7.4887 123.484 8.16287 123.484 9.11284V20.8763H132.427V18.8768H125.767V6.03694L122.433 6.0446ZM190.094 20.8801V8.01348H195V6.03694H182.841V8.01348H187.766V17.8119C187.766 18.7619 187.716 19.436 187.614 19.8191C187.509 20.3247 187.157 20.7116 186.715 20.8801H190.094Z" fill="#141414"/>
<path d="M55.4041 41.4285H54.4432V30.0535H55.4041V41.4285ZM59.7713 30.0535L63.9666 40.0925L68.1776 30.0535H69.4588V41.4285H68.4979V36.4753L68.576 31.3972L64.3416 41.4285H63.5994L59.3807 31.4363L59.4588 36.4441V41.4285H58.4979V30.0535H59.7713ZM72.3416 41.4285V30.0535H75.5213C76.4536 30.0535 77.2895 30.267 78.0291 30.6941C78.7687 31.116 79.3442 31.7227 79.7557 32.5144C80.1723 33.3061 80.3807 34.2071 80.3807 35.2175V36.2644C80.3807 37.28 80.1749 38.1811 79.7635 38.9675C79.352 39.754 78.7713 40.3608 78.0213 40.7878C77.2765 41.2149 76.4197 41.4285 75.451 41.4285H72.3416ZM73.3026 30.8738V40.616H75.4588C76.6567 40.616 77.6177 40.2201 78.3416 39.4285C79.0656 38.6316 79.4276 37.5561 79.4276 36.2019V35.2019C79.4276 33.8946 79.0708 32.8477 78.3572 32.0613C77.6437 31.2748 76.7036 30.879 75.5369 30.8738H73.3026ZM91.0369 40.0769C90.7036 40.5509 90.1802 40.9207 89.4666 41.1863C88.7583 41.4519 87.964 41.5847 87.0838 41.5847C86.1932 41.5847 85.4015 41.3712 84.7088 40.9441C84.0161 40.517 83.4796 39.9128 83.0994 39.1316C82.7192 38.3503 82.5265 37.4545 82.5213 36.4441V35.0066C82.5213 33.4285 82.9197 32.1837 83.7166 31.2722C84.5135 30.3556 85.5838 29.8972 86.9276 29.8972C88.0994 29.8972 89.0421 30.1967 89.7557 30.7957C90.4692 31.3894 90.8937 32.2097 91.0291 33.2566H90.0682C89.9276 32.4233 89.5864 31.7931 89.0447 31.366C88.5083 30.9337 87.8052 30.7175 86.9354 30.7175C85.8729 30.7175 85.0317 31.0951 84.4119 31.8503C83.7921 32.6056 83.4822 33.6707 83.4822 35.0457V36.3894C83.4822 37.254 83.6281 38.0196 83.9197 38.6863C84.2166 39.3477 84.6385 39.8608 85.1854 40.2253C85.7374 40.5899 86.3703 40.7722 87.0838 40.7722C87.9119 40.7722 88.6229 40.642 89.2166 40.3816C89.602 40.2097 89.8885 40.0092 90.076 39.78V36.8425H87.0213V36.03H91.0369V40.0769Z" fill="black"/>
</g>
<defs>
<clipPath id="clip0">
<rect width="195" height="48" fill="white"/>
</clipPath>
</defs>
</svg>
