<svg width="195" height="48" viewBox="0 0 195 48" fill="none" xmlns="http://www.w3.org/2000/svg">
<g clip-path="url(#clip0)">
<path d="M21.1077 17.9229C21.2583 17.8702 21.4089 17.825 21.5595 17.7873C21.5595 17.4786 21.5219 17.1774 21.5143 16.8687C21.4458 14.7818 21.6714 12.6956 22.1845 10.6716L22.3351 10.1144C21.3523 8.93301 20.1241 7.97974 18.7358 7.3208C18.0512 7.5044 17.3796 7.73332 16.7253 8.00602L17.3127 9.42917L21.1077 17.9229ZM12.3655 12.3583L19.3382 18.9695C19.4587 18.8641 19.5817 18.7637 19.7072 18.6683C19.5716 18.3973 19.4436 18.1262 19.3156 17.8551C18.4507 15.9521 17.8575 13.937 17.5536 11.8689L17.4783 11.3041C16.122 10.59 14.6267 10.1789 13.0959 10.0993C12.5433 10.5416 12.0201 11.0195 11.5297 11.53L12.4032 12.4035L12.3655 12.3583ZM9.14273 17.1774L18.0882 20.6186C18.1585 20.473 18.2338 20.3324 18.3141 20.1969C18.0958 20.0011 17.8699 19.8054 17.659 19.602C16.1351 18.1715 14.8196 16.5341 13.751 14.7377L13.4724 14.2634C11.9439 14.1193 10.4022 14.3094 8.95449 14.8206C8.59391 15.4337 8.27444 16.0701 7.99819 16.7256L9.19544 17.2226L9.14273 17.1774ZM8.01325 22.8775L17.5536 22.6366C17.5536 22.4709 17.5687 22.3103 17.5988 22.1547C17.3202 22.0568 17.0491 21.9664 16.778 21.861C14.8238 21.118 12.9836 20.1041 11.3113 18.8491L10.8746 18.5177C9.39794 18.9711 8.03837 19.7421 6.8913 20.7767C6.79739 21.4781 6.7496 22.1849 6.74823 22.8926H8.10361L8.01325 22.8775Z" fill="#0B2A35"/>
<path d="M33.4117 12.3957L26.7704 19.3985C26.8708 19.509 26.9662 19.6244 27.0565 19.7449C27.3502 19.6018 27.6439 19.4588 27.945 19.3232C29.8424 18.4558 31.8526 17.8601 33.9163 17.5537L34.4735 17.4784C35.197 16.1141 35.6134 14.6081 35.6933 13.0659C35.2621 12.5247 34.7968 12.0117 34.3003 11.5298L33.3666 12.4033L33.4117 12.3957Z" fill="#1EC1CB"/>
<path d="M23.1486 17.6441L23.6079 17.6893C23.7058 17.3956 23.8112 17.0944 23.9242 16.8008C24.6662 14.8484 25.6802 13.0105 26.9361 11.3416L27.29 10.8747C26.8346 9.40343 26.0637 8.04918 25.0311 6.9065C24.3296 6.81259 23.6228 6.7648 22.9152 6.76343V8.51789L23.1486 17.6441Z" fill="#0B2A35"/>
<path d="M25.1365 18.1639C25.272 18.2291 25.405 18.3019 25.5356 18.3823C25.7464 18.1413 25.9572 17.9003 26.1831 17.6669C27.6118 16.1525 29.2468 14.847 31.0399 13.789L31.5369 13.5029C31.6809 11.9743 31.4908 10.4327 30.9797 8.98495C30.3673 8.61409 29.7309 8.28456 29.0746 7.99854L28.4722 9.4518L25.1365 18.1639Z" fill="#1EC1CB"/>
<path d="M36.642 17.2298L27.802 21.1529C27.8547 21.2885 27.8923 21.4315 27.93 21.5821C28.2613 21.5821 28.5926 21.5445 28.9239 21.5294C31.0117 21.4626 33.0983 21.6933 35.121 22.2146L35.6481 22.3577C36.843 21.3716 37.8069 20.1352 38.4718 18.7358C38.2882 18.0512 38.0593 17.3796 37.7866 16.7253L36.5592 17.2298H36.642ZM24.6695 27.8395L24.2328 27.9825C24.2328 28.2988 24.2704 28.615 24.2855 28.9313C24.3414 31.0175 24.1031 33.1011 23.5777 35.1209L23.4271 35.6781C24.4077 36.8586 25.6333 37.8118 27.0188 38.4717C27.7034 38.2881 28.3751 38.0591 29.0293 37.7864L28.4796 36.3783L24.6695 27.8395ZM33.4343 33.4417L26.4014 26.7702C26.2884 26.8681 26.183 26.966 26.0625 27.0563C26.2056 27.35 26.3487 27.6437 26.4842 27.9449C27.3467 29.8482 27.9373 31.8634 28.2387 33.9311L28.314 34.4959C29.6703 35.21 31.1656 35.6211 32.6964 35.7007C33.261 35.2694 33.7968 34.8015 34.3002 34.3001L33.4268 33.4266L33.4343 33.4417ZM36.6571 28.615L27.6212 25.1287C27.561 25.2642 27.4932 25.3922 27.4179 25.5203C27.6664 25.7386 27.9149 25.957 28.1709 26.1904C29.6948 27.621 31.0103 29.2584 32.0789 31.0547L32.3575 31.5291C33.8861 31.6732 35.4277 31.483 36.8755 30.9719C37.2335 30.3585 37.5504 29.7221 37.8242 29.0668L36.627 28.5699L36.6571 28.615ZM37.6962 22.8999H37.7866L28.0956 23.1634C28.0956 23.314 28.0956 23.4571 28.058 23.6001C28.3742 23.7055 28.6905 23.8185 28.9992 23.939C30.9535 24.682 32.7937 25.6959 34.4659 26.9509L34.9026 27.2822C36.3793 26.8289 37.7389 26.0578 38.886 25.0233C38.9799 24.3219 39.0276 23.615 39.029 22.9074H37.6962V22.8999ZM20.641 27.6889C20.498 27.6211 20.3549 27.5458 20.2118 27.4705C20.016 27.6964 19.8203 27.9148 19.6094 28.1331C18.1816 29.6527 16.5466 30.9632 14.7527 32.0261L14.2557 32.3122C14.1116 33.8408 14.3018 35.3824 14.8129 36.8301C15.4263 37.1881 16.0627 37.5051 16.718 37.7789L17.3279 36.3783L20.641 27.6889ZM12.3883 33.3664L18.9694 26.4314C18.859 26.3109 18.7535 26.1879 18.6531 26.0624C18.3896 26.1904 18.126 26.3184 17.8625 26.4389C15.9612 27.2967 13.9485 27.8823 11.8838 28.1783L11.3266 28.2536C10.5961 29.6264 10.1771 31.1432 10.0992 32.6962C10.5402 33.2618 11.0181 33.7976 11.5299 34.3001L12.4335 33.3965L12.3883 33.3664ZM9.15795 28.5699L17.8851 24.692C17.8299 24.5414 17.7822 24.3857 17.742 24.2251L16.8761 24.2703H16.2662C14.3816 24.2825 12.5035 24.0497 10.679 23.5775L10.1519 23.4345C8.95699 24.4206 7.99308 25.657 7.32819 27.0563C7.51179 27.741 7.7407 28.4126 8.01341 29.0668L9.24078 28.5623L9.15795 28.5699ZM22.6515 28.1632H22.1847C22.0868 28.4569 21.9889 28.743 21.8759 29.0292C21.134 30.9816 20.12 32.8195 18.864 34.4883L18.5101 34.9552C18.9654 36.4265 19.7364 37.7808 20.769 38.9235C21.4705 39.0173 22.1773 39.0651 22.8849 39.0665V37.2744L22.6515 28.1632Z" fill="#0B2A35"/>
<path d="M22.8398 26.8232C25.0064 26.8232 26.7628 25.0668 26.7628 22.9001C26.7628 20.7335 25.0064 18.9771 22.8398 18.9771C20.6731 18.9771 18.9167 20.7335 18.9167 22.9001C18.9167 25.0668 20.6731 26.8232 22.8398 26.8232Z" fill="#0B2A35"/>
<path d="M22.9 41.8C19.162 41.8 15.5078 40.6916 12.3997 38.6148C9.29165 36.5381 6.86918 33.5863 5.43869 30.1328C4.00819 26.6792 3.63391 22.8791 4.36317 19.2128C5.09243 15.5466 6.89248 12.1789 9.5357 9.5357C12.1789 6.89248 15.5466 5.09243 19.2128 4.36317C22.8791 3.63391 26.6792 4.00819 30.1328 5.43869C33.5863 6.86918 36.5381 9.29165 38.6148 12.3997C40.6916 15.5078 41.8 19.162 41.8 22.9C41.7941 27.9108 39.8009 32.7146 36.2578 36.2578C32.7146 39.8009 27.9108 41.7941 22.9 41.8ZM22.9 5.22738C19.4047 5.22738 15.9879 6.26386 13.0816 8.20576C10.1754 10.1477 7.91023 12.9077 6.57263 16.137C5.23503 19.3663 4.88505 22.9196 5.56696 26.3478C6.24886 29.7759 7.93201 32.9249 10.4036 35.3965C12.8751 37.868 16.0241 39.5512 19.4523 40.2331C22.8804 40.915 26.4338 40.565 29.6631 39.2274C32.8923 37.8898 35.6524 35.6247 37.5943 32.7184C39.5362 29.8122 40.5727 26.3953 40.5727 22.9C40.5687 18.2142 38.7055 13.7214 35.3921 10.408C32.0787 7.09458 27.5859 5.23137 22.9 5.22738Z" fill="#0B2A35"/>
<path d="M98.1671 8.06328H89.7156V6.02545H101.705V6.87582L93.2535 18.8538H101.705V20.8916H89.7156V20.0413L98.1671 8.06328ZM174.835 12.499C171.672 11.8133 171.093 11.0741 171.093 9.82531C171.093 8.56124 172.269 7.6764 173.954 7.6764C175.429 7.6764 176.706 8.16287 177.976 9.21243L178.135 9.3465L179.322 7.75301L179.17 7.63043C177.591 6.34338 176.045 5.79562 173.996 5.79562C171.146 5.79562 169.075 7.54999 169.075 10.013C169.075 12.7518 171.067 13.7554 174.057 14.4142C177.08 15.0616 177.636 15.7856 177.636 17.0267C177.636 18.3673 176.4 19.302 174.631 19.302C172.783 19.302 171.396 18.7197 169.838 17.2948L169.687 17.1531L168.425 18.6699L168.568 18.8002C170.364 20.4243 172.272 21.1827 174.574 21.1827C177.579 21.1827 179.681 19.4054 179.681 16.8198C179.673 14.5407 178.229 13.2498 174.835 12.499ZM147.523 16.4329C146.502 18.2141 144.624 19.4284 142.45 19.4284C139.207 19.4284 136.565 16.7547 136.565 13.4643C136.565 10.1739 139.204 7.5002 142.45 7.5002C144.624 7.5002 146.502 8.71446 147.523 10.4956L149.239 9.49206C147.874 7.10948 145.361 5.48535 142.45 5.48535C138.108 5.48535 134.577 9.06304 134.577 13.4643C134.577 17.8655 138.108 21.4432 142.45 21.4432C145.357 21.4432 147.874 19.8191 149.239 17.4365L147.523 16.4329ZM72.2495 20.8801H74.4455L79.4953 8.87918L84.5488 20.8801H86.7448V20.8763L80.5007 6.03311H77.5147C77.5147 6.03311 78.3954 6.25528 77.7188 7.87175L72.2495 20.8801ZM151.563 20.8801H153.759L158.809 8.87918L163.863 20.8801H166.059V20.8763L159.815 6.03311H156.829C156.829 6.03311 157.709 6.25528 157.033 7.87175L151.563 20.8801ZM53.8536 6.03311C54.2958 6.20166 54.6473 6.59237 54.7532 7.09416C54.8514 7.47721 54.9043 8.14372 54.9043 9.08985V20.8763H57.1873V14.4028H65.6085V20.8763H67.8915V6.03694H65.6085V12.4913H57.1873V6.03694L53.8536 6.03311ZM106.343 6.03311C106.785 6.20166 107.136 6.59237 107.242 7.09416C107.341 7.47721 107.393 8.15138 107.393 9.10134V20.8763H117.032V18.8691H109.676V14.3951H116.612V12.5028H109.676V8.05179H117.02V6.03694L106.343 6.03311ZM122.433 6.0446C122.875 6.21315 123.227 6.60386 123.333 7.10565C123.431 7.4887 123.484 8.16287 123.484 9.11284V20.8763H132.427V18.8768H125.767V6.03694L122.433 6.0446ZM190.094 20.8801V8.01348H195V6.03694H182.841V8.01348H187.766V17.8119C187.766 18.7619 187.716 19.436 187.614 19.8191C187.509 20.3247 187.157 20.7116 186.715 20.8801H190.094Z" fill="#141414"/>
<path d="M59.2557 30.0535H60.2245V38.0457C60.2245 39.1238 59.912 39.9832 59.287 40.6238C58.6672 41.2644 57.8338 41.5847 56.787 41.5847C55.6828 41.5847 54.8338 41.2957 54.2401 40.7175C53.6463 40.1394 53.3495 39.3321 53.3495 38.2957H54.3104C54.3104 39.1186 54.5265 39.7384 54.9588 40.155C55.3911 40.5665 56.0005 40.7722 56.787 40.7722C57.5109 40.7722 58.0995 40.5326 58.5526 40.0535C59.0109 39.5743 59.2453 38.9233 59.2557 38.1003V30.0535ZM69.326 35.9753H64.0057V40.616H70.1229V41.4285H63.0448V30.0535H70.0838V30.8738H64.0057V35.1628H69.326V35.9753ZM80.0291 30.8738H76.1307V41.4285H75.1698V30.8738H71.2791V30.0535H80.0291V30.8738Z" fill="black"/>
</g>
<defs>
<clipPath id="clip0">
<rect width="195" height="48" fill="white"/>
</clipPath>
</defs>
</svg>
