<svg width="34" height="34" viewBox="0 0 34 34" fill="none" xmlns="http://www.w3.org/2000/svg">
<path d="M17 31.1667C24.824 31.1667 31.1667 24.824 31.1667 17C31.1667 9.17596 24.824 2.83333 17 2.83333C9.17598 2.83333 2.83334 9.17596 2.83334 17C2.83334 24.824 9.17598 31.1667 17 31.1667Z" stroke="black" stroke-width="1.5" stroke-linecap="round" stroke-linejoin="round"/>
<path d="M17 22.6667C20.1296 22.6667 22.6667 20.1296 22.6667 17C22.6667 13.8704 20.1296 11.3333 17 11.3333C13.8704 11.3333 11.3333 13.8704 11.3333 17C11.3333 20.1296 13.8704 22.6667 17 22.6667Z" stroke="black" stroke-width="1.5" stroke-linecap="round" stroke-linejoin="round"/>
<path d="M6.98416 6.98416L12.9908 12.9908" stroke="black" stroke-width="1.5" stroke-linecap="round" stroke-linejoin="round"/>
<path d="M21.0092 21.0092L27.0158 27.0158" stroke="black" stroke-width="1.5" stroke-linecap="round" stroke-linejoin="round"/>
<path d="M21.0092 12.9908L27.0158 6.98416" stroke="black" stroke-width="1.5" stroke-linecap="round" stroke-linejoin="round"/>
<path d="M21.0092 12.9908L26.01 7.99001" stroke="black" stroke-width="1.5" stroke-linecap="round" stroke-linejoin="round"/>
<path d="M6.98416 27.0158L12.9908 21.0092" stroke="black" stroke-width="1.5" stroke-linecap="round" stroke-linejoin="round"/>
</svg>
