<svg width="167" height="40" viewBox="0 0 167 40" fill="none" xmlns="http://www.w3.org/2000/svg">
<rect width="167" height="40" rx="5" fill="#0080a9"/>
<path d="M17.918 19.7676H22.2861V26.0166C21.6064 26.2334 20.915 26.3975 20.2119 26.5088C19.5088 26.6201 18.6943 26.6758 17.7686 26.6758C15.8232 26.6758 14.3086 26.0986 13.2246 24.9443C12.1406 23.7842 11.5986 22.1611 11.5986 20.0752C11.5986 18.7393 11.8652 17.5703 12.3984 16.5684C12.9375 15.5605 13.7109 14.793 14.7188 14.2656C15.7266 13.7324 16.9072 13.4658 18.2607 13.4658C19.6318 13.4658 20.9092 13.7178 22.0928 14.2217L21.5127 15.54C20.3525 15.0479 19.2363 14.8018 18.1641 14.8018C16.5996 14.8018 15.3779 15.2676 14.499 16.1992C13.6201 17.1309 13.1807 18.4229 13.1807 20.0752C13.1807 21.8096 13.6025 23.125 14.4463 24.0215C15.2959 24.918 16.541 25.3662 18.1816 25.3662C19.0723 25.3662 19.9424 25.2637 20.792 25.0586V21.1035H17.918V19.7676ZM33.793 26.5H26.6299V13.6504H33.793V14.9775H28.124V19.1172H33.4502V20.4355H28.124V25.1641H33.793V26.5ZM41.8545 26.5H40.3604V14.9775H36.291V13.6504H45.9238V14.9775H41.8545V26.5Z" fill="white"/>
<path d="M126.318 21.6445C124.698 21.6445 123.909 22.2339 123.909 23.4513C123.909 24.6686 124.498 25.2635 125.768 25.2635C126.955 25.3015 128.12 24.915 129.091 24.1619V21.8538C128.172 21.7128 127.245 21.6429 126.318 21.6445ZM131.5 27.5H130.056L129.411 26.3432C128.321 27.1016 127.057 27.5028 125.768 27.5C122.934 27.5 121.5 26.1504 121.5 23.4898C121.5 20.8292 123.119 19.4025 126.318 19.4025C127.245 19.4039 128.172 19.4738 129.091 19.6119V18.6809C129.091 17.3754 128.152 16.7419 126.223 16.7419C125.021 16.7581 123.828 16.964 122.679 17.3534L122.42 17.436V15.15L122.564 15.1059C123.751 14.7131 124.983 14.5091 126.223 14.5C129.721 14.5 131.5 15.8826 131.5 18.6148V27.5Z" fill="white"/>
<path d="M66.5 27.5H63.8953V19.3147C63.8978 18.6569 63.6553 18.0231 63.2179 17.5438C62.7804 17.0644 62.1812 16.776 61.5435 16.7377H61.4036C60.1596 16.7779 58.9767 17.3027 58.0939 18.2063V27.5H55.5V9.5H56.8346C57.1686 9.5 57.4889 9.63663 57.7251 9.87982C57.9613 10.123 58.0939 10.4529 58.0939 10.7968V15.5628C59.1447 14.7965 60.4069 14.3982 61.6942 14.4267C64.8855 14.4267 66.5 16.0893 66.5 19.3534V27.5Z" fill="white"/>
<path d="M73.3122 21.6445C71.6848 21.6445 70.8936 22.2339 70.8936 23.4513C70.8936 24.6686 71.4845 25.2635 72.7564 25.2635C73.9457 25.3039 75.1146 24.9171 76.0864 24.1618V21.8538C75.1672 21.713 74.2402 21.6431 73.3122 21.6445ZM78.5 27.5H77.0528L76.4269 26.3432C75.3347 27.1024 74.0684 27.5037 72.7764 27.5C69.9372 27.5 68.5 26.1504 68.5 23.4898C68.5 20.8292 70.1224 19.4025 73.3322 19.4025C74.2602 19.4041 75.187 19.474 76.1064 19.6119V18.6809C76.1064 17.3754 75.165 16.7419 73.2321 16.7419C72.0215 16.756 70.819 16.9619 69.6617 17.3534L69.4014 17.436V15.15L69.5466 15.1059C70.736 14.7131 71.9703 14.5091 73.2121 14.5C76.7173 14.5 78.5 15.8826 78.5 18.6148V27.5Z" fill="white"/>
<path d="M90.274 27.5H80.5V25.5216L80.5525 25.461L87.4995 16.7374H80.7312V14.5H90.5V16.5941L90.4527 16.6547L83.5899 25.3783H90.274V27.5Z" fill="white"/>
<path d="M94.2371 19.5624H100.809C100.694 17.642 99.6657 16.712 97.7 16.712C95.5914 16.712 94.4657 17.642 94.2714 19.5624H94.2371ZM98.4371 27.4806C93.8314 27.4806 91.5 25.2466 91.5 20.8445C91.5 16.635 93.5914 14.5 97.7171 14.5C101.557 14.5 103.5 16.3544 103.5 20.0026C103.499 20.5545 103.463 21.1058 103.391 21.6534L103.363 21.8515H94.2257C94.3114 24.1351 95.7571 25.2521 98.6486 25.2521C99.9561 25.2726 101.26 25.117 102.523 24.7899L102.82 24.7128V26.9634L102.649 27.0074C101.262 27.3593 99.831 27.5241 98.3971 27.4972" fill="white"/>
<path d="M107.5 27.5H105.5V9.5H106.529C106.787 9.5 107.034 9.63663 107.216 9.87982C107.398 10.123 107.5 10.4529 107.5 10.7968V27.5Z" fill="white"/>
<path d="M116.095 27.4997C111.718 27.4997 109.5 25.2293 109.5 20.7603C109.5 16.6053 111.718 14.5003 116.095 14.5003C117.185 14.493 118.273 14.615 119.337 14.864L119.5 14.9026V17.1509L119.243 17.0903C118.171 16.8435 117.076 16.7252 115.979 16.7376C113.326 16.7376 112.033 18.0546 112.033 20.7603C112.033 23.7856 113.326 25.2624 115.979 25.2624C117.076 25.2721 118.171 25.1538 119.243 24.9097L119.5 24.8436V27.0974L119.337 27.136C118.273 27.385 117.185 27.507 116.095 27.4997Z" fill="white"/>
<path d="M138.874 27.5C137.285 27.4986 135.703 27.2948 134.17 26.8938L133.998 26.8497V24.458L134.296 24.5517C135.773 25.0203 137.318 25.2603 138.874 25.2626C141.736 25.2626 141.736 24.0778 141.736 23.6865C141.736 23.0638 141.535 22.2372 139.79 22.2372H137.953C134.999 22.2372 133.5 20.9146 133.5 18.308C133.5 15.7014 135.406 14.5 139.16 14.5C140.744 14.5018 142.32 14.7056 143.848 15.1062L144.019 15.1503V17.5365L143.722 17.4428C142.243 16.9777 140.698 16.7397 139.143 16.7374C136.116 16.7374 136.115 17.9222 136.115 18.308C136.115 19.2999 136.688 19.7628 137.935 19.7628H139.796C142.92 19.7628 144.5 21.0799 144.5 23.6865C144.5 26.2931 142.6 27.5 138.857 27.5" fill="white"/>
<path d="M151.5 27.5H149.054C146.694 27.5 145.5 26.2903 145.5 23.8985V12.5H147.378L147.877 14.529H151.5V16.7614H148.294V23.7335C148.294 24.7782 148.729 25.2676 149.657 25.2676H151.5V27.5Z" fill="white"/>
</svg>
