<svg fill="#000000" xmlns="http://www.w3.org/2000/svg"  viewBox="0 0 48 48" width="24px" height="24px"><path d="M 12.5 5 C 10.458334 5 8.7371483 5.8196334 7.6289062 7.0664062 C 6.5206642 8.3131791 6 9.9166668 6 11.5 C 6 13.083333 6.5206642 14.686821 7.6289062 15.933594 C 8.4533588 16.861103 9.6175162 17.550618 11 17.84375 L 11 30.15625 C 9.6175162 30.449382 8.4533588 31.138897 7.6289062 32.066406 C 6.5206642 33.313179 6 34.916667 6 36.5 C 6 38.083333 6.5206642 39.686821 7.6289062 40.933594 C 8.7371483 42.180367 10.458334 43 12.5 43 C 16.072085 43 19 40.072082 19 36.5 C 19 33.444671 16.855038 30.867295 14 30.183594 L 14 17.816406 C 16.855038 17.132705 19 14.555329 19 11.5 C 19 7.9279176 16.072085 5 12.5 5 z M 27.470703 5.9863281 A 1.50015 1.50015 0 0 0 26.439453 6.4394531 L 22.439453 10.439453 A 1.50015 1.50015 0 0 0 22.439453 12.560547 L 26.439453 16.560547 A 1.50015 1.50015 0 1 0 28.560547 14.439453 L 27.121094 13 L 31.5 13 C 32.898226 13 34 14.101774 34 15.5 L 34 30.304688 C 32.649706 30.606312 31.43873 31.155354 30.628906 32.066406 C 29.520664 33.313179 29 34.916667 29 36.5 C 29 38.083333 29.520664 39.686821 30.628906 40.933594 C 31.737148 42.180367 33.458334 43 35.5 43 C 39.072085 43 42 40.072082 42 36.5 C 42 33.458708 39.835368 31.002599 37 30.304688 L 37 15.5 C 37 12.480226 34.519774 10 31.5 10 L 27.121094 10 L 28.560547 8.5605469 A 1.50015 1.50015 0 0 0 27.470703 5.9863281 z M 12.5 8 C 14.450766 8 16 9.549235 16 11.5 C 16 13.40254 14.52312 14.912308 12.640625 14.986328 A 1.50015 1.50015 0 0 0 12.476562 14.978516 A 1.50015 1.50015 0 0 0 12.347656 14.986328 C 11.154195 14.950981 10.40526 14.542343 9.8710938 13.941406 C 9.3126698 13.313179 9 12.416667 9 11.5 C 9 10.583333 9.3126698 9.6868209 9.8710938 9.0585938 C 10.429518 8.4303665 11.208334 8 12.5 8 z M 12.351562 33.013672 A 1.50015 1.50015 0 0 0 12.640625 33.013672 C 14.52312 33.087692 16 34.59746 16 36.5 C 16 38.450765 14.450766 40 12.5 40 C 11.208334 40 10.429518 39.569633 9.8710938 38.941406 C 9.3126698 38.313179 9 37.416667 9 36.5 C 9 35.583333 9.3126698 34.686821 9.8710938 34.058594 C 10.405877 33.456963 11.155663 33.04817 12.351562 33.013672 z M 35.408203 33.017578 A 1.50015 1.50015 0 0 0 35.585938 33.017578 C 37.49337 33.065199 39 34.579875 39 36.5 C 39 38.450765 37.450766 40 35.5 40 C 34.208334 40 33.429518 39.569633 32.871094 38.941406 C 32.31267 38.313179 32 37.416667 32 36.5 C 32 35.583333 32.31267 34.686821 32.871094 34.058594 C 33.413375 33.448527 34.182432 33.041576 35.408203 33.017578 z"/></svg>