<?xml version="1.0" encoding="UTF-8"?>
<svg xmlns="http://www.w3.org/2000/svg" viewBox="0 0 64 64" width="64px" height="64px">
<g id="surface1759684">
<path style=" stroke:none;fill-rule:nonzero;fill:rgb(100%,100%,100%);fill-opacity:1;" d="M 57 62 L 7 62 C 4.25 62 2 59.75 2 57 L 2 7 C 2 4.25 4.25 2 7 2 L 57 2 C 59.75 2 62 4.25 62 7 L 62 57 C 62 59.75 59.75 62 57 62 Z M 57 62 "/>
<path style=" stroke:none;fill-rule:nonzero;fill:rgb(26.666668%,29.411766%,32.941177%);fill-opacity:1;" d="M 2 53.5 C 1.148438 53.5 0.5 52.851562 0.5 52 L 0.5 20.5 C 0.5 19.648438 1.148438 19 2 19 C 2.851562 19 3.5 19.648438 3.5 20.5 L 3.5 52 C 3.5 52.851562 2.851562 53.5 2 53.5 Z M 2 53.5 "/>
<path style=" stroke:none;fill-rule:nonzero;fill:rgb(26.666668%,29.411766%,32.941177%);fill-opacity:1;" d="M 57 63.5 L 26 63.5 C 25.148438 63.5 24.5 62.851562 24.5 62 C 24.5 61.148438 25.148438 60.5 26 60.5 L 57 60.5 C 58.949219 60.5 60.5 58.949219 60.5 57 L 60.5 7 C 60.5 5.050781 58.949219 3.5 57 3.5 L 7 3.5 C 5.050781 3.5 3.5 5.050781 3.5 7 L 3.5 12.5 L 55.5 12.5 C 56.351562 12.5 57 13.148438 57 14 C 57 14.851562 56.351562 15.5 55.5 15.5 L 2 15.5 C 1.148438 15.5 0.5 14.851562 0.5 14 L 0.5 7 C 0.5 3.398438 3.398438 0.5 7 0.5 L 57 0.5 C 60.601562 0.5 63.5 3.398438 63.5 7 L 63.5 57 C 63.5 60.601562 60.601562 63.5 57 63.5 Z M 57 63.5 "/>
<path style=" stroke:none;fill-rule:nonzero;fill:rgb(26.666668%,29.411766%,32.941177%);fill-opacity:1;" d="M 9.5 8 C 9.5 8.828125 8.828125 9.5 8 9.5 C 7.171875 9.5 6.5 8.828125 6.5 8 C 6.5 7.171875 7.171875 6.5 8 6.5 C 8.828125 6.5 9.5 7.171875 9.5 8 Z M 9.5 8 "/>
<path style=" stroke:none;fill-rule:nonzero;fill:rgb(26.666668%,29.411766%,32.941177%);fill-opacity:1;" d="M 14.5 8 C 14.5 8.828125 13.828125 9.5 13 9.5 C 12.171875 9.5 11.5 8.828125 11.5 8 C 11.5 7.171875 12.171875 6.5 13 6.5 C 13.828125 6.5 14.5 7.171875 14.5 8 Z M 14.5 8 "/>
<path style=" stroke:none;fill-rule:nonzero;fill:rgb(26.666668%,29.411766%,32.941177%);fill-opacity:1;" d="M 19.5 8 C 19.5 8.828125 18.828125 9.5 18 9.5 C 17.171875 9.5 16.5 8.828125 16.5 8 C 16.5 7.171875 17.171875 6.5 18 6.5 C 18.828125 6.5 19.5 7.171875 19.5 8 Z M 19.5 8 "/>
<path style=" stroke:none;fill-rule:nonzero;fill:rgb(12.941177%,37.64706%,75.294119%);fill-opacity:1;" d="M 32 24.898438 C 24.300781 24.898438 18 31.199219 18 38.898438 C 18 42.148438 19.101562 45.101562 20.949219 47.5 L 19.101562 49.351562 C 17.449219 48.550781 15.351562 48.851562 14 50.25 L 8.351562 55.898438 C 6.601562 57.648438 6.601562 60.5 8.351562 62.25 C 9.199219 63.101562 10.351562 63.550781 11.550781 63.550781 C 12.75 63.550781 13.898438 63.101562 14.75 62.25 L 20.398438 56.601562 C 21.25 55.75 21.699219 54.601562 21.699219 53.398438 C 21.699219 52.699219 21.550781 52.050781 21.25 51.449219 L 23.050781 49.648438 C 25.5 51.699219 28.601562 52.898438 32 52.898438 C 39.699219 52.898438 46 46.601562 46 38.898438 C 46 31.199219 39.699219 24.898438 32 24.898438 Z M 18.199219 54.449219 L 12.550781 60.101562 C 12 60.648438 11 60.648438 10.449219 60.101562 C 9.851562 59.5 9.851562 58.550781 10.449219 58 L 16.101562 52.351562 C 16.398438 52.050781 16.800781 51.898438 17.148438 51.898438 C 17.550781 51.898438 17.898438 52.050781 18.199219 52.351562 C 18.5 52.648438 18.648438 53 18.648438 53.398438 C 18.648438 53.800781 18.5 54.148438 18.199219 54.449219 Z M 32 49.898438 C 25.949219 49.898438 21 44.949219 21 38.898438 C 21 32.851562 25.949219 27.898438 32 27.898438 C 38.050781 27.898438 43 32.851562 43 38.898438 C 43 44.949219 38.050781 49.898438 32 49.898438 Z M 32 49.898438 "/>
</g>
</svg>
