<svg width="35" height="35" viewBox="0 0 35 35" fill="none" xmlns="http://www.w3.org/2000/svg">
<g clip-path="url(#clip0_2330_602)">
<path d="M7.22888 25.6118L11.4789 29.8618L15.7289 25.6118" stroke="black" stroke-linecap="round" stroke-linejoin="round"/>
<path d="M27.0621 24.1952L22.8121 19.9452L18.5621 24.1952" stroke="black" stroke-linecap="round" stroke-linejoin="round"/>
<path d="M11.4789 19.9452V29.8618" stroke="black" stroke-linecap="round" stroke-linejoin="round"/>
<path d="M22.8121 29.8618L22.8121 19.9452" stroke="black" stroke-linecap="round" stroke-linejoin="round"/>
<path d="M29.7255 25.7393C30.9571 24.8732 31.8807 23.6372 32.3623 22.2106C32.8439 20.784 32.8583 19.2411 32.4035 17.8057C31.9488 16.3704 31.0485 15.1173 29.8332 14.2283C28.618 13.3393 27.1512 12.8606 25.6455 12.8618H23.8605C23.4344 11.2013 22.6372 9.65908 21.5288 8.35126C20.4205 7.04344 19.0298 6.0041 17.4617 5.31148C15.8935 4.61886 14.1887 4.29102 12.4755 4.35263C10.7623 4.41424 9.08537 4.8637 7.57101 5.66717C6.05665 6.47064 4.74429 7.60718 3.73274 8.99124C2.72119 10.3753 2.0368 11.9708 1.73109 13.6576C1.42539 15.3445 1.50634 17.0787 1.96785 18.7297C2.42935 20.3807 3.25939 21.9055 4.39547 23.1893" stroke="black" stroke-width="1.5" stroke-linecap="round" stroke-linejoin="round"/>
</g>
<defs>
<clipPath id="clip0_2330_602">
<rect width="34" height="34" fill="white" transform="translate(0.145508 0.111816)"/>
</clipPath>
</defs>
</svg>
