<?xml version="1.0"?><svg fill="#000000" xmlns="http://www.w3.org/2000/svg"  viewBox="0 0 24 24" width="24px" height="24px">    <path d="M 4 3 C 2.9 3 2.0097656 3.9 2.0097656 5 L 2.0019531 16.998047 C 2.0019531 18.103047 2.8969531 19 4.0019531 19 L 6 19 L 6 23 L 10 19 L 20 19 C 21.1 19 22 18.1 22 17 L 22 5 C 22 3.9 21.1 3 20 3 L 4 3 z M 4 5 L 20 5 L 20 17 L 6 17 L 4.0019531 17 L 4 5 z M 11 7 L 11 15 L 13 15 L 13 7 L 11 7 z M 15 9 L 15 15 L 17 15 L 17 9 L 15 9 z M 7 11 L 7 15 L 9 15 L 9 11 L 7 11 z"/></svg> 