<svg width="35" height="34" viewBox="0 0 35 34" fill="none" xmlns="http://www.w3.org/2000/svg">
<g clip-path="url(#clip0_2330_496)">
<path d="M24.2073 29.75V26.9167C24.2073 25.4138 23.6103 23.9724 22.5476 22.9097C21.4849 21.847 20.0435 21.25 18.5407 21.25H7.20732C5.70442 21.25 4.26308 21.847 3.20038 22.9097C2.13767 23.9724 1.54065 25.4138 1.54065 26.9167V29.75" stroke="black" stroke-width="1.5" stroke-linecap="round" stroke-linejoin="round"/>
<path d="M12.8741 15.5833C16.0037 15.5833 18.5407 13.0463 18.5407 9.91667C18.5407 6.78705 16.0037 4.25 12.8741 4.25C9.74445 4.25 7.2074 6.78705 7.2074 9.91667C7.2074 13.0463 9.74445 15.5833 12.8741 15.5833Z" stroke="black" stroke-width="1.5" stroke-linecap="round" stroke-linejoin="round"/>
<path d="M32.7073 29.75V26.9166C32.7063 25.6611 32.2884 24.4414 31.5192 23.4491C30.75 22.4568 29.673 21.748 28.4573 21.4341" stroke="black" stroke-width="1.5" stroke-linecap="round" stroke-linejoin="round"/>
<path d="M22.7908 4.43414C24.0097 4.74624 25.0901 5.45514 25.8616 6.44908C26.6331 7.44303 27.0519 8.66549 27.0519 9.92373C27.0519 11.182 26.6331 12.4044 25.8616 13.3984C25.0901 14.3923 24.0097 15.1012 22.7908 15.4133" stroke="black" stroke-width="1.5" stroke-linecap="round" stroke-linejoin="round"/>
</g>
<defs>
<clipPath id="clip0_2330_496">
<rect width="34" height="34" fill="white" transform="translate(0.124023)"/>
</clipPath>
</defs>
</svg>
