<svg width="22" height="22" viewBox="0 0 22 22" fill="none" xmlns="http://www.w3.org/2000/svg">
<path d="M15.5943 12L11.5943 21C10.7986 21 10.0356 20.6839 9.47295 20.1213C8.91034 19.5587 8.59427 18.7956 8.59427 18V14H2.93427C2.64436 14.0033 2.3572 13.9435 2.0927 13.8248C1.82819 13.7061 1.59265 13.5313 1.40241 13.3125C1.21217 13.0937 1.07176 12.8362 0.990929 12.5577C0.910094 12.2793 0.890761 11.9866 0.934269 11.7L2.31427 2.7C2.38659 2.22309 2.62883 1.78839 2.99636 1.47599C3.36389 1.16359 3.83194 0.994543 4.31427 0.999995H15.5943M15.5943 12V0.999995M15.5943 12H18.2643C18.8302 12.01 19.3802 11.8119 19.8097 11.4432C20.2392 11.0745 20.5184 10.5609 20.5943 10V3C20.5184 2.43905 20.2392 1.9255 19.8097 1.55681C19.3802 1.18813 18.8302 0.989986 18.2643 0.999995H15.5943" stroke="#C91268" stroke-width="1.5" stroke-linecap="round" stroke-linejoin="round"/>
</svg>
