<?xml version="1.0"?><svg fill="#000000" xmlns="http://www.w3.org/2000/svg"  viewBox="0 0 50 50" width="25px" height="25px">    <path d="M 18.652344 3.0449219 C 14.379795 3.0802246 11.595937 5.0308594 11.414062 5.1621094 C 11.219062 5.3031094 11.081391 5.5101406 11.025391 5.7441406 L 7.7871094 19.517578 C 7.7081094 19.856578 7.8105937 20.212031 8.0585938 20.457031 C 8.3065937 20.702031 8.6649531 20.80075 9.0019531 20.71875 C 12.409953 19.64175 17.581625 19.490031 22.890625 22.457031 C 23.040625 22.541031 23.207953 22.583984 23.376953 22.583984 C 23.510953 22.583984 23.645484 22.557906 23.771484 22.503906 C 24.056484 22.380906 24.269703 22.131078 24.345703 21.830078 L 28.142578 6.9472656 C 28.249578 6.5292656 28.076891 6.0894219 27.712891 5.8574219 C 24.316141 3.6917969 21.215873 3.0237402 18.652344 3.0449219 z M 30.765625 8.1992188 C 30.609875 8.1832188 30.452234 8.2046719 30.302734 8.2636719 C 30.001734 8.3806719 29.776266 8.6342656 29.697266 8.9472656 L 25.923828 23.740234 C 25.821828 24.138234 25.974594 24.558828 26.308594 24.798828 C 29.739594 27.264828 33.206719 28 36.136719 28 C 38.978719 28 41.315094 27.309547 42.621094 26.810547 C 42.931094 26.692547 43.162281 26.428469 43.238281 26.105469 L 46.972656 10.228516 C 47.067656 9.8235156 46.901641 9.4029219 46.556641 9.1699219 C 46.211641 8.9389219 45.756016 8.9445 45.416016 9.1875 C 45.164016 9.3665 39.224937 13.652469 31.210938 8.3554688 C 31.075437 8.2674687 30.921375 8.2152187 30.765625 8.1992188 z M 13.603516 22.025391 C 10.846516 22.095516 8.5932031 22.842813 7.3457031 23.320312 C 7.0347031 23.438312 6.8045156 23.702391 6.7285156 24.025391 L 3.0253906 39.771484 C 3.0083906 39.846484 3 39.967922 3 40.044922 C 3 40.418922 3.2099687 40.759641 3.5429688 40.931641 C 3.8719688 41.101641 4.5820313 40.857422 4.5820312 40.857422 C 4.5820312 40.857422 10.454406 36.499578 18.066406 41.267578 C 18.222406 41.359578 18.397219 41.40625 18.574219 41.40625 C 18.704219 41.40625 18.835984 41.382078 18.958984 41.330078 C 19.249984 41.209078 19.467922 40.959297 19.544922 40.654297 L 23.3125 25.880859 C 23.4185 25.461859 23.246766 25.024016 22.884766 24.791016 C 19.622266 22.562016 16.360516 21.955266 13.603516 22.025391 z M 25.931641 27.083984 C 25.777516 27.070984 25.620156 27.094797 25.472656 27.154297 C 25.177656 27.274297 24.956906 27.525984 24.878906 27.833984 L 21.107422 42.617188 C 21.003422 43.020187 21.162906 43.444594 21.503906 43.683594 C 25.198906 46.265594 28.586516 47 31.228516 47 C 32.090516 47 32.8745 46.914828 33.5625 46.798828 C 36.6205 46.284828 38.508891 44.935906 38.587891 44.878906 C 38.798891 44.725906 38.940375 44.451641 38.984375 44.181641 L 42.177734 30.613281 C 42.256734 30.274281 42.15525 29.918828 41.90625 29.673828 C 41.65725 29.428828 41.299844 29.329109 40.964844 29.412109 C 35.856844 30.677109 30.785094 29.951469 26.371094 27.230469 C 26.236094 27.146969 26.085766 27.096984 25.931641 27.083984 z"/></svg>